<?xml version="1.0" standalone="no"?>
<!DOCTYPE svg PUBLIC "-//W3C//DTD SVG 1.1//EN" "http://www.w3.org/Graphics/SVG/1.1/DTD/svg11.dtd">
<svg xmlns="http://www.w3.org/2000/svg" xmlns:xlink="http://www.w3.org/1999/xlink" height="54" width="229" viewBox="0 0 229 54">
 <path fill="#005396" fill-rule="evenodd" d="M38.44 17.72c0 4.52.12 6.49.67 7.05.5.49 1.3.71 3.71.71 1.63 0 2.99-.03 3.74-.93.4-.49.7-1.26.79-1.85.04-.24.1-.4.28-.4.16 0 .19.13.19.47 0 .34-.22 2.18-.47 3.07-.21.71-.31.83-1.95.83-4.43 0-6.47-.17-8.26-.17-.27 0-2.1.08-3.02.08-.35 0-.5-.06-.5-.23 0-.1.06-.19.25-.19.27 0 .65-.06.92-.12.62-.13.78-.81.9-1.7.15-1.29.15-3.73.15-6.68v-5.43c0-4.8 0-5.67-.06-6.66-.06-1.04-.31-1.54-1.33-1.76-.24-.06-.77-.09-1.04-.09-.13 0-.25-.06-.25-.18 0-.18.15-.25.49-.25 1.39 0 3.34.1 3.49.1.15 0 2.4-.1 3.34-.1.33 0 .49.07.49.25 0 .12-.13.18-.25.18-.21 0-.65.03-1.02.09-.9.16-1.14.68-1.2 1.76-.06.99-.06 1.86-.06 6.66v5.49zm0 0M52.53 23.19c-.55 1.55-1.17 2.72-2.59 2.91-.24.03-.69.06-.89.06-.16 0-.29.06-.29.19 0 .17.2.23.6.23 1.45 0 3.14-.08 3.48-.08.34 0 1.67.08 2.41.08.27 0 .47-.06.47-.23 0-.13-.1-.19-.32-.19h-.31c-.53 0-1.17-.28-1.17-.9 0-.55.15-1.29.43-2.07l1.85-5.44c.07-.16.15-.25.32-.25h6.63c.15 0 .22.07.28.18l2.87 7.58c.18.5 0 .78-.18.84-.13.03-.23.09-.23.2 0 .2.35.2.93.22 2.13.06 4.39.06 4.85.06.33 0 .62-.06.62-.23 0-.16-.13-.19-.31-.19-.31 0-.77-.03-1.24-.19-.65-.18-1.54-.68-2.65-3.42-1.89-4.68-6.73-17.41-7.19-18.58-.37-.95-.5-1.11-.69-1.11-.18 0-.3.19-.68 1.2l-7 19.13zm4.33-6.8c-.1 0-.16-.06-.1-.22l2.71-8.32c.17-.46.32-.46.47 0l2.93 8.32c.03.13.03.22-.13.22h-5.88zm0 0M78.21 22.4c.06 2.53.37 3.32 1.21 3.57.58.16 1.26.19 1.54.19.15 0 .25.06.25.19 0 .17-.18.23-.56.23-1.76 0-2.99-.08-3.27-.08-.28 0-1.58.08-2.96.08-.31 0-.5-.03-.5-.23 0-.13.09-.19.25-.19.25 0 .8-.03 1.27-.19.76-.21.92-1.11.92-3.91l.03-17.65c0-1.21.09-1.55.33-1.55.25 0 .79.68 1.09.99.46.52 5.06 5.48 9.81 10.57 3.06 3.26 6.42 7.02 7.41 8.04L94.69 6.8c-.03-2-.24-2.67-1.2-2.93-.55-.12-1.27-.15-1.51-.15-.22 0-.25-.09-.25-.21 0-.18.25-.22.62-.22 1.39 0 2.87.1 3.21.1.34 0 1.36-.1 2.62-.1.34 0 .55.04.55.22 0 .12-.12.21-.34.21-.15 0-.37 0-.73.09-1.03.22-1.14.91-1.14 2.75l-.07 18.05c0 2.04-.06 2.19-.28 2.19-.24 0-.61-.34-2.25-1.97-.34-.31-4.78-4.84-8.05-8.35-3.58-3.85-7.07-7.74-8.06-8.84l.4 14.76zm0 0M103.58 17.66c0 2.95 0 5.39-.16 6.68-.12.89-.27 1.57-.89 1.7-.27.06-.64.12-.93.12-.18 0-.24.09-.24.19 0 .17.15.23.49.23.93 0 2.88-.08 3.03-.08.31 0 4.2.36 6.85.36 5.25 0 8.02-2.15 9.34-3.54 1.74-1.81 3.34-4.8 3.34-8.69 0-3.66-1.44-6.22-2.99-7.83-3.68-3.78-9.33-3.51-12.38-3.51-1.85 0-3.8.1-4.16.1-.15 0-2.1-.1-3.49-.1-.34 0-.49.07-.49.25 0 .12.12.18.24.18.28 0 .8.03 1.06.09 1.01.22 1.26.72 1.32 1.76.06.99.06 1.86.06 6.66v5.43zm2.59-5.92c0-2.37 0-5.52.04-6.57 0-.34.08-.49.37-.61.24-.13 1.38-.22 2-.22 3.67 0 7.19.43 10.09 3.48 1.27 1.32 2.97 3.85 2.97 7.76 0 2.84-.87 5.81-2.47 7.37-1.82 1.82-4.48 2.86-7.35 2.86-3.64 0-4.84-.65-5.24-1.23-.25-.34-.32-1.57-.35-2.34-.02-.58-.06-3.41-.06-6.68v-3.82zm0 0M152.28 22.61c.13 1.11.34 2.84 1.67 3.27.9.28 1.7.28 2.01.28.15 0 .24.03.24.14 0 .2-.28.28-.65.28-.68 0-4.01-.08-5.14-.18-.72-.05-.88-.15-.88-.3 0-.13.07-.19.22-.22.16-.04.19-.56.13-1.11l-1.48-15.9h-.1l-7.56 16.02c-.65 1.36-.73 1.63-1.02 1.63-.22 0-.36-.3-.95-1.41-.8-1.51-3.46-6.84-3.62-7.15-.27-.55-3.73-7.94-4.07-8.78h-.13l-1.23 14.3c-.03.49-.03 1.04-.03 1.57 0 .46.34.86.8.94.53.14.99.17 1.17.17.12 0 .25.06.25.14 0 .22-.19.28-.55.28-1.14 0-2.62-.08-2.87-.08-.28 0-1.76.08-2.59.08-.31 0-.54-.06-.54-.28 0-.08.16-.14.31-.14.26 0 .47 0 .94-.09 1.01-.19 1.1-1.39 1.23-2.56l2.22-20.1c.07-.33.16-.55.34-.55.19 0 .31.12.46.47l9.45 19.37 9.07-19.34c.13-.28.25-.5.47-.5.21 0 .31.25.36.83l2.07 18.92zm0 0M160.46 23.19c-.56 1.55-1.18 2.72-2.59 2.91-.25.03-.69.06-.9.06-.16 0-.28.06-.28.19 0 .17.19.23.58.23 1.46 0 3.16-.08 3.49-.08.34 0 1.67.08 2.41.08.28 0 .46-.06.46-.23 0-.13-.08-.19-.3-.19h-.32c-.52 0-1.16-.28-1.16-.9 0-.55.15-1.29.43-2.07l1.84-5.44c.07-.16.16-.25.32-.25h6.63c.16 0 .22.07.28.18l2.87 7.58c.19.5 0 .78-.18.84-.12.03-.22.09-.22.2 0 .2.34.2.93.22 2.12.06 4.38.06 4.85.06.33 0 .6-.06.6-.23 0-.16-.11-.19-.3-.19-.3 0-.77-.03-1.23-.19-.66-.18-1.55-.68-2.66-3.42-1.88-4.68-6.73-17.41-7.19-18.58-.37-.95-.49-1.11-.68-1.11-.19 0-.32.19-.67 1.2l-7.01 19.13zm4.32-6.8c-.1 0-.16-.06-.1-.22l2.72-8.32c.16-.46.31-.46.46 0l2.93 8.32c.03.13.03.22-.12.22h-5.89zm0 0M183.45 17.66c0 2.95 0 5.39-.15 6.68-.13.89-.29 1.57-.9 1.7-.28.06-.65.12-.92.12-.19 0-.25.09-.25.19 0 .17.15.23.49.23.92 0 2.87-.08 2.91-.08.15 0 2.09.08 3.78.08.34 0 .5-.08.5-.23 0-.1-.06-.19-.24-.19-.28 0-.97-.06-1.4-.12-.92-.13-1.1-.81-1.2-1.7-.16-1.29-.16-3.73-.16-6.68v-.75c0-.15.07-.23.23-.23l3.79.05c.18 0 .28.07.4.18.62.81 2.07 2.87 3.37 4.56 1.75 2.31 2.83 3.82 4.16 4.52.8.45 1.57.59 3.3.59h2.19c.56 0 .75-.06.75-.23 0-.1-.12-.19-.28-.19-.18 0-.61 0-1.21-.09-.76-.13-2.1-.47-3.76-2.22-1.79-1.92-3.88-4.66-6.42-7.9 2.77-2.55 3.73-4.83 3.73-7.11 0-2.13-1.35-3.64-2.13-4.19-1.63-1.17-3.7-1.36-5.64-1.36-.96 0-3.31.1-3.64.1-.16 0-2.11-.1-3.49-.1-.34 0-.5.07-.5.25 0 .12.12.18.25.18.28 0 .8.03 1.05.09 1.02.22 1.27.72 1.33 1.76.06.99.06 1.86.06 6.66v5.43zm2.46-12.83c0-.18.1-.3.26-.36.31-.1 1.14-.18 2.06-.18 3.31 0 5.34 2.3 5.34 6.14 0 2.36-.8 4.02-1.88 4.75-.71.5-1.58.59-2.31.59-1.36 0-2.79-.21-3.24-.49-.16-.1-.23-.21-.23-.37V4.83zm0 0M207.4 12.23c0-4.8 0-5.67-.07-6.66-.05-1.04-.3-1.54-1.32-1.76-.25-.06-.77-.09-1.05-.09-.13 0-.24-.06-.24-.18 0-.18.15-.25.49-.25 1.39 0 3.21.1 3.4.1.27 0 2.07-.1 2.98-.1.34 0 .5.07.5.25 0 .12-.13.18-.24.18-.22 0-.42.03-.78.09-.84.16-1.07.68-1.14 1.76-.05.99-.05 1.86-.05 6.66v1.85h.12c.51-.58 6.1-6.26 7.21-7.46.87-.9 1.67-1.69 1.67-2.21 0-.38-.15-.56-.4-.66-.16-.06-.28-.12-.28-.24 0-.15.16-.22.38-.22.61 0 1.57.1 2.31.1.15 0 2.19-.1 2.96-.1.34 0 .47.07.47.22s-.07.21-.32.21c-.46 0-1.11.15-1.73.43-1.26.57-1.94 1.33-3.33 2.65-.77.75-6.14 5.99-6.79 6.76.8.89 7.22 7.51 8.49 8.68 2.6 2.4 3.12 2.9 4.59 3.52.81.34 1.7.4 1.92.4.22 0 .41.06.41.19 0 .15-.17.23-.68.23h-1.57c-.88 0-1.46 0-2.14-.06-1.64-.14-2.41-.82-3.74-1.88-1.38-1.13-7.92-8.18-9.41-10.01h-.14v3.03c0 2.95 0 5.39.14 6.68.1.89.28 1.57 1.2 1.7.44.06.93.12 1.21.12.19 0 .25.09.25.19 0 .15-.16.23-.5.23-1.5 0-3.3-.08-3.55-.08-.24 0-2.03.08-2.96.08-.34 0-.5-.06-.5-.23 0-.1.07-.19.26-.19.28 0 .65-.06.92-.12.62-.13.77-.81.89-1.7.16-1.29.16-3.73.16-6.68v-5.43zm0 0M156.04 47.1c0-1.96-.13-2.23-1.09-2.48-.19-.06-.6-.09-.82-.09-.1 0-.19-.03-.19-.13 0-.15.12-.2.39-.2 1.08 0 2.6.07 2.72.07.12 0 1.64-.07 2.37-.07.26 0 .38.05.38.2 0 .1-.1.13-.19.13-.17 0-.32.03-.61.09-.65.11-.84.52-.9 1.36-.03.78-.03 1.5-.03 2.51v2.7c0 1.08-.03 1.13-.32 1.3-1.55.82-3.72 1.08-5.11 1.08-1.83 0-5.27-.24-7.94-2.58-1.47-1.27-2.87-3.85-2.87-6.86 0-3.85 1.88-6.57 4.03-7.93 2.17-1.34 4.55-1.52 6.42-1.52 1.52 0 3.23.32 3.69.42.5.12 1.34.22 1.95.24.24.03.28.13.28.21 0 .34-.16 1.02-.16 3.43 0 .38-.05.5-.22.5-.12 0-.14-.14-.16-.36-.03-.34-.15-1.01-.51-1.59-.61-.92-2.56-1.95-5.67-1.95-1.52 0-3.33.15-5.16 1.59-1.4 1.11-2.39 3.31-2.39 6.12 0 3.4 1.71 5.85 2.56 6.67 1.9 1.86 4.1 2.57 6.32 2.57.86 0 2.12-.14 2.74-.5.32-.17.49-.44.49-.84V47.1zm0 0M162.52 46.25c0 2.32 0 4.22-.11 5.23-.1.7-.21 1.23-.7 1.32-.22.05-.51.09-.72.09-.15 0-.21.07-.21.16 0 .14.14.19.4.19.72 0 2.24-.07 2.27-.07.12 0 1.63.07 2.96.07.27 0 .39-.07.39-.19 0-.09-.05-.16-.2-.16-.21 0-.74-.04-1.08-.09-.73-.09-.87-.62-.94-1.32-.12-1.01-.12-2.91-.12-5.23v-.58c0-.12.04-.19.17-.19l2.97.05c.13 0 .21.04.31.14.48.62 1.61 2.25 2.63 3.57 1.37 1.8 2.21 2.98 3.25 3.54.62.34 1.23.46 2.58.46h1.72c.42 0 .58-.05.58-.19 0-.09-.1-.16-.23-.16-.14 0-.47 0-.94-.06-.6-.1-1.63-.36-2.93-1.73-1.41-1.5-3.05-3.65-5.03-6.18 2.17-1.99 2.93-3.78 2.93-5.56 0-1.66-1.07-2.84-1.67-3.27-1.28-.92-2.89-1.06-4.41-1.06-.75 0-2.58.07-2.84.07-.13 0-1.65-.07-2.73-.07-.27 0-.39.04-.39.19 0 .1.09.15.2.15.21 0 .62.02.81.07.79.16.99.55 1.04 1.37.04.77.04 1.44.04 5.2v4.24zm1.94-10.03c0-.13.07-.23.19-.27.24-.08.9-.15 1.61-.15 2.58 0 4.18 1.8 4.18 4.81 0 1.84-.63 3.13-1.47 3.72-.56.38-1.24.45-1.81.45-1.06 0-2.16-.16-2.53-.38-.13-.07-.17-.17-.17-.29v-7.89zm0 0">
 </path>
 <path fill="none" fill-rule="evenodd" d="M196.39 53.57h-18.98V34.69h18.98v18.88zm0 0">
 </path>
 <path fill="#005396" fill-rule="evenodd" d="M177.41 44.11c0 4.33 2.75 9.46 9.36 9.46 5.81 0 9.62-4.45 9.62-9.85 0-5.61-4.05-9.03-9.47-9.03-6.67 0-9.51 5.52-9.51 9.42m2.29-.68c0-5.27 3.01-7.92 7.05-7.92 3.8 0 7.33 3.1 7.33 8.89 0 7.01-4.49 8.25-6.66 8.25-4.34 0-7.72-3.61-7.72-9.22M198.95 42.01c0-3.76 0-4.43-.04-5.2-.06-.82-.25-1.21-1.05-1.37-.19-.05-.6-.07-.81-.07-.11 0-.19-.05-.19-.15 0-.15.12-.19.38-.19 1.09 0 2.55.07 2.77.07.22 0 1.67-.07 2.39-.07.27 0 .38.04.38.19 0 .1-.09.15-.19.15-.16 0-.31.02-.6.07-.65.09-.85.53-.89 1.37-.06.77-.06 1.44-.06 5.2v3.38c0 3.46.78 4.95 1.81 5.94 1.19 1.12 2.28 1.32 3.65 1.32 1.47 0 2.92-.69 3.79-1.73 1.11-1.37 1.4-3.42 1.4-5.89v-3.02c0-3.76 0-4.43-.05-5.2-.06-.82-.24-1.21-1.04-1.37-.19-.05-.6-.07-.82-.07-.09 0-.19-.05-.19-.15 0-.15.11-.19.38-.19 1.08 0 2.41.07 2.56.07.17 0 1.3-.07 2.02-.07.27 0 .39.04.39.19 0 .1-.09.15-.19.15-.16 0-.32 0-.6.07-.66.11-.84.53-.89 1.37-.06.77-.06 1.44-.06 5.2v2.58c0 2.6-.28 5.49-2.21 7.2-1.74 1.54-3.55 1.78-4.98 1.78-.81 0-3.24-.1-4.97-1.71-1.17-1.13-2.09-2.82-2.09-6.33v-3.52zm0 0">
 </path>
 <path fill="none" fill-rule="evenodd" d="M228.72 53.24V35.03h-11.85v18.21h11.85zm0 0">
 </path>
 <path fill="#005396" fill-rule="evenodd" d="M218.98 42.01c0-3.76 0-4.43-.06-5.2-.04-.82-.24-1.21-1.04-1.37-.19-.05-.6-.07-.82-.07-.1 0-.19-.05-.19-.15 0-.15.13-.19.4-.19 1.07 0 2.52.07 2.71.07.53 0 1.94-.07 3.04-.07 3.02 0 4.11 1.01 4.49 1.37.53.51 1.21 1.59 1.21 2.87 0 3.42-2.51 5.73-5.93 5.73-.12 0-.39 0-.51-.03-.12 0-.26-.05-.26-.16 0-.19.14-.22.65-.22 2.33 0 4.17-1.71 4.17-3.93 0-.79-.08-2.41-1.35-3.71-1.28-1.3-2.75-1.2-3.3-1.2-.42 0-.83.05-1.05.14-.14.06-.19.22-.19.47v9.89c0 2.32 0 4.22.12 5.23.07.7.21 1.23.95 1.32.33.05.86.09 1.08.09.14 0 .19.07.19.16 0 .12-.12.19-.39.19-1.32 0-2.84-.07-2.96-.07-.08 0-1.6.07-2.32.07-.27 0-.39-.05-.39-.19 0-.09.05-.16.2-.16.21 0 .5-.04.72-.09.48-.09.6-.62.7-1.32.13-1.01.13-2.91.13-5.23v-4.24zm0 0">
 </path>
 <path fill="#dfbb24" fill-rule="evenodd" d="M24.67 20.28c0 .01 0 .02-.01.03h-9.44v3.77h6.32c-1.89 1.46-4.07 1.97-6.65 1.97-4.56 0-8.47-2.75-10.2-6.67h18.02v-.01h6.38c.38-1.2.61-2.46.67-3.78h-3.73c0 .01-.01.02-.01.02l-22.25.01v-.03H.03c.36 7.89 6.87 14.18 14.86 14.18 6.47 0 11.77-3.75 13.83-9.49h-4.05zm0 0M25.1 10.86l-20.47.01c1.71-3.95 5.65-6.71 10.22-6.71V.44C6.87.44.36 6.72 0 14.6h29.72c-.05-1.3-.28-2.55-.66-3.74H25.1zm0 0">
 </path>
</svg>