<svg height="512pt" viewBox="-27 0 511 512" width="512pt" xmlns="http://www.w3.org/2000/svg"><path d="m77.160156 68.703125 25.273438-16.070313 26.25 41.28125-25.273438 16.070313zm0 0" fill="#de1617"/><path d="m329.707031 93.9375 26.253907-41.28125 25.273437 16.074219-26.253906 41.28125zm0 0" fill="#fb4c2e"/><path d="m407.175781 139.667969c-32.222656-39.878907-77.351562-68.070313-127.074219-79.375h-101.808593c-49.71875 11.304687-94.847657 39.496093-127.070313 79.375-32.707031 40.480469-50.722656 91.492187-50.722656 143.632812 0 61.089844 23.789062 118.519531 66.984375 161.714844s100.625 66.984375 161.714844 66.984375c61.085937 0 118.515625-23.789062 161.714843-66.984375 43.195313-43.195313 66.980469-100.625 66.980469-161.714844.003907-52.140625-18.011719-103.152343-50.71875-143.632812zm0 0" fill="#549bd7"/><path d="m329.707031 93.9375 26.253907-41.28125 25.273437 16.074219-26.253906 41.28125zm0 0" fill="#de1617"/><path d="m407.175781 139.667969c-32.222656-39.878907-77.351562-68.070313-127.074219-79.375h-51.015624v451.707031h.113281c61.085937 0 118.515625-23.789062 161.714843-66.984375 43.195313-43.195313 66.980469-100.625 66.980469-161.714844.003907-52.140625-18.011719-103.152343-50.71875-143.632812zm0 0" fill="#1b5c91"/><path d="m166.632812 0h125.128907v63.21875h-125.128907zm0 0" fill="#1b5c91"/><path d="m229.085938 0h62.675781v63.21875h-62.675781zm0 0" fill="#0e2e4b"/><path d="m229.199219 115.816406c-93.816407 0-170.144531 76.324219-170.144531 170.144532 0 93.816406 76.324218 170.140624 170.144531 170.140624 93.816406 0 170.140625-76.324218 170.140625-170.140624 0-93.820313-76.324219-170.144532-170.140625-170.144532zm0 0" fill="#d7e9fe"/><path d="m229.199219 115.816406c-.039063 0-.074219 0-.113281 0v340.285156h.113281c93.816406 0 170.140625-76.324218 170.140625-170.144531 0-93.816406-76.324219-170.140625-170.140625-170.140625zm0 0" fill="#b6d9fd"/><path d="m229.199219 100.839844c-102.078125 0-185.121094 83.042968-185.121094 185.121094 0 102.074218 83.042969 185.117187 185.121094 185.117187 102.074219 0 185.117187-83.042969 185.117187-185.117187 0-102.078126-83.042968-185.121094-185.117187-185.121094zm0 340.285156c-85.558594 0-155.167969-69.605469-155.167969-155.164062 0-80.507813 61.632812-146.882813 140.191406-154.441407v39.050781h29.953125v-39.050781c78.554688 7.558594 140.1875 73.933594 140.1875 154.441407 0 85.558593-69.605469 155.164062-155.164062 155.164062zm0 0" fill="#fdbf00"/><path d="m229.199219 100.839844c-.039063 0-.074219 0-.113281 0v69.730468h15.089843v-39.050781c78.554688 7.558594 140.1875 73.933594 140.1875 154.441407 0 85.558593-69.605469 155.164062-155.164062 155.164062-.039063 0-.074219 0-.113281 0v29.953125h.113281c102.074219 0 185.117187-83.042969 185.117187-185.117187 0-102.078126-83.042968-185.121094-185.117187-185.121094zm0 0" fill="#ff9100"/><path d="m221.035156 265.042969c-2.269531.886719-4.414062 2.132812-6.332031 3.75-4.582031 3.871093-7.386719 9.296875-7.890625 15.277343-1.042969 12.34375 8.152344 23.234376 20.496094 24.277344.644531.054688 1.289062.082032 1.925781.082032 5.292969 0 10.367187-1.851563 14.457031-5.304688 1.917969-1.621094 3.503906-3.519531 4.757813-5.609375l61.847656-80.027344zm0 0" fill="#fb4c2e"/><path d="m229.085938 260.753906v47.667969c.050781 0 .101562.003906.148437.003906 5.292969 0 10.367187-1.847656 14.457031-5.300781 1.917969-1.621094 3.503906-3.523438 4.757813-5.613281l61.847656-80.023438zm0 0" fill="#de1617"/></svg>