<svg xmlns="http://www.w3.org/2000/svg" xmlns:xlink="http://www.w3.org/1999/xlink" viewBox="0 0 64 64" id="corporate">
  <defs>
    <path id="a" d="m58.32 48.36 4.91 2.67a1.27 1.27 0 0 0-.8-.14l-4.91-2.67c.29-.04.57.01.8.14z"></path>
  </defs>
  <clipPath id="b">
    <use xlink:href="#a" overflow="visible"></use>
  </clipPath>
  <g clip-path="url(#b)">
    <path fill="#46545a" d="m62.43 50.89-4.91-2.67c.18-.03.36-.02.52.03l4.91 2.67c-.16-.04-.34-.05-.52-.03"></path>
    <path fill="#445157" d="m62.95 50.92-4.91-2.67c.08.02.16.05.24.09l4.91 2.67c-.08-.04-.16-.07-.24-.09"></path>
    <path fill="#404f55" d="m63.19 51.01-4.91-2.67c.02.01.03.02.05.02l4.91 2.67c-.02-.01-.04-.01-.05-.02"></path>
  </g>
  <path fill="#4a5960" d="m61.94 50.96-4.91-2.67.49-.07 4.91 2.67z"></path>
  <defs>
    <path id="c" d="m58.17 48.82-4.91-2.67c.34-.05.6-.37.61-.73l4.91 2.67c0 .36-.27.68-.61.73z"></path>
  </defs>
  <clipPath id="d">
    <use xlink:href="#c" overflow="visible"></use>
  </clipPath>
  <g clip-path="url(#d)">
    <path fill="#2f7390" d="m58.17 48.82-4.91-2.67c.06-.01.12-.03.18-.05l4.91 2.67c-.06.02-.12.04-.18.05"></path>
    <path fill="#2c6f8b" d="m58.35 48.77-4.91-2.67c.03-.02.07-.04.1-.06l4.91 2.67c-.03.02-.06.04-.1.06"></path>
    <path fill="#2b6b87" d="m58.45 48.71-4.91-2.67c.03-.02.05-.04.07-.06l4.91 2.67c-.02.02-.04.04-.07.06"></path>
    <path fill="#296883" d="m58.52 48.65-4.91-2.67.06-.06 4.91 2.67-.06.06"></path>
    <path fill="#28657e" d="m58.58 48.59-4.91-2.67a.18.18 0 0 0 .05-.07l4.91 2.67c-.01.02-.03.05-.05.07"></path>
    <path fill="#27617a" d="m58.64 48.52-4.91-2.67c.02-.03.03-.05.05-.08l4.91 2.67c-.02.03-.03.06-.05.08"></path>
    <path fill="#255e76" d="m58.69 48.44-4.91-2.67c.02-.03.03-.07.04-.1l4.91 2.67c-.01.04-.03.07-.04.1"></path>
    <path fill="#245a71" d="m58.73 48.34-4.91-2.67c.03-.08.05-.16.05-.25l4.91 2.67c0 .09-.02.17-.05.25"></path>
  </g>
  <path fill="#23596f" d="m58.78 48.09-4.92-2.67.01-3.41 4.91 2.67z"></path>
  <defs>
    <path id="e" d="m53.59 41.51 4.91 2.67c.17.09.28.28.28.5l-4.91-2.67c0-.23-.11-.41-.28-.5z"></path>
  </defs>
  <clipPath id="f">
    <use xlink:href="#e" overflow="visible"></use>
  </clipPath>
  <g clip-path="url(#f)">
    <path fill="#245a71" d="m58.78 44.68-4.91-2.67c0-.23-.11-.41-.28-.5l4.91 2.67c.17.09.28.27.28.5"></path>
  </g>
  <defs>
    <path id="g" d="m53.59 41.51 4.91 2.67a.593.593 0 0 0-.33-.06l-4.91-2.67c.13-.02.24 0 .33.06z"></path>
  </defs>
  <clipPath id="h">
    <use xlink:href="#g" overflow="visible"></use>
  </clipPath>
  <g clip-path="url(#h)">
    <path fill="#9d9fa2" d="m58.18 44.12-4.91-2.67a.48.48 0 0 1 .21.01l4.91 2.67c-.06-.01-.14-.02-.21-.01"></path>
    <path fill="#999b9d" d="m58.39 44.13-4.91-2.67c.03.01.07.02.1.04l4.91 2.67a.3.3 0 0 0-.1-.04"></path>
    <path fill="#949798" d="m58.49 44.17-4.91-2.67c.01 0 .01.01.02.01l4.91 2.67c-.01-.01-.02-.01-.02-.01"></path>
  </g>
  <path fill="#4a5960" d="m44.33 53.44-4.91-2.67 17.61-2.48 4.91 2.67z"></path>
  <path fill="#307b9a" d="m55.01 49.26-4.91-2.67 3.16-.44 4.91 2.67z"></path>
  <defs>
    <path id="i" d="m54.69 49.21-4.91-2.67c.09.05.2.07.32.05l4.91 2.67c-.12.02-.22 0-.32-.05z"></path>
  </defs>
  <clipPath id="j">
    <use xlink:href="#i" overflow="visible"></use>
  </clipPath>
  <g clip-path="url(#j)">
    <path fill="#2b6b87" d="m54.69 49.21-4.91-2.67c.01 0 .01.01.02.01l4.91 2.67s-.01-.01-.02-.01"></path>
    <path fill="#2c6f8b" d="m54.71 49.22-4.91-2.67c.03.01.06.03.09.03l4.91 2.67-.09-.03"></path>
    <path fill="#2f7390" d="m54.81 49.25-4.91-2.67c.06.02.13.02.21.01l4.91 2.67a.48.48 0 0 1-.21-.01"></path>
  </g>
  <defs>
    <path id="k" d="m54.69 49.21-4.91-2.67a.556.556 0 0 1-.28-.5l4.91 2.67c.01.22.12.41.28.5z"></path>
  </defs>
  <clipPath id="l">
    <use xlink:href="#k" overflow="visible"></use>
  </clipPath>
  <g clip-path="url(#l)">
    <path fill="#7d7f80" d="m54.69 49.21-4.91-2.67a.556.556 0 0 1-.28-.5l4.91 2.67c.01.22.12.41.28.5"></path>
  </g>
  <defs>
    <path id="m" d="m58.19 41.36-4.91-2.67c.34-.05.61-.37.61-.73l4.91 2.67c-.01.36-.28.69-.61.73z"></path>
  </defs>
  <clipPath id="n">
    <use xlink:href="#m" overflow="visible"></use>
  </clipPath>
  <g clip-path="url(#n)">
    <path fill="#2f7390" d="m58.19 41.36-4.91-2.67c.06-.01.12-.03.18-.05l4.91 2.67c-.06.03-.12.05-.18.05"></path>
    <path fill="#2c6f8b" d="m58.37 41.31-4.91-2.67c.03-.02.07-.04.1-.06l4.91 2.67a.88.88 0 0 0-.1.06"></path>
    <path fill="#2b6b87" d="m58.46 41.25-4.91-2.67c.03-.02.05-.04.07-.06l4.91 2.67c-.02.03-.04.05-.07.06"></path>
    <path fill="#296883" d="m58.54 41.2-4.91-2.67.06-.06 4.91 2.67-.06.06"></path>
    <path fill="#28657e" d="m58.6 41.13-4.91-2.67a.18.18 0 0 0 .05-.07l4.91 2.67c-.01.03-.03.05-.05.07"></path>
    <path fill="#27617a" d="m58.65 41.07-4.91-2.67c.02-.03.03-.05.05-.08l4.91 2.67c-.01.02-.03.05-.05.08"></path>
    <path fill="#255e76" d="m58.7 40.99-4.91-2.67c.02-.03.03-.07.05-.1l4.91 2.67c-.02.03-.03.06-.05.1"></path>
    <path fill="#245a71" d="m58.75 40.89-4.91-2.67c.03-.08.05-.16.05-.25l4.91 2.67c-.01.08-.03.17-.05.25"></path>
  </g>
  <path fill="#abadad" d="m55.02 44.57-4.91-2.68 3.16-.44 4.91 2.67z"></path>
  <path fill="#7b7d7e" d="m54.42 48.7-4.92-2.67.01-3.41 4.91 2.67z"></path>
  <path fill="#23596f" d="m58.79 40.64-4.91-2.68v-3.41l4.92 2.67z"></path>
  <defs>
    <path id="o" d="m54.42 45.29-4.91-2.67c0-.35.27-.68.6-.73l4.91 2.67c-.33.05-.6.38-.6.73z"></path>
  </defs>
  <clipPath id="p">
    <use xlink:href="#o" overflow="visible"></use>
  </clipPath>
  <g clip-path="url(#p)">
    <path fill="#7d7f80" d="m54.42 45.29-4.91-2.67c0-.09.02-.17.05-.25l4.91 2.67c-.03.08-.05.17-.05.25"></path>
    <path fill="#818484" d="m54.47 45.04-4.91-2.67c.01-.03.03-.07.05-.1l4.91 2.67c-.02.03-.04.07-.05.1"></path>
    <path fill="#868889" d="m54.51 44.94-4.91-2.67c.01-.03.03-.05.05-.08l4.91 2.67c-.02.03-.03.05-.05.08"></path>
    <path fill="#8c8e8e" d="m54.56 44.86-4.91-2.67c.02-.02.03-.05.05-.07l4.91 2.67a.18.18 0 0 1-.05.07"></path>
    <path fill="#8f9393" d="m54.62 44.79-4.91-2.67.06-.06 4.91 2.67-.06.06"></path>
    <path fill="#949798" d="m54.68 44.73-4.91-2.67c.02-.02.05-.04.07-.06l4.91 2.67c-.03.02-.05.04-.07.06"></path>
    <path fill="#999b9d" d="M54.75 44.67 49.84 42c.03-.02.06-.04.1-.06l4.91 2.67a.88.88 0 0 0-.1.06"></path>
    <path fill="#9d9fa2" d="m54.85 44.62-4.91-2.67c.05-.03.11-.04.17-.05l4.91 2.67a.48.48 0 0 0-.17.05"></path>
  </g>
  <defs>
    <path id="q" d="m53.61 34.05 4.91 2.67c.17.09.28.28.28.5l-4.91-2.67a.598.598 0 0 0-.28-.5z"></path>
  </defs>
  <clipPath id="r">
    <use xlink:href="#q" overflow="visible"></use>
  </clipPath>
  <g clip-path="url(#r)">
    <path fill="#245a71" d="m58.8 37.22-4.91-2.67c0-.23-.11-.41-.28-.5l4.91 2.67c.17.09.28.28.28.5"></path>
  </g>
  <defs>
    <path id="s" d="m51.26 49.79-4.91-2.67c.34-.05.6-.37.6-.73l4.91 2.67c0 .36-.26.68-.6.73z"></path>
  </defs>
  <clipPath id="t">
    <use xlink:href="#s" overflow="visible"></use>
  </clipPath>
  <g clip-path="url(#t)">
    <path fill="#2f7390" d="m51.26 49.79-4.91-2.67c.06-.01.12-.03.18-.05l4.91 2.67c-.05.02-.11.04-.18.05"></path>
    <path fill="#2c6f8b" d="m51.44 49.74-4.91-2.67c.03-.02.07-.03.1-.06l4.91 2.67a.88.88 0 0 1-.1.06"></path>
    <path fill="#2b6b87" d="m51.54 49.68-4.91-2.67c.02-.02.05-.04.07-.06l4.91 2.67c-.02.03-.05.04-.07.06"></path>
    <path fill="#296883" d="m51.61 49.63-4.91-2.67.06-.06 4.91 2.67-.06.06"></path>
    <path fill="#28657e" d="m51.67 49.57-4.91-2.67a.18.18 0 0 0 .05-.07l4.91 2.67c-.02.02-.03.04-.05.07"></path>
    <path fill="#27617a" d="m51.72 49.5-4.91-2.67c.02-.02.03-.05.05-.08l4.91 2.67c-.02.03-.03.05-.05.08"></path>
    <path fill="#255e76" d="m51.77 49.42-4.91-2.67c.02-.03.03-.07.04-.1l4.91 2.67a.3.3 0 0 1-.04.1"></path>
    <path fill="#245a71" d="m51.81 49.32-4.91-2.67c.03-.08.05-.17.05-.26l4.91 2.67c0 .09-.02.18-.05.26"></path>
  </g>
  <defs>
    <path id="u" d="m53.61 34.05 4.91 2.67a.593.593 0 0 0-.33-.06l-4.91-2.67c.12-.01.23.01.33.06z"></path>
  </defs>
  <clipPath id="v">
    <use xlink:href="#u" overflow="visible"></use>
  </clipPath>
  <g clip-path="url(#v)">
    <path fill="#9d9fa2" d="M58.19 36.67 53.28 34a.48.48 0 0 1 .21.01l4.91 2.67a.48.48 0 0 0-.21-.01"></path>
    <path fill="#999b9d" d="M58.41 36.68 53.49 34c.03.01.07.02.1.04l4.91 2.67-.09-.03"></path>
    <path fill="#949798" d="m58.5 36.71-4.91-2.67c.01 0 .01.01.02.01l4.91 2.67c-.01 0-.01 0-.02-.01"></path>
  </g>
  <path fill="#307b9a" d="m55.02 41.81-4.91-2.67 3.16-.45 4.92 2.67z"></path>
  <defs>
    <path id="w" d="m54.71 41.75-4.91-2.67c.09.05.2.07.32.05l4.91 2.67c-.12.02-.23 0-.32-.05z"></path>
  </defs>
  <clipPath id="x">
    <use xlink:href="#w" overflow="visible"></use>
  </clipPath>
  <g clip-path="url(#x)">
    <path fill="#2b6b87" d="m54.71 41.75-4.91-2.67c.01 0 .01.01.02.01l4.91 2.67c-.01 0-.02 0-.02-.01"></path>
    <path fill="#2c6f8b" d="m54.73 41.76-4.91-2.67c.03.01.06.03.09.03l4.91 2.67c-.03 0-.06-.01-.09-.03"></path>
    <path fill="#2f7390" d="m54.82 41.8-4.91-2.67c.06.02.13.02.2.01l4.91 2.67c-.07.01-.14 0-.2-.01"></path>
  </g>
  <defs>
    <path id="y" d="m54.71 41.75-4.91-2.67a.556.556 0 0 1-.28-.5l4.91 2.67c0 .23.11.41.28.5z"></path>
  </defs>
  <clipPath id="z">
    <use xlink:href="#y" overflow="visible"></use>
  </clipPath>
  <g clip-path="url(#z)">
    <path fill="#7d7f80" d="m54.71 41.75-4.91-2.67a.556.556 0 0 1-.28-.5l4.91 2.67c0 .23.11.41.28.5"></path>
  </g>
  <path fill="#23596f" d="m51.86 49.06-4.91-2.67v-3.41l4.92 2.67z"></path>
  <defs>
    <path id="A" d="m58.2 33.91-4.91-2.67c.34-.05.6-.37.61-.73l4.91 2.67c-.01.35-.27.68-.61.73z"></path>
  </defs>
  <clipPath id="B">
    <use xlink:href="#A" overflow="visible"></use>
  </clipPath>
  <g clip-path="url(#B)">
    <path fill="#2f7390" d="m58.2 33.91-4.91-2.67c.06-.01.12-.03.18-.05l4.91 2.67c-.06.02-.12.04-.18.05"></path>
    <path fill="#2c6f8b" d="m58.38 33.85-4.91-2.67c.03-.02.07-.04.1-.06l4.91 2.67c-.03.03-.07.05-.1.06"></path>
    <path fill="#2b6b87" d="m58.48 33.8-4.91-2.67c.03-.02.05-.04.07-.06l4.91 2.67c-.02.02-.05.04-.07.06"></path>
    <path fill="#296883" d="m58.55 33.74-4.91-2.67.06-.06 4.91 2.67-.06.06"></path>
    <path fill="#28657e" d="M58.61 33.68 53.7 31a.18.18 0 0 0 .05-.07l4.91 2.67c-.01.03-.03.06-.05.08"></path>
    <path fill="#27617a" d="m58.67 33.61-4.91-2.67c.02-.03.03-.05.05-.08l4.91 2.67c-.02.03-.04.05-.05.08"></path>
    <path fill="#255e76" d="m58.71 33.53-4.91-2.67c.02-.03.03-.07.04-.1l4.91 2.67c0 .04-.02.07-.04.1"></path>
    <path fill="#245a71" d="m58.76 33.43-4.91-2.67c.03-.08.05-.16.05-.25l4.91 2.67c-.01.09-.02.17-.05.25"></path>
  </g>
  <defs>
    <path id="C" d="m46.68 42.47 4.91 2.67c.17.09.27.28.27.51l-4.91-2.67c0-.23-.1-.41-.27-.51z"></path>
  </defs>
  <clipPath id="D">
    <use xlink:href="#C" overflow="visible"></use>
  </clipPath>
  <g clip-path="url(#D)">
    <path fill="#245a71" d="m51.87 45.65-4.91-2.67c0-.23-.11-.41-.27-.51l4.91 2.67c.16.1.27.28.27.51"></path>
  </g>
  <defs>
    <path id="E" d="m46.68 42.47 4.91 2.67c-.09-.05-.2-.07-.32-.05l-4.91-2.67c.12-.02.23 0 .32.05z"></path>
  </defs>
  <clipPath id="F">
    <use xlink:href="#E" overflow="visible"></use>
  </clipPath>
  <g clip-path="url(#F)">
    <path fill="#9d9fa2" d="m51.27 45.09-4.91-2.67c.07-.01.14-.01.21.01l4.91 2.67c-.06-.01-.13-.02-.21-.01"></path>
    <path fill="#999b9d" d="m51.48 45.1-4.91-2.67.09.03 4.91 2.67c-.02-.01-.06-.02-.09-.03"></path>
    <path fill="#949798" d="m51.58 45.14-4.91-2.67c.01 0 .01.01.02.01l4.91 2.67c-.01-.01-.02-.01-.02-.01"></path>
  </g>
  <path fill="#307b9a" d="m48.1 50.23-4.91-2.67 3.16-.44 4.91 2.67z"></path>
  <path fill="#abadad" d="m55.03 37.11-4.91-2.67 3.16-.45 4.91 2.68z"></path>
  <defs>
    <path id="G" d="m47.79 50.18-4.91-2.67c.09.05.2.07.32.05l4.91 2.67c-.12.02-.23 0-.32-.05z"></path>
  </defs>
  <clipPath id="H">
    <use xlink:href="#G" overflow="visible"></use>
  </clipPath>
  <g clip-path="url(#H)">
    <path fill="#2b6b87" d="m47.79 50.18-4.91-2.67c.01 0 .01.01.02.01l4.91 2.67c-.01 0-.02-.01-.02-.01"></path>
    <path fill="#2c6f8b" d="m47.8 50.19-4.91-2.67c.03.01.06.03.09.03l4.91 2.67c-.02 0-.06-.02-.09-.03"></path>
    <path fill="#2f7390" d="m47.9 50.22-4.91-2.67c.06.02.13.02.2.01l4.91 2.67c-.07.01-.14.01-.2-.01"></path>
  </g>
  <path fill="#7b7d7e" d="m54.43 41.25-4.91-2.67v-3.42l4.92 2.68z"></path>
  <path fill="#23596f" d="m58.8 33.18-4.91-2.67.01-3.41 4.91 2.67z"></path>
  <defs>
    <path id="I" d="m54.44 37.84-4.91-2.67c0-.35.27-.68.6-.73l4.91 2.67c-.33.05-.6.37-.6.73z"></path>
  </defs>
  <clipPath id="J">
    <use xlink:href="#I" overflow="visible"></use>
  </clipPath>
  <g clip-path="url(#J)">
    <path fill="#7d7f80" d="m54.44 37.84-4.91-2.67c0-.09.02-.17.05-.25l4.91 2.67c-.04.08-.05.16-.05.25"></path>
    <path fill="#818484" d="m54.48 37.59-4.91-2.67c.01-.03.03-.07.05-.1l4.91 2.67c-.02.03-.04.06-.05.1"></path>
    <path fill="#868889" d="m54.53 37.49-4.91-2.67c.01-.03.03-.05.05-.08l4.91 2.67c-.02.02-.04.05-.05.08"></path>
    <path fill="#8c8e8e" d="m54.58 37.41-4.91-2.67c.02-.02.03-.05.05-.07l4.91 2.67c-.02.02-.04.04-.05.07"></path>
    <path fill="#8f9393" d="m54.63 37.34-4.91-2.67.06-.06 4.91 2.67-.06.06"></path>
    <path fill="#949798" d="m54.69 37.28-4.91-2.67c.02-.02.05-.04.07-.06l4.91 2.67c-.02.02-.05.04-.07.06"></path>
    <path fill="#999b9d" d="m54.76 37.22-4.91-2.67c.03-.02.06-.04.1-.06l4.91 2.67c-.03.02-.07.04-.1.06"></path>
    <path fill="#9d9fa2" d="m54.86 37.16-4.91-2.67c.05-.03.11-.04.17-.05l4.91 2.67c-.06.01-.11.03-.17.05"></path>
  </g>
  <defs>
    <path id="K" d="m47.79 50.18-4.91-2.67a.556.556 0 0 1-.28-.5l4.91 2.67c0 .22.11.41.28.5z"></path>
  </defs>
  <clipPath id="L">
    <use xlink:href="#K" overflow="visible"></use>
  </clipPath>
  <g clip-path="url(#L)">
    <path fill="#7d7f80" d="m47.79 50.18-4.91-2.67a.556.556 0 0 1-.28-.5l4.91 2.67c0 .22.11.41.28.5"></path>
  </g>
  <defs>
    <path id="M" d="m53.62 26.59 4.91 2.67c.17.09.28.28.28.5L53.9 27.1c0-.23-.11-.42-.28-.51z"></path>
  </defs>
  <clipPath id="N">
    <use xlink:href="#M" overflow="visible"></use>
  </clipPath>
  <g clip-path="url(#N)">
    <path fill="#245a71" d="M58.81 29.77 53.9 27.1c0-.23-.11-.41-.28-.5l4.91 2.67c.17.09.28.27.28.5"></path>
  </g>
  <defs>
    <path id="O" d="m51.28 42.33-4.91-2.67c.34-.05.6-.37.6-.73l4.91 2.67c-.01.36-.27.69-.6.73z"></path>
  </defs>
  <clipPath id="P">
    <use xlink:href="#O" overflow="visible"></use>
  </clipPath>
  <g clip-path="url(#P)">
    <path fill="#2f7390" d="m51.28 42.33-4.91-2.67c.06-.01.12-.03.18-.05l4.91 2.67c-.06.03-.12.05-.18.05"></path>
    <path fill="#2c6f8b" d="m51.46 42.28-4.91-2.67c.03-.02.07-.03.1-.06l4.91 2.67c-.04.03-.07.05-.1.06"></path>
    <path fill="#2b6b87" d="m51.55 42.23-4.91-2.67c.02-.02.05-.04.07-.06l4.91 2.67c-.02.02-.04.04-.07.06"></path>
    <path fill="#296883" d="m51.62 42.17-4.91-2.67.06-.06 4.91 2.67-.06.06"></path>
    <path fill="#28657e" d="m51.68 42.11-4.91-2.67a.18.18 0 0 0 .05-.07l4.91 2.67a.18.18 0 0 1-.05.07"></path>
    <path fill="#27617a" d="m51.73 42.04-4.91-2.67c.02-.02.03-.05.05-.08l4.91 2.67c-.01.03-.03.06-.05.08"></path>
    <path fill="#255e76" d="m51.78 41.96-4.91-2.67c.02-.03.03-.07.04-.1l4.91 2.67c0 .04-.02.07-.04.1"></path>
    <path fill="#245a71" d="m51.83 41.87-4.91-2.67c.03-.08.05-.17.05-.26l4.91 2.67c-.01.09-.02.17-.05.26"></path>
  </g>
  <defs>
    <path id="Q" d="m53.62 26.59 4.91 2.67a.593.593 0 0 0-.33-.06l-4.91-2.67c.12-.01.24.01.33.06z"></path>
  </defs>
  <clipPath id="R">
    <use xlink:href="#Q" overflow="visible"></use>
  </clipPath>
  <g clip-path="url(#R)">
    <path fill="#9d9fa2" d="m58.21 29.21-4.91-2.67a.48.48 0 0 1 .21.01l4.91 2.67c-.07-.01-.14-.02-.21-.01"></path>
    <path fill="#999b9d" d="m58.42 29.22-4.91-2.67c.03.01.07.02.1.04l4.91 2.67c-.03-.02-.07-.03-.1-.04"></path>
    <path fill="#949798" d="m58.52 29.26-4.91-2.67c.01 0 .01.01.02.01l4.91 2.67c-.01-.01-.02-.01-.02-.01"></path>
  </g>
  <path fill="#307b9a" d="m55.04 34.35-4.92-2.67 3.17-.44 4.91 2.67z"></path>
  <defs>
    <path id="S" d="m54.72 34.3-4.91-2.67c.09.05.2.07.32.05l4.91 2.67c-.12.02-.23 0-.32-.05z"></path>
  </defs>
  <clipPath id="T">
    <use xlink:href="#S" overflow="visible"></use>
  </clipPath>
  <g clip-path="url(#T)">
    <path fill="#2b6b87" d="m54.72 34.3-4.91-2.67c.01 0 .01.01.02.01l4.91 2.67c-.01-.01-.01-.01-.02-.01"></path>
    <path fill="#2c6f8b" d="m54.74 34.31-4.91-2.67c.03.01.06.03.09.03l4.91 2.67-.09-.03"></path>
    <path fill="#2f7390" d="m54.83 34.34-4.91-2.67c.06.02.13.02.21.01l4.91 2.67c-.07.01-.14.01-.21-.01"></path>
  </g>
  <path fill="#abadad" d="m48.11 45.54-4.91-2.68 3.16-.44 4.91 2.67z"></path>
  <defs>
    <path id="U" d="m54.72 34.3-4.91-2.67a.556.556 0 0 1-.28-.5l4.91 2.67c0 .22.11.41.28.5z"></path>
  </defs>
  <clipPath id="V">
    <use xlink:href="#U" overflow="visible"></use>
  </clipPath>
  <g clip-path="url(#V)">
    <path fill="#7d7f80" d="m54.72 34.3-4.91-2.67a.556.556 0 0 1-.28-.5l4.91 2.67c0 .22.11.41.28.5"></path>
  </g>
  <path fill="#7b7d7e" d="M47.51 49.68 42.59 47l.01-3.41 4.92 2.67z"></path>
  <path fill="#23596f" d="m51.87 41.61-4.91-2.68.01-3.41 4.91 2.68z"></path>
  <path fill="#d2d5d7" d="M51.27 45.09c.34-.05.6.21.59.56l-.01 3.41c0 .35-.26.68-.6.73l-3.16.44c-.33.05-.6-.21-.59-.56l.01-3.41c0-.35.27-.68.6-.73l3.16-.44z"></path>
  <defs>
    <path id="W" d="m47.52 46.26-4.91-2.67c0-.35.27-.68.6-.73l4.91 2.67c-.34.05-.6.38-.6.73z"></path>
  </defs>
  <clipPath id="X">
    <use xlink:href="#W" overflow="visible"></use>
  </clipPath>
  <g clip-path="url(#X)">
    <path fill="#7d7f80" d="m47.52 46.26-4.91-2.67c0-.09.02-.17.05-.25l4.91 2.67a.56.56 0 0 0-.05.25"></path>
    <path fill="#818484" d="m47.56 46.01-4.91-2.67c.01-.03.03-.07.05-.1l4.91 2.67c-.02.03-.04.07-.05.1"></path>
    <path fill="#868889" d="m47.61 45.91-4.91-2.67c.01-.03.03-.05.05-.08l4.91 2.67c-.02.03-.04.05-.05.08"></path>
    <path fill="#8c8e8e" d="m47.65 45.83-4.91-2.67c.02-.02.03-.05.05-.07l4.91 2.67a.18.18 0 0 1-.05.07"></path>
    <path fill="#8f9393" d="m47.71 45.76-4.91-2.67.06-.06 4.91 2.67-.06.06"></path>
    <path fill="#949798" d="m47.77 45.7-4.91-2.67c.02-.02.05-.04.07-.06l4.91 2.67c-.02.02-.05.04-.07.06"></path>
    <path fill="#999b9d" d="m47.84 45.65-4.91-2.67c.03-.02.06-.04.1-.06l4.91 2.67c-.03.02-.07.03-.1.06"></path>
    <path fill="#9d9fa2" d="m47.94 45.59-4.91-2.67c.05-.03.11-.04.17-.05l4.91 2.67a.48.48 0 0 0-.17.05"></path>
  </g>
  <defs>
    <path id="Y" d="m46.69 35.02 4.91 2.67c.17.09.27.28.27.51l-4.91-2.67c.01-.23-.1-.42-.27-.51z"></path>
  </defs>
  <clipPath id="Z">
    <use xlink:href="#Y" overflow="visible"></use>
  </clipPath>
  <g clip-path="url(#Z)">
    <path fill="#245a71" d="m51.88 38.2-4.91-2.67c0-.23-.11-.41-.27-.51l4.91 2.67c.16.09.27.28.27.51"></path>
  </g>
  <defs>
    <path id="aa" d="m46.69 35.02 4.91 2.67c-.09-.05-.2-.07-.32-.05l-4.91-2.67c.12-.02.23 0 .32.05z"></path>
  </defs>
  <clipPath id="ab">
    <use xlink:href="#aa" overflow="visible"></use>
  </clipPath>
  <g clip-path="url(#ab)">
    <path fill="#9d9fa2" d="m51.29 37.64-4.91-2.67c.07-.01.14-.01.21.01l4.91 2.67a.497.497 0 0 0-.21-.01"></path>
    <path fill="#999b9d" d="m51.5 37.65-4.91-2.67.09.03 4.91 2.67-.09-.03"></path>
    <path fill="#949798" d="m51.59 37.68-4.91-2.67c.01 0 .01.01.02.01l4.91 2.67c-.01 0-.01 0-.02-.01"></path>
  </g>
  <path fill="#307b9a" d="m48.12 42.78-4.92-2.67 3.16-.45 4.92 2.67z"></path>
  <path fill="#abadad" d="m55.05 29.66-4.92-2.68 3.16-.44 4.92 2.67z"></path>
  <defs>
    <path id="ac" d="m47.8 42.72-4.91-2.67c.09.05.2.07.32.05l4.91 2.67c-.12.03-.23 0-.32-.05z"></path>
  </defs>
  <clipPath id="ad">
    <use xlink:href="#ac" overflow="visible"></use>
  </clipPath>
  <g clip-path="url(#ad)">
    <path fill="#2b6b87" d="m47.8 42.72-4.91-2.67c.01 0 .01.01.02.01l4.91 2.67c-.01 0-.01 0-.02-.01"></path>
    <path fill="#2c6f8b" d="m47.82 42.73-4.91-2.67c.03.01.06.03.09.03l4.91 2.67c-.03 0-.06-.01-.09-.03"></path>
    <path fill="#2f7390" d="M47.91 42.77 43 40.1c.06.02.13.02.21.01l4.91 2.67c-.07.01-.14 0-.21-.01"></path>
  </g>
  <path fill="#7b7d7e" d="m54.44 33.79-4.91-2.67.01-3.41 4.91 2.67z"></path>
  <defs>
    <path id="ae" d="m54.45 30.38-4.91-2.67c0-.35.27-.68.6-.73l4.91 2.67c-.33.05-.6.38-.6.73z"></path>
  </defs>
  <clipPath id="af">
    <use xlink:href="#ae" overflow="visible"></use>
  </clipPath>
  <g clip-path="url(#af)">
    <path fill="#7d7f80" d="m54.45 30.38-4.91-2.67c0-.09.02-.17.05-.25l4.91 2.67c-.03.08-.05.17-.05.25"></path>
    <path fill="#818484" d="m54.5 30.13-4.91-2.67c.01-.03.03-.07.05-.1l4.91 2.67c-.03.03-.04.07-.05.1"></path>
    <path fill="#868889" d="m54.54 30.03-4.91-2.67c.01-.03.03-.05.05-.08l4.91 2.67c-.02.03-.03.05-.05.08"></path>
    <path fill="#8c8e8e" d="m54.59 29.95-4.91-2.67c.02-.02.03-.05.05-.07l4.91 2.67c-.02.02-.03.05-.05.07"></path>
    <path fill="#8f9393" d="m54.64 29.88-4.91-2.67.06-.06 4.91 2.67-.06.06"></path>
    <path fill="#949798" d="m54.71 29.82-4.91-2.67c.02-.02.05-.04.07-.06l4.91 2.67c-.03.02-.05.04-.07.06"></path>
    <path fill="#999b9d" d="m54.78 29.76-4.91-2.67c.03-.02.06-.04.1-.06l4.91 2.67a.88.88 0 0 0-.1.06"></path>
    <path fill="#9d9fa2" d="m54.87 29.71-4.91-2.67c.05-.03.11-.04.17-.05l4.91 2.67c-.05 0-.11.02-.17.05"></path>
  </g>
  <defs>
    <path id="ag" d="m47.8 42.72-4.91-2.67a.556.556 0 0 1-.28-.5l4.91 2.67c0 .23.11.41.28.5z"></path>
  </defs>
  <clipPath id="ah">
    <use xlink:href="#ag" overflow="visible"></use>
  </clipPath>
  <g clip-path="url(#ah)">
    <path fill="#7d7f80" d="m47.8 42.72-4.91-2.67a.556.556 0 0 1-.28-.5l4.91 2.67c0 .23.11.41.28.5"></path>
  </g>
  <defs>
    <path id="ai" d="m51.29 34.88-4.91-2.67c.34-.05.6-.37.6-.73l4.91 2.67c0 .36-.26.68-.6.73z"></path>
  </defs>
  <clipPath id="aj">
    <use xlink:href="#ai" overflow="visible"></use>
  </clipPath>
  <g clip-path="url(#aj)">
    <path fill="#2f7390" d="m51.29 34.88-4.91-2.67c.06-.01.12-.03.18-.05l4.91 2.67c-.06.02-.12.04-.18.05"></path>
    <path fill="#2c6f8b" d="m51.47 34.83-4.91-2.67c.03-.02.07-.03.1-.06l4.91 2.67c-.03.02-.07.04-.1.06"></path>
    <path fill="#2b6b87" d="m51.57 34.77-4.91-2.67c.02-.02.05-.04.07-.06l4.91 2.67c-.03.02-.05.04-.07.06"></path>
    <path fill="#296883" d="m51.64 34.71-4.91-2.67.06-.06 4.91 2.67a.17.17 0 0 1-.06.06"></path>
    <path fill="#28657e" d="m51.7 34.65-4.91-2.67a.18.18 0 0 0 .05-.07l4.91 2.67c-.02.03-.04.05-.05.07"></path>
    <path fill="#27617a" d="m51.75 34.59-4.91-2.67c.02-.02.03-.05.05-.08l4.91 2.67c-.02.03-.03.05-.05.08"></path>
    <path fill="#255e76" d="m51.8 34.51-4.91-2.67c.02-.03.03-.07.04-.1l4.91 2.67c-.01.03-.03.07-.04.1"></path>
    <path fill="#245a71" d="m51.84 34.41-4.91-2.67c.03-.08.05-.17.05-.26l4.91 2.67c0 .09-.02.18-.05.26"></path>
  </g>
  <path fill="#abadad" d="m48.13 38.08-4.92-2.67 3.16-.45 4.92 2.68z"></path>
  <path fill="#7b7d7e" d="m47.52 42.22-4.91-2.67.01-3.41 4.91 2.67z"></path>
  <path fill="#23596f" d="m51.89 34.15-4.92-2.67.01-3.41 4.91 2.67z"></path>
  <defs>
    <path id="ak" d="m47.53 38.81-4.91-2.67c0-.35.27-.68.6-.73l4.91 2.67c-.33.05-.6.37-.6.73z"></path>
  </defs>
  <clipPath id="al">
    <use xlink:href="#ak" overflow="visible"></use>
  </clipPath>
  <g clip-path="url(#al)">
    <path fill="#7d7f80" d="m47.53 38.81-4.91-2.67c0-.09.02-.17.05-.25l4.91 2.67c-.03.08-.05.16-.05.25"></path>
    <path fill="#818484" d="m47.57 38.56-4.91-2.67c.01-.03.03-.07.05-.1l4.91 2.67c-.02.03-.03.06-.05.1"></path>
    <path fill="#868889" d="m47.62 38.46-4.91-2.67c.01-.03.03-.05.05-.08l4.91 2.67c-.02.02-.04.05-.05.08"></path>
    <path fill="#8c8e8e" d="m47.67 38.38-4.91-2.67c.02-.02.03-.05.05-.07l4.91 2.67c-.02.02-.03.04-.05.07"></path>
    <path fill="#8f9393" d="m47.72 38.31-4.91-2.67.06-.06 4.91 2.67-.06.06"></path>
    <path fill="#949798" d="m47.78 38.25-4.91-2.67c.02-.02.05-.04.07-.06l4.91 2.67c-.02.02-.04.04-.07.06"></path>
    <path fill="#999b9d" d="m47.86 38.19-4.91-2.67c.03-.02.06-.04.1-.06l4.91 2.67c-.04.02-.07.04-.1.06"></path>
    <path fill="#9d9fa2" d="m47.95 38.13-4.91-2.67c.05-.03.11-.04.17-.05l4.91 2.67c-.05.01-.11.03-.17.05"></path>
  </g>
  <defs>
    <path id="am" d="m46.71 27.56 4.91 2.67c.17.09.27.28.27.51l-4.91-2.67c0-.23-.11-.42-.27-.51z"></path>
  </defs>
  <clipPath id="an">
    <use xlink:href="#am" overflow="visible"></use>
  </clipPath>
  <g clip-path="url(#an)">
    <path fill="#245a71" d="m51.89 30.74-4.91-2.67c0-.23-.11-.41-.27-.51l4.91 2.67c.17.1.27.28.27.51"></path>
  </g>
  <defs>
    <path id="ao" d="m46.71 27.56 4.91 2.67c-.09-.05-.2-.07-.32-.05l-4.91-2.67c.12-.02.23 0 .32.05z"></path>
  </defs>
  <clipPath id="ap">
    <use xlink:href="#ao" overflow="visible"></use>
  </clipPath>
  <g clip-path="url(#ap)">
    <path fill="#9d9fa2" d="m51.3 30.18-4.91-2.67c.07-.01.14-.01.21.01l4.91 2.67c-.07-.01-.14-.02-.21-.01"></path>
    <path fill="#999b9d" d="m51.51 30.19-4.91-2.67.09.03 4.91 2.67-.09-.03"></path>
    <path fill="#949798" d="m51.6 30.23-4.91-2.67c.01 0 .01.01.02.01l4.91 2.67c0-.01-.01-.01-.02-.01"></path>
  </g>
  <path fill="#307b9a" d="m48.13 35.32-4.91-2.67 3.16-.44 4.91 2.67z"></path>
  <defs>
    <path id="aq" d="M47.81 35.27 42.9 32.6c.09.05.2.07.32.05l4.91 2.67c-.12.02-.22 0-.32-.05z"></path>
  </defs>
  <clipPath id="ar">
    <use xlink:href="#aq" overflow="visible"></use>
  </clipPath>
  <g clip-path="url(#ar)">
    <path fill="#2b6b87" d="M47.81 35.27 42.9 32.6c.01 0 .01.01.02.01l4.91 2.67c0-.01-.01-.01-.02-.01"></path>
    <path fill="#2c6f8b" d="m47.83 35.28-4.91-2.67c.03.01.06.03.09.03l4.91 2.67-.09-.03"></path>
    <path fill="#2f7390" d="m47.93 35.31-4.91-2.67c.06.02.13.02.2.01l4.91 2.67c-.07.01-.14.01-.2-.01"></path>
  </g>
  <defs>
    <path id="as" d="M47.81 35.27 42.9 32.6a.556.556 0 0 1-.28-.5l4.91 2.67c.01.22.12.41.28.5z"></path>
  </defs>
  <clipPath id="at">
    <use xlink:href="#as" overflow="visible"></use>
  </clipPath>
  <g clip-path="url(#at)">
    <path fill="#7d7f80" d="M47.81 35.27 42.9 32.6a.556.556 0 0 1-.28-.5l4.91 2.67c.01.22.12.41.28.5"></path>
  </g>
  <path fill="#abadad" d="m48.14 30.63-4.91-2.68 3.16-.44 4.91 2.67z"></path>
  <path fill="#7b7d7e" d="m47.54 34.76-4.92-2.67.01-3.41 4.91 2.67z"></path>
  <path fill="#d2d5d7" d="M51.3 30.18c.34-.05.6.21.59.56l-.01 3.41c0 .35-.26.68-.6.73l-3.16.44c-.33.05-.6-.21-.59-.56l.01-3.41c0-.35.27-.68.6-.73l3.16-.44z"></path>
  <defs>
    <path id="au" d="m47.54 31.35-4.91-2.67c0-.35.27-.68.6-.73l4.91 2.67c-.33.05-.6.38-.6.73z"></path>
  </defs>
  <clipPath id="av">
    <use xlink:href="#au" overflow="visible"></use>
  </clipPath>
  <g clip-path="url(#av)">
    <path fill="#7d7f80" d="m47.54 31.35-4.91-2.67c0-.09.02-.17.05-.25l4.91 2.67c-.03.08-.05.17-.05.25"></path>
    <path fill="#818484" d="m47.59 31.1-4.91-2.67c.01-.03.03-.07.05-.1l4.9 2.67c-.01.03-.03.07-.04.1"></path>
    <path fill="#868889" d="m47.63 31-4.91-2.67c.01-.03.03-.05.05-.08l4.91 2.67c-.02.03-.03.05-.05.08"></path>
    <path fill="#8c8e8e" d="m47.68 30.92-4.91-2.67c.02-.02.03-.05.05-.07l4.91 2.67c-.01.02-.03.05-.05.07"></path>
    <path fill="#8f9393" d="m47.74 30.85-4.91-2.67.06-.06 4.91 2.67-.06.06"></path>
    <path fill="#949798" d="m47.8 30.79-4.91-2.67c.02-.02.05-.04.07-.06l4.91 2.67c-.03.02-.05.04-.07.06"></path>
    <path fill="#999b9d" d="m47.87 30.73-4.91-2.67c.03-.02.06-.04.1-.06l4.91 2.67c-.04.02-.07.04-.1.06"></path>
    <path fill="#9d9fa2" d="m47.97 30.68-4.91-2.67c.05-.03.11-.04.17-.05l4.91 2.67c-.06 0-.12.02-.17.05"></path>
  </g>
  <path fill="#2e7694" d="m44.38 28.71-4.91-2.67 17.62-12.42L62 16.3z"></path>
  <path fill="#364045" d="m44.38 28.71-4.91-2.67v-1.02l4.91 2.67z"></path>
  <path fill="#3896be" d="M44.38 28.71 62 16.3l-.06 34.67-17.61 2.47.05-24.73zm14.41 11.93.01-3.41c0-.35-.27-.61-.6-.56l-3.16.44c-.33.05-.6.37-.6.73l-.01 3.41c0 .35.27.61.59.56l3.16-.44c.34-.05.61-.38.61-.73m-.01 7.45.01-3.41c0-.35-.27-.61-.6-.56l-3.16.44c-.33.05-.6.37-.6.73l-.01 3.41c0 .35.27.61.59.56l3.16-.44c.34-.05.61-.37.61-.73m.02-14.91.01-3.41c0-.35-.27-.61-.6-.56l-3.16.44c-.33.05-.6.37-.6.73l-.01 3.41c0 .35.27.61.59.56l3.16-.44c.35-.05.61-.38.61-.73m-6.93 8.43.01-3.41c0-.35-.26-.61-.59-.56l-3.16.44c-.33.05-.6.37-.6.73l-.01 3.41c0 .35.27.61.59.56l3.16-.44c.34-.05.6-.38.6-.73m-.01 7.45.01-3.41c0-.35-.26-.61-.59-.56l-3.16.44c-.33.05-.6.37-.6.73l-.01 3.41c0 .35.27.61.59.56l3.16-.44c.34-.05.6-.37.6-.73m.03-14.91.01-3.41c0-.35-.26-.61-.59-.56l-3.16.44c-.33.05-.6.37-.6.73l-.01 3.41c0 .35.27.61.59.56l3.16-.44c.34-.05.6-.37.6-.73"></path>
  <path fill="#d2d5d7" d="M58.18 44.12c.34-.05.6.2.6.56l-.01 3.41c0 .35-.27.68-.61.73l-3.16.44c-.33.05-.6-.21-.59-.56l.01-3.41c0-.35.27-.68.6-.73l3.16-.44zm.01-7.45c.34-.05.6.2.6.56l-.01 3.41c0 .35-.27.68-.61.73l-3.16.44c-.33.05-.6-.21-.59-.56l.01-3.41c0-.35.27-.68.6-.73l3.16-.44zm.02-7.46c.34-.05.6.2.6.56l-.01 3.41c0 .35-.27.68-.61.73l-3.16.44c-.33.05-.6-.21-.59-.56l.01-3.41c0-.35.27-.68.6-.73l3.16-.44z"></path>
  <defs>
    <path id="aw" d="m58.49 10.25 4.91 2.67c-.2-.11-.44-.15-.68-.12l-4.91-2.67c.24-.03.47.01.68.12z"></path>
  </defs>
  <clipPath id="ax">
    <use xlink:href="#aw" overflow="visible"></use>
  </clipPath>
  <g clip-path="url(#ax)">
    <path fill="#46545a" d="m62.72 12.81-4.91-2.67c.15-.02.3-.01.44.02l4.91 2.67c-.14-.03-.29-.04-.44-.02"></path>
    <path fill="#445157" d="m63.16 12.83-4.91-2.67c.07.02.14.04.2.07l4.91 2.67c-.06-.02-.13-.05-.2-.07"></path>
    <path fill="#404f55" d="m63.36 12.91-4.91-2.67c.01.01.03.01.04.02l4.91 2.67c-.01-.01-.02-.02-.04-.02"></path>
  </g>
  <defs>
    <path id="ay" d="m62.08 13.09-4.91-2.67c.2-.16.42-.25.64-.28l4.91 2.67c-.22.03-.44.12-.64.28z"></path>
  </defs>
  <clipPath id="az">
    <use xlink:href="#ay" overflow="visible"></use>
  </clipPath>
  <g clip-path="url(#az)">
    <path fill="#404f55" d="m62.08 13.09-4.91-2.67c.02-.02.05-.03.07-.05l4.91 2.67c-.02.01-.05.03-.07.05"></path>
    <path fill="#445157" d="m62.15 13.04-4.91-2.67c.07-.05.14-.09.2-.12l4.91 2.67c-.07.03-.13.07-.2.12"></path>
    <path fill="#46545a" d="m62.35 12.92-4.91-2.67c.12-.06.24-.09.37-.11l4.91 2.67c-.12.02-.25.05-.37.11"></path>
  </g>
  <path fill="#d2d5d7" d="M51.29 37.64c.34-.05.6.21.59.56l-.01 3.41c0 .35-.26.68-.6.73l-3.16.44c-.33.05-.6-.21-.59-.56l.01-3.41c0-.35.27-.68.6-.73l3.16-.44z"></path>
  <path fill="#4a5960" d="m38.57 54.25-4.92-2.67 5.77-.81 4.91 2.67z"></path>
  <path fill="#30697b" d="m38.57 54.25-4.92-2.67.01-6.7 4.92 2.67z"></path>
  <defs>
    <path id="aA" d="M33.66 44.88c0-1.79-.86-3.23-2.16-3.94l4.91 2.67c1.3.71 2.16 2.15 2.16 3.94-1.47-.8-3.43-1.87-4.91-2.67z"></path>
  </defs>
  <clipPath id="aB">
    <use xlink:href="#aA" overflow="visible"></use>
  </clipPath>
  <g clip-path="url(#aB)">
    <path fill="#316b7d" d="m38.58 47.55-4.91-2.67c0-1.79-.86-3.23-2.16-3.94l4.91 2.67c1.3.71 2.16 2.15 2.16 3.94"></path>
  </g>
  <path fill="#23596f" d="m44.33 53.44-4.91-2.67.05-24.73 4.91 2.67z"></path>
  <path fill="#4a5960" d="m29.25 55.56-4.91-2.67 9.31-1.31 4.92 2.67z"></path>
  <path fill="#5c6e76" d="M62.72 12.81c.44-.06.87.13 1.11.55.35.62.14 1.51-.48 1.98L44.38 28.71v-1.02l.02-2.05 17.68-12.55c.2-.16.42-.25.64-.28z"></path>
  <path fill="#47565d" d="m44.4 25.64-4.91-2.68 17.68-12.54 4.91 2.67z"></path>
  <path fill="#364045" d="m44.38 27.69-4.91-2.67.02-2.06 4.91 2.68z"></path>
  <defs>
    <path id="aC" d="m31.51 40.94 4.91 2.67c-.72-.39-1.58-.56-2.49-.43l-4.91-2.67c.91-.13 1.76.03 2.49.43z"></path>
  </defs>
  <clipPath id="aD">
    <use xlink:href="#aC" overflow="visible"></use>
  </clipPath>
  <g clip-path="url(#aD)">
    <path fill="#2e3d46" d="m33.92 43.18-4.91-2.67a4.1 4.1 0 0 1 1.61.08l4.91 2.67c-.49-.13-1.04-.16-1.61-.08"></path>
    <path fill="#2d3b44" d="m35.54 43.26-4.91-2.67c.26.07.5.16.74.27l4.91 2.67c-.24-.11-.48-.2-.74-.27"></path>
    <path fill="#2b3942" d="m36.28 43.54-4.91-2.67c.05.02.1.05.14.07l4.91 2.67c-.05-.03-.1-.05-.14-.07"></path>
  </g>
  <path fill="#4a5960" d="m26.18 55.99-4.91-2.67 3.07-.43 4.91 2.67z"></path>
  <path fill="#242e36" d="m29.25 55.56-4.91-2.67.01-6.71 4.91 2.68z"></path>
  <defs>
    <path id="aE" d="M32.67 32.89c1.64.89 3.28 1.78 4.91 2.67 0 2.17-1.63 4.16-3.65 4.44l-4.91-2.67c2.02-.28 3.64-2.26 3.65-4.44z"></path>
  </defs>
  <clipPath id="aF">
    <use xlink:href="#aE" overflow="visible"></use>
  </clipPath>
  <g clip-path="url(#aF)">
    <path fill="#3c869e" d="m33.93 40.01-4.91-2.67c.37-.05.73-.16 1.07-.32L35 39.69c-.34.16-.7.27-1.07.32"></path>
    <path fill="#3b8399" d="m35 39.69-4.91-2.67c.21-.1.4-.21.59-.34l4.91 2.67c-.19.13-.38.24-.59.34"></path>
    <path fill="#397f95" d="m35.59 39.35-4.91-2.67c.15-.11.3-.22.44-.35L36.03 39c-.14.13-.29.24-.44.35"></path>
    <path fill="#387b90" d="m36.03 39-4.91-2.67c.13-.12.25-.24.37-.37l4.91 2.67c-.12.13-.24.25-.37.37"></path>
    <path fill="#36778c" d="m36.4 38.63-4.91-2.67c.12-.13.23-.27.33-.41l4.91 2.67c-.1.14-.21.28-.33.41"></path>
    <path fill="#357387" d="m36.73 38.21-4.91-2.67c.11-.15.21-.31.3-.48l4.91 2.67c-.09.17-.19.33-.3.48"></path>
    <path fill="#336f82" d="m37.02 37.73-4.91-2.67c.11-.2.2-.4.28-.61l4.91 2.67c-.08.21-.17.42-.28.61"></path>
    <path fill="#316b7d" d="m37.3 37.12-4.91-2.67c.18-.49.28-1.02.28-1.55 0-1.4-.67-2.53-1.69-3.09l4.91 2.67c1.02.55 1.69 1.69 1.69 3.09 0 .53-.1 1.06-.28 1.55"></path>
  </g>
  <path fill="#364045" d="m44.4 18.99-4.92-2.67v-.22l4.92 2.67z"></path>
  <defs>
    <path id="aG" d="m29.26 48.86-4.91-2.67c.01-2.78 2.1-5.32 4.66-5.68l4.91 2.67c-2.56.36-4.65 2.9-4.66 5.68z"></path>
  </defs>
  <clipPath id="aH">
    <use xlink:href="#aG" overflow="visible"></use>
  </clipPath>
  <g clip-path="url(#aH)">
    <path fill="#243038" d="m29.26 48.86-4.91-2.67c0-.68.13-1.35.36-1.98l4.91 2.67c-.23.63-.36 1.3-.36 1.98"></path>
    <path fill="#26313a" d="m29.62 46.88-4.91-2.67c.1-.27.22-.53.35-.78l4.91 2.67c-.13.25-.25.51-.35.78"></path>
    <path fill="#26333c" d="m29.97 46.1-4.91-2.67c.11-.21.24-.42.38-.62l4.91 2.67c-.14.2-.26.41-.38.62"></path>
    <path fill="#27363d" d="m30.35 45.48-4.91-2.67c.13-.19.27-.36.42-.53l4.91 2.67c-.15.17-.29.35-.42.53"></path>
    <path fill="#2a3840" d="m30.77 44.95-4.91-2.67c.15-.17.31-.33.48-.48l4.91 2.67c-.17.15-.33.31-.48.48"></path>
    <path fill="#2b3942" d="m31.25 44.47-4.91-2.67c.18-.16.37-.31.56-.45l4.91 2.67c-.2.14-.38.29-.56.45"></path>
    <path fill="#2d3b44" d="m31.81 44.03-4.91-2.67c.24-.17.49-.31.76-.44l4.91 2.67c-.27.12-.52.27-.76.44"></path>
    <path fill="#2e3d46" d="m32.57 43.59-4.91-2.67c.43-.2.89-.34 1.36-.41l4.91 2.67c-.48.07-.93.21-1.36.41"></path>
  </g>
  <defs>
    <path id="aI" d="M27.07 37c.56.31 1.23.44 1.95.33L33.93 40c-.72.1-1.38-.03-1.95-.33-1.47-.79-3.43-1.86-4.91-2.67z"></path>
  </defs>
  <clipPath id="aJ">
    <use xlink:href="#aI" overflow="visible"></use>
  </clipPath>
  <g clip-path="url(#aJ)">
    <path fill="#397f95" d="M31.98 39.68 27.07 37c.04.02.07.04.11.06l4.91 2.67a.974.974 0 0 1-.11-.05"></path>
    <path fill="#3b8399" d="m32.1 39.73-4.91-2.67c.18.09.38.16.58.21l4.91 2.67c-.21-.04-.4-.12-.58-.21"></path>
    <path fill="#3c869e" d="m32.67 39.95-4.91-2.67c.39.1.82.13 1.26.06l4.91 2.67c-.44.06-.87.04-1.26-.06"></path>
  </g>
  <defs>
    <path id="aK" d="M32.67 32.89c0-1.4-.67-2.53-1.69-3.09l4.91 2.67c1.02.55 1.69 1.69 1.69 3.09-.39-.21-.79-.43-1.18-.64-.14-.08-.33-.18-.47-.26-.14-.08-.34-.18-.48-.26-.93-.5-1.86-1-2.78-1.51z"></path>
  </defs>
  <clipPath id="aL">
    <use xlink:href="#aK" overflow="visible"></use>
  </clipPath>
  <g clip-path="url(#aL)">
    <path fill="#316b7d" d="m37.3 37.12-4.91-2.67c.18-.49.28-1.02.28-1.55 0-1.4-.67-2.53-1.69-3.09l4.91 2.67c1.02.55 1.69 1.69 1.69 3.09 0 .53-.1 1.06-.28 1.55"></path>
  </g>
  <defs>
    <path id="aM" d="m30.98 29.81 4.91 2.67c-.56-.31-1.23-.43-1.95-.33l-4.91-2.67c.72-.11 1.39.02 1.95.33z"></path>
  </defs>
  <clipPath id="aN">
    <use xlink:href="#aM" overflow="visible"></use>
  </clipPath>
  <g clip-path="url(#aN)">
    <path fill="#2e3d46" d="m33.95 32.15-4.91-2.67c.44-.06.87-.04 1.26.06l4.91 2.67c-.39-.1-.82-.13-1.26-.06"></path>
    <path fill="#2d3b44" d="m35.21 32.21-4.91-2.67c.2.05.39.12.57.21l4.91 2.67c-.18-.09-.37-.16-.57-.21"></path>
    <path fill="#2b3942" d="m35.78 32.42-4.91-2.67c.04.02.07.04.11.06l4.91 2.67a1.09 1.09 0 0 0-.11-.06"></path>
  </g>
  <path fill="#3c505d" d="M33.95 32.15c2.02-.28 3.64 1.25 3.64 3.42s-1.63 4.16-3.65 4.44c-2.01.28-3.64-1.25-3.64-3.42s1.63-4.16 3.65-4.44z"></path>
  <defs>
    <path id="aO" d="M31.98 39.68 27.07 37c-1.02-.55-1.69-1.69-1.69-3.09 0-2.17 1.64-4.16 3.65-4.44l4.91 2.67c-2.01.28-3.65 2.27-3.65 4.44 0 1.41.68 2.54 1.69 3.1z"></path>
  </defs>
  <clipPath id="aP">
    <use xlink:href="#aO" overflow="visible"></use>
  </clipPath>
  <g clip-path="url(#aP)">
    <path fill="#243038" d="M31.98 39.68 27.07 37c-1.02-.55-1.69-1.69-1.69-3.09 0-.53.1-1.06.28-1.55l4.91 2.67a4.48 4.48 0 0 0-.28 1.55c0 1.41.68 2.54 1.69 3.1"></path>
    <path fill="#26313a" d="m30.57 35.04-4.91-2.67c.08-.21.17-.42.28-.61l4.91 2.67c-.1.2-.2.4-.28.61"></path>
    <path fill="#26333c" d="m30.85 34.43-4.91-2.67c.09-.17.19-.33.3-.48l4.91 2.67c-.11.15-.21.31-.3.48"></path>
    <path fill="#27363d" d="m31.15 33.95-4.91-2.67c.1-.15.21-.28.33-.42l4.91 2.67c-.12.13-.23.27-.33.42"></path>
    <path fill="#2a3840" d="m31.48 33.53-4.91-2.67c.12-.13.24-.26.37-.38l4.91 2.67c-.13.12-.26.25-.37.38"></path>
    <path fill="#2b3942" d="m31.85 33.16-4.91-2.67c.14-.13.29-.24.44-.35l4.91 2.67c-.15.1-.3.22-.44.35"></path>
    <path fill="#2d3b44" d="m32.29 32.81-4.91-2.67c.19-.13.39-.24.59-.34l4.91 2.67c-.2.09-.4.21-.59.34"></path>
    <path fill="#2e3d46" d="m32.88 32.47-4.91-2.67c.34-.16.69-.27 1.06-.32l4.91 2.67a3.7 3.7 0 0 0-1.06.32"></path>
  </g>
  <path fill="#3d89a2" d="m23.8 34.33-4.92-2.67 20.6-15.56 4.92 2.67z"></path>
  <path fill="#354045" d="m23.8 34.33-4.92-2.67-.25-2.31 4.91 2.67z"></path>
  <path fill="#4eb1d1" d="m23.8 34.33 20.6-15.57v.22l-.02 8.7v1.02l-.05 24.73-5.77.81.01-6.7c.01-2.78-2.08-4.73-4.65-4.37-2.56.36-4.66 2.9-4.66 5.68l-.01 6.7-3.07.43-2.38-21.65zm10.13 5.68c2.02-.28 3.65-2.27 3.65-4.44 0-2.17-1.62-3.7-3.64-3.42-2.01.28-3.65 2.27-3.65 4.44 0 2.17 1.63 3.7 3.64 3.42"></path>
  <path fill="#3c505d" d="M33.92 43.18c2.57-.36 4.66 1.59 4.65 4.37l-.01 6.7-9.32 1.31.01-6.7c.02-2.78 2.11-5.32 4.67-5.68z"></path>
  <defs>
    <path id="aQ" d="m40.88 12.91 4.91 2.67a1.17 1.17 0 0 0-.69-.12l-4.91-2.67c.25-.04.49.01.69.12z"></path>
  </defs>
  <clipPath id="aR">
    <use xlink:href="#aQ" overflow="visible"></use>
  </clipPath>
  <g clip-path="url(#aR)">
    <path fill="#46545a" d="m45.11 15.46-4.91-2.67c.15-.02.3-.01.45.02l4.91 2.67c-.15-.03-.3-.04-.45-.02"></path>
    <path fill="#445157" d="m45.55 15.48-4.91-2.67c.07.02.14.04.2.08l4.91 2.67c-.06-.03-.13-.06-.2-.08"></path>
    <path fill="#404f55" d="m45.76 15.56-4.91-2.67c.01.01.03.01.04.02l4.91 2.67c-.02-.01-.03-.01-.04-.02"></path>
  </g>
  <defs>
    <path id="aS" d="m44.46 15.74-4.91-2.67c.2-.16.42-.25.64-.28l4.91 2.67c-.21.03-.43.12-.64.28z"></path>
  </defs>
  <clipPath id="aT">
    <use xlink:href="#aS" overflow="visible"></use>
  </clipPath>
  <g clip-path="url(#aT)">
    <path fill="#404f55" d="m44.46 15.74-4.91-2.67c.02-.02.05-.03.07-.05l4.91 2.67c-.02.02-.04.03-.07.05"></path>
    <path fill="#445157" d="m44.53 15.69-4.91-2.67c.07-.05.14-.09.2-.12l4.91 2.67c-.06.04-.13.07-.2.12"></path>
    <path fill="#46545a" d="m44.74 15.57-4.91-2.67c.12-.06.25-.09.37-.11l4.91 2.67c-.13.02-.25.06-.37.11"></path>
  </g>
  <path fill="#4a5960" d="m20.3 56.82-4.91-2.68 5.88-.82 4.91 2.67z"></path>
  <path fill="#766239" d="m20.3 56.82-4.91-2.68.01-6.01 4.91 2.67z"></path>
  <defs>
    <path id="aU" d="M15.4 48.13c0-1.47-.71-2.66-1.78-3.24l4.91 2.67c1.07.58 1.78 1.77 1.78 3.24-1.47-.8-3.43-1.87-4.91-2.67z"></path>
  </defs>
  <clipPath id="aV">
    <use xlink:href="#aU" overflow="visible"></use>
  </clipPath>
  <g clip-path="url(#aV)">
    <path fill="#78653a" d="m20.31 50.8-4.91-2.67c0-1.47-.71-2.66-1.78-3.24l4.91 2.67c1.08.59 1.79 1.78 1.78 3.24"></path>
  </g>
  <path fill="#4a5960" d="m12.65 57.89-4.91-2.67 7.65-1.08 4.91 2.68z"></path>
  <path fill="#306779" d="m26.18 55.99-4.91-2.67-2.39-21.66 4.92 2.67z"></path>
  <defs>
    <path id="aW" d="m13.63 44.89 4.91 2.67c-.59-.32-1.29-.46-2.04-.35l-4.91-2.67c.75-.11 1.45.03 2.04.35z"></path>
  </defs>
  <clipPath id="aX">
    <use xlink:href="#aW" overflow="visible"></use>
  </clipPath>
  <g clip-path="url(#aX)">
    <path fill="#2e3d46" d="m16.5 47.21-4.91-2.67c.46-.07.91-.04 1.32.07l4.91 2.67c-.41-.1-.86-.13-1.32-.07"></path>
    <path fill="#2d3b44" d="m17.82 47.28-4.91-2.67c.21.05.41.13.6.22l4.91 2.67a3.89 3.89 0 0 0-.6-.22"></path>
    <path fill="#2b3942" d="m18.42 47.5-4.91-2.67.12.06 4.91 2.67-.12-.06"></path>
  </g>
  <path fill="#242e36" d="m12.65 57.89-4.91-2.67.01-6.01 4.91 2.67z"></path>
  <path fill="#364045" d="m23.54 32.02-4.91-2.67v-.38l4.91 2.67z"></path>
  <path fill="#47565c" d="m23.54 31.64-4.91-2.67 20.92-15.9 4.91 2.67z"></path>
  <path fill="#5c6e76" d="M45.11 15.46c.45-.06.88.13 1.12.55.35.62.14 1.51-.48 1.98l-1.35 1v-.22L23.8 34.33l-.26-2.31v-.38l20.92-15.9c.21-.16.43-.25.65-.28z"></path>
  <defs>
    <path id="aY" d="m12.66 51.88-4.91-2.67c0-2.27 1.72-4.37 3.83-4.67l4.91 2.67c-2.11.3-3.82 2.4-3.83 4.67z"></path>
  </defs>
  <clipPath id="aZ">
    <use xlink:href="#aY" overflow="visible"></use>
  </clipPath>
  <g clip-path="url(#aZ)">
    <path fill="#243038" d="m12.66 51.88-4.91-2.67c0-.56.11-1.11.29-1.62l4.91 2.67c-.18.51-.28 1.06-.29 1.62"></path>
    <path fill="#26313a" d="m12.96 50.26-4.91-2.67c.08-.22.18-.44.29-.64l4.91 2.67c-.11.2-.21.41-.29.64"></path>
    <path fill="#26333c" d="m13.25 49.61-4.91-2.67c.09-.18.2-.34.31-.51l4.91 2.67c-.11.17-.22.34-.31.51"></path>
    <path fill="#27363d" d="m13.56 49.11-4.91-2.67c.11-.15.22-.3.34-.44l4.91 2.67c-.12.14-.23.28-.34.44"></path>
    <path fill="#2a3840" d="M13.91 48.67 9 46c.12-.14.25-.27.39-.39l4.91 2.67c-.14.12-.27.25-.39.39"></path>
    <path fill="#2b3942" d="M14.3 48.27 9.38 45.6c.15-.13.3-.25.46-.37l4.91 2.67c-.15.12-.31.24-.45.37"></path>
    <path fill="#2d3b44" d="m14.76 47.91-4.91-2.67c.2-.14.41-.26.62-.36l4.91 2.67c-.22.1-.42.22-.62.36"></path>
    <path fill="#2e3d46" d="m15.38 47.55-4.91-2.67c.35-.17.73-.28 1.12-.34l4.91 2.67c-.39.06-.77.17-1.12.34"></path>
  </g>
  <path fill="#3c505d" d="M16.5 47.21c2.12-.3 3.82 1.32 3.82 3.59l-.01 6.01-7.65 1.08.01-6.01c0-2.27 1.71-4.37 3.83-4.67z"></path>
  <path fill="#4a5960" d="m6.78 58.72-4.91-2.68 5.87-.82 4.91 2.67zM6.42 58.77l-4.91-2.68.36-.05 4.91 2.68z"></path>
  <defs>
    <path id="ba" d="M5.61 61.86.7 59.19c-.42-.23-.7-.69-.7-1.26 0-.89.68-1.72 1.51-1.83l4.91 2.67c-.83.12-1.5.94-1.51 1.83 0 .57.28 1.04.7 1.26z"></path>
  </defs>
  <clipPath id="bb">
    <use xlink:href="#ba" overflow="visible"></use>
  </clipPath>
  <g clip-path="url(#bb)">
    <path fill="#374247" d="M5.61 61.86.7 59.19c-.42-.23-.7-.69-.7-1.26 0-.22.04-.44.12-.64l4.91 2.67c-.07.2-.12.42-.12.64 0 .57.28 1.04.7 1.26"></path>
    <path fill="#39454a" d="M5.03 59.96.12 57.29c.03-.09.07-.17.11-.25l4.91 2.67c-.04.08-.08.17-.11.25"></path>
    <path fill="#3b474d" d="M5.14 59.71.23 57.04c.04-.07.08-.14.12-.2l4.91 2.67c-.04.06-.08.13-.12.2"></path>
    <path fill="#3d4a4f" d="M5.27 59.51.36 56.84c.04-.06.09-.12.14-.17l4.91 2.67c-.06.05-.1.11-.14.17"></path>
    <path fill="#3f4c52" d="M5.4 59.34.49 56.67c.05-.05.1-.11.15-.16l4.91 2.67c-.05.05-.1.1-.15.16"></path>
    <path fill="#404f55" d="M5.56 59.18.65 56.51c.06-.05.12-.1.18-.14l4.91 2.67c-.07.04-.13.09-.18.14"></path>
    <path fill="#445157" d="M5.74 59.04.83 56.37c.08-.05.16-.1.24-.14l4.91 2.67c-.08.04-.17.09-.24.14"></path>
    <path fill="#46545a" d="m5.98 58.9-4.91-2.67c.14-.07.29-.11.44-.13l4.91 2.67c-.15.02-.3.06-.44.13"></path>
  </g>
  <path fill="#5c6e76" d="M62.43 50.89c.83-.12 1.5.52 1.5 1.41 0 .89-.68 1.71-1.51 1.82L6.41 62c-.83.12-1.5-.51-1.5-1.4 0-.89.68-1.72 1.51-1.83l.36-.05 5.87-.83 7.65-1.08 5.88-.83 3.07-.43 9.32-1.31 5.77-.81 17.61-2.47.48-.07z"></path>
  <path fill="#c9a860" d="m26.18 55.99-5.88.83.01-6.01c0-2.27-1.7-3.89-3.82-3.59-2.12.3-3.83 2.39-3.83 4.67l-.01 6.01-5.87.83 3.68-33.36 12.16-1.71.92 8.37.26 2.31 2.38 21.65z"></path>
  <path fill="#79653b" d="m6.78 58.72-4.91-2.68 3.68-33.36 4.91 2.68z"></path>
  <path fill="#a2884e" d="m10.46 25.36-4.91-2.68 12.15-1.71 4.92 2.68z"></path>
  <path fill="#2a393d" d="m10.46 25.36-4.91-2.68.19-1.78 4.91 2.68z"></path>
  <path fill="#3a4d52" d="M10.65 23.58 5.74 20.9l11.78-1.65 4.91 2.67z"></path>
  <path fill="#475f65" d="m22.43 21.92.19 1.73-12.16 1.71.19-1.78z"></path>
  <path fill="#79653b" d="M10.65 23.58 5.74 20.9l.29-2.62 4.91 2.68z"></path>
  <path fill="#a2884e" d="m10.94 20.96-4.91-2.68 11.2-1.57 4.91 2.67z"></path>
  <path fill="#2a3a3d" d="m10.94 20.96-4.91-2.68.2-1.78 4.92 2.68z"></path>
  <path fill="#c9a860" d="m22.14 19.38.29 2.54-11.78 1.66.29-2.62z"></path>
  <path fill="#3a4d52" d="M11.15 19.18 6.23 16.5l10.82-1.52 4.91 2.68z"></path>
  <path fill="#475f65" d="m21.96 17.66.18 1.72-11.2 1.58.21-1.78z"></path>
  <path fill="#79653b" d="M11.15 19.18 6.23 16.5l.29-2.62 4.92 2.67z"></path>
  <path fill="#a2884e" d="m11.44 16.55-4.92-2.67 10.24-1.44 4.92 2.67z"></path>
  <path fill="#2a393d" d="m11.44 16.55-4.92-2.67.19-1.77 4.92 2.67z"></path>
  <path fill="#c9a860" d="m21.68 15.11.28 2.55-10.81 1.52.29-2.63z"></path>
  <path fill="#3a4d52" d="m11.63 14.78-4.92-2.67 9.87-1.38 4.91 2.67z"></path>
  <path fill="#475f65" d="m21.49 13.4.19 1.71-10.24 1.44.19-1.77z"></path>
  <defs>
    <path id="bc" d="m14.9 2.18 4.91 2.67c-.3-.16-.65-.23-1.03-.18L13.87 2c.38-.05.73.02 1.03.18z"></path>
  </defs>
  <clipPath id="bd">
    <use xlink:href="#bc" overflow="visible"></use>
  </clipPath>
  <g clip-path="url(#bd)">
    <path fill="#36484c" d="M18.79 4.68 13.87 2c.23-.03.46-.02.67.03l4.91 2.67c-.21-.04-.43-.06-.66-.02"></path>
    <path fill="#34464a" d="m19.45 4.71-4.91-2.67c.11.03.21.07.31.11l4.91 2.67c-.1-.04-.2-.08-.31-.11"></path>
    <path fill="#334448" d="m19.76 4.82-4.91-2.67.06.03 4.91 2.67-.06-.03"></path>
  </g>
  <path fill="#3a4d52" d="M14.37 5.3 9.45 2.62 13.87 2l4.92 2.68z"></path>
  <path fill="#79653b" d="m11.63 14.78-4.92-2.67.62-5.64 4.91 2.68z"></path>
  <path fill="#a2884e" d="M12.24 9.15 7.33 6.47l8.64-1.21 4.92 2.67z"></path>
  <path fill="#2a393d" d="M12.25 9.14 7.34 6.47l.18-1.73 4.92 2.67z"></path>
  <path fill="#c9a860" d="m20.89 7.93.6 5.47-9.86 1.38.61-5.63z"></path>
  <defs>
    <path id="be" d="M12.44 7.41 7.52 4.74c.12-1.07.95-1.98 1.93-2.12l4.91 2.67c-.97.14-1.8 1.05-1.92 2.12z"></path>
  </defs>
  <clipPath id="bf">
    <use xlink:href="#be" overflow="visible"></use>
  </clipPath>
  <g clip-path="url(#bf)">
    <path fill="#2b393c" d="M12.44 7.41 7.52 4.74c.02-.2.07-.39.14-.57l4.91 2.67c-.06.19-.11.38-.13.57"></path>
    <path fill="#2c3b3f" d="M12.57 6.85 7.66 4.17c.04-.11.09-.22.15-.33l4.91 2.67c-.06.11-.11.22-.15.34"></path>
    <path fill="#2e3d41" d="M12.72 6.52 7.81 3.84c.05-.09.1-.18.16-.26l4.91 2.67c-.06.09-.11.18-.16.27"></path>
    <path fill="#2f4043" d="M12.88 6.26 7.96 3.58c.05-.08.11-.15.18-.22l4.91 2.67c-.06.08-.12.15-.17.23"></path>
    <path fill="#314245" d="M13.05 6.04 8.14 3.36c.06-.07.13-.14.2-.2l4.91 2.67c-.07.07-.13.13-.2.21"></path>
    <path fill="#334448" d="M13.25 5.83 8.34 3.16c.08-.07.15-.13.24-.19l4.91 2.67c-.08.06-.16.13-.24.19"></path>
    <path fill="#34464a" d="M13.49 5.65 8.58 2.97c.1-.07.2-.13.31-.18l4.91 2.67c-.11.06-.21.12-.31.19"></path>
    <path fill="#36484c" d="M13.8 5.47 8.89 2.79c.18-.08.37-.14.56-.17l4.91 2.67c-.19.03-.38.09-.56.18"></path>
  </g>
  <path fill="#475f65" d="M18.79 4.68c.98-.14 1.8.54 1.92 1.57l.18 1.68-8.63 1.21.18-1.73c.12-1.07.95-1.98 1.93-2.12l4.42-.61z"></path>
</svg>
