<?xml version="1.0" encoding="iso-8859-1"?>
<!-- Uploaded to: SVG Repo, www.svgrepo.com, Generator: SVG Repo Mixer Tools -->
<svg version="1.1" id="Layer_1" xmlns="http://www.w3.org/2000/svg" xmlns:xlink="http://www.w3.org/1999/xlink" 
	 viewBox="0 0 512 512" xml:space="preserve">
<rect x="34.205" y="41.687" style="fill:#F07B52;" width="444.66" height="453.211"/>
<rect x="34.205" y="41.687" style="fill:#E5563C;" width="34.205" height="453.211"/>
<rect x="8.551" y="16.033" style="fill:#CF442B;" width="495.967" height="76.96"/>
<rect x="8.551" y="16.033" style="fill:#B83C26;" width="34.205" height="76.96"/>
<g>
	<rect x="85.511" y="127.198" style="fill:#D7D8D9;" width="342.046" height="102.614"/>
	<rect x="85.511" y="127.198" style="fill:#D7D8D9;" width="25.653" height="102.614"/>
</g>
<path style="fill:#FDDD85;" d="M289.622,302.804c-5.816-7.442-16.565-8.76-24.006-2.944l-87.084,68.056l24.367,24.368l83.779-65.473
	C294.12,320.994,295.438,310.246,289.622,302.804z"/>
<path style="fill:#FDD042;" d="M289.491,302.637c-0.006,0.001-0.005,0.001-0.011,0.001c-1.086,2.695-2.859,5.152-5.312,7.07
	l-45.68,35.699c-3.535,2.762-4.334,7.787-1.83,11.51l3.961,5.89l46.06-35.996C294.176,320.95,295.457,310.085,289.491,302.637z"/>
<path style="fill:#FDDD85;" d="M376.251,392.284h-25.653c9.446,0,17.102-7.658,17.102-17.102s-7.656-17.102-17.102-17.102H136.818
	v136.818h213.779c9.446,0,17.102-7.658,17.102-17.102c0-9.445-7.656-17.102-17.102-17.102h8.551c9.446,0,17.102-7.658,17.102-17.102
	s-7.656-17.102-17.102-17.102h17.102c9.446,0,17.102-7.658,17.102-17.102S385.696,392.284,376.251,392.284z"/>
<g>
	<path style="fill:#FDD042;" d="M350.597,477.795h-68.409c-4.722,0-8.551,3.829-8.551,8.551v8.551h76.486
		c9,0,16.813-6.759,17.522-15.731c0.288-3.635-0.583-7.039-2.252-9.923C362.434,474.351,356.924,477.795,350.597,477.795z"/>
	<path style="fill:#FDD042;" d="M359.148,443.591h-76.96c-4.722,0-8.551,3.829-8.551,8.551v8.551h85.037
		c9,0,16.813-6.759,17.522-15.731c0.288-3.635-0.583-7.039-2.252-9.923C370.985,440.147,365.475,443.591,359.148,443.591z"/>
	<path style="fill:#FDD042;" d="M376.251,409.386h-94.063c-4.722,0-8.551,3.829-8.551,8.551v8.551h102.139
		c9,0,16.813-6.759,17.522-15.731c0.288-3.635-0.583-7.039-2.252-9.923C388.087,405.942,382.577,409.386,376.251,409.386z"/>
	<path style="fill:#FDD042;" d="M350.597,375.182h-68.409c-4.722,0-8.551,3.829-8.551,8.551v8.551h76.486
		c9,0,16.813-6.759,17.522-15.731c0.288-3.635-0.583-7.039-2.252-9.923C362.434,371.738,356.924,375.182,350.597,375.182z"/>
</g>
<rect x="8.551" y="332.426" style="fill:#74757B;" width="145.37" height="162.472"/>
<rect x="8.551" y="332.426" style="fill:#606268;" width="32.067" height="162.472"/>
<g>
	<circle style="fill:#EBEBEC;" cx="111.881" cy="452.377" r="16.151"/>
	<circle style="fill:#EBEBEC;" cx="51.07" cy="452.377" r="16.151"/>
</g>
<path d="M478.33,427.023c-4.427,0-8.017,3.588-8.017,8.017v52.376h-96.304c1.098-2.82,1.707-5.882,1.707-9.086
	c0-4.657-1.278-9.019-3.496-12.763c7.219-4.418,12.048-12.376,12.048-21.442c0-3.482-0.714-6.801-2-9.819
	c10.954-2.703,19.102-12.609,19.102-24.386c0-13.851-11.268-25.119-25.119-25.119h-2.241c1.098-2.82,1.707-5.882,1.707-9.086
	c0-13.851-11.268-25.119-25.119-25.119H269.26l22.355-17.471c10.912-8.529,12.852-24.345,4.325-35.259
	c-8.529-10.912-24.345-12.853-35.26-4.325l-73.005,57.054h-26.271V332.96c0-4.428-3.589-8.017-8.017-8.017H8.017
	c-4.427,0-8.017,3.588-8.017,8.017v162.472c0,4.428,3.589,8.017,8.017,8.017h145.37c1.688,0,3.252-0.524,4.543-1.414
	c1.291,0.89,2.855,1.414,4.543,1.414h119.716h68.409H478.33c4.427,0,8.017-3.588,8.017-8.017V435.04
	C486.347,430.611,482.757,427.023,478.33,427.023z M145.37,487.415H16.033V340.977H145.37V487.415z M282.188,487.415H162.472
	c-0.363,0-0.718,0.032-1.069,0.079V366.63h28.86c1.744,0,3.354-0.563,4.67-1.509c0.387-0.21,0.764-0.446,1.122-0.726l74.495-58.219
	c3.948-3.086,9.668-2.383,12.754,1.564c3.085,3.947,2.383,9.668-1.564,12.754l-40.011,31.269c-3.068,2.398-3.913,6.582-2.218,9.93
	c1.208,2.899,4.066,4.937,7.402,4.937h103.683c5.01,0,9.086,4.076,9.086,9.086s-4.076,9.086-9.086,9.086h-68.409
	c-4.427,0-8.017,3.588-8.017,8.017s3.589,8.017,8.017,8.017h68.409h25.653c5.01,0,9.086,4.076,9.086,9.086s-4.076,9.086-9.086,9.086
	h-17.102h-76.96c-4.427,0-8.017,3.588-8.017,8.017s3.589,8.017,8.017,8.017h76.96c5.01,0,9.086,4.076,9.086,9.086
	s-4.076,9.086-9.086,9.086h-8.551h-68.409c-4.427,0-8.017,3.588-8.017,8.017s3.589,8.017,8.017,8.017h68.409
	c5.01,0,9.086,4.076,9.086,9.086s-4.076,9.086-9.086,9.086L282.188,487.415L282.188,487.415z"/>
<path d="M503.983,8.551H9.086c-4.427,0-8.017,3.588-8.017,8.017v76.96c0,4.428,3.589,8.017,8.017,8.017h17.637v205.228
	c0,4.428,3.589,8.017,8.017,8.017s8.017-3.588,8.017-8.017V101.545h42.756c4.427,0,8.017-3.588,8.017-8.017
	c0-4.428-3.589-8.017-8.017-8.017H17.102V24.585h478.864v60.927H119.716c-4.427,0-8.017,3.588-8.017,8.017
	c0,4.428,3.589,8.017,8.017,8.017h350.597v299.29c0,4.428,3.589,8.017,8.017,8.017s8.017-3.588,8.017-8.017v-299.29h17.637
	c4.427,0,8.017-3.588,8.017-8.017v-76.96C512,12.139,508.411,8.551,503.983,8.551z"/>
<path d="M428.092,238.363c4.427,0,8.017-3.588,8.017-8.017V127.733c0-4.428-3.589-8.017-8.017-8.017H86.046
	c-4.427,0-8.017,3.588-8.017,8.017v102.614c0,4.428,3.589,8.017,8.017,8.017H428.092z M94.063,135.749h326.013v86.58H94.063V135.749
	z"/>
<path d="M137.353,153.386c-4.427,0-8.017,3.588-8.017,8.017v34.205c0,4.428,3.589,8.017,8.017,8.017
	c4.427,0,8.017-3.588,8.017-8.017v-34.205C145.37,156.974,141.78,153.386,137.353,153.386z"/>
<path d="M161.937,153.386c-4.427,0-8.017,3.588-8.017,8.017v34.205c0,4.428,3.589,8.017,8.017,8.017s8.017-3.588,8.017-8.017
	v-34.205C169.954,156.974,166.365,153.386,161.937,153.386z"/>
<path d="M222.864,153.386c-4.427,0-8.017,3.588-8.017,8.017v34.205c0,4.428,3.589,8.017,8.017,8.017s8.017-3.588,8.017-8.017
	v-34.205C230.881,156.974,227.292,153.386,222.864,153.386z"/>
<path d="M257.069,153.386c-4.427,0-8.017,3.588-8.017,8.017v34.205c0,4.428,3.589,8.017,8.017,8.017
	c4.427,0,8.017-3.588,8.017-8.017v-34.205C265.086,156.974,261.496,153.386,257.069,153.386z"/>
<path d="M291.273,153.386c-4.427,0-8.017,3.588-8.017,8.017v34.205c0,4.428,3.589,8.017,8.017,8.017
	c4.427,0,8.017-3.588,8.017-8.017v-34.205C299.29,156.974,295.701,153.386,291.273,153.386z"/>
<path d="M376.785,153.386c-4.427,0-8.017,3.588-8.017,8.017v34.205c0,4.428,3.589,8.017,8.017,8.017
	c4.427,0,8.017-3.588,8.017-8.017v-34.205C384.802,156.974,381.212,153.386,376.785,153.386z"/>
<path d="M350.063,153.386c-4.427,0-8.017,3.588-8.017,8.017v34.205c0,4.428,3.589,8.017,8.017,8.017
	c4.427,0,8.017-3.588,8.017-8.017v-34.205C358.079,156.974,354.49,153.386,350.063,153.386z"/>
<path d="M111.165,477.261c13.851,0,25.119-11.268,25.119-25.119s-11.268-25.119-25.119-25.119s-25.119,11.268-25.119,25.119
	S97.314,477.261,111.165,477.261z M111.165,443.056c5.01,0,9.086,4.076,9.086,9.086s-4.076,9.086-9.086,9.086
	c-5.01,0-9.086-4.076-9.086-9.086S106.155,443.056,111.165,443.056z"/>
<path d="M51.307,477.261c13.851,0,25.119-11.268,25.119-25.119s-11.268-25.119-25.119-25.119s-25.119,11.268-25.119,25.119
	S37.456,477.261,51.307,477.261z M51.307,443.056c5.01,0,9.086,4.076,9.086,9.086s-4.076,9.086-9.086,9.086
	s-9.086-4.076-9.086-9.086S46.297,443.056,51.307,443.056z"/>
</svg>