<?xml version="1.0" encoding="utf-8"?>
<!-- Uploaded to: SVG Repo, www.svgrepo.com, Generator: SVG Repo Mixer Tools -->
<svg width="800px" height="800px" viewBox="0 0 1024 1024" class="icon"  version="1.1" xmlns="http://www.w3.org/2000/svg"><path d="M879 652.3l0.1 40.1c-3 5.9-58.5 14.4-150.7 14.4s-147.7-8.5-150.6-14.2v-40.4c26.3 13.6 144.9 13.7 150.6 13.7s124.2 0 150.6-13.6z" fill="#95CEA3" /><path d="M863.5 703.2v149c0 5.9-46.4 17.2-135.1 17.2s-135.1-11.3-135.1-17.2v-149c41.3 8.8 130.3 8.9 135.1 8.9s93.8-0.1 135.1-8.9z" fill="#95CEA3" /><path d="M803.7 564c19.3 0 34.9 15.7 34.9 34.8 0 19.3-15.7 34.9-34.9 34.9h-71.6l23.5-35.7c17.1-23.4 28.1-34 48.1-34z" fill="#F59A9B" /><path d="M805.9 633.7c4.1 0.5 9 1 14.6 1.5-4.5 2.1-9.4 3.4-14.6 3.6v-5.1z" fill="#EF4666" /><path d="M750.2 352.8V440c0 13.7-11.1 24.8-24.8 24.8H480.5v-137h244.9c13.7 0.1 24.8 11.2 24.8 25z" fill="#FFF0C2" /><path d="M705 528c5.5-3.1 11.4-4.6 17.4-4.6 3 0 6 0.3 9 1.2 9 2.4 16.5 8.2 21.2 16.2 9.9 17.3 8.4 34.7-5.2 58.2l-20.8 30.6-35.3-52.3c-4.5-7.9-5.7-17.7-3-27.3 2.6-9.4 8.8-17.4 16.7-22zM698.6 597.9l23.7 35.8h-71.7c-4.6 0-9-0.9-13.1-2.7H637.2c-12.5-5.2-21.3-17.6-21.3-32.1 0-19.1 15.7-34.8 34.8-34.8 19.9-0.1 31 10.5 47.9 33.8z" fill="#F59A9B" /><path d="M713.7 519v4.3h-10v-0.5c3.2-1.8 6.6-3.1 10-3.8z" fill="#EF4666" /><path d="M683.3 548.6c-2.1 7.8-2.1 15.8 0.1 23.1-9.6-8.8-19.3-12.9-32.8-12.9-22 0-40 18-40 40 0 13.8 7.1 26.1 17.6 33.3-23.7 3.2-55.7 8.6-55.7 14.4v46.2c0 3.8 6 6.8 15.5 9.4v150.2c0 5.2 7.8 9.3 20.1 12.4H480.5V474.8h223.2v48c-0.5 0.1-0.8 0.3-1.3 0.6-9.1 5.3-16.1 14.5-19.1 25.2z" fill="#FFE085" /><path d="M626.1 864.7l103.3 10h-1c-34.4 0-90.6-2.3-120.3-10h18z" fill="#3D7749" /><path d="M643.3 252c0 36.3-29.6 65.9-65.9 65.9H441.8l44.7-67.5c32.2-44.4 53.1-64.3 90.9-64.3 36.3 0 65.9 29.6 65.9 65.9z" fill="#F59A9B" /><path d="M637.5 631.1v5.3c-0.2 0-0.3 0-0.6 0.1-3.1-1.2-6-2.7-8.7-4.4 3.1-0.5 6.1-0.8 8.9-1.2h0.1c0 0.1 0.1 0.2 0.3 0.2z" fill="#EF4666" /><path d="M637.5 631v0.1c-0.1 0-0.2-0.1-0.2-0.1h0.2z" fill="#231815" /><path d="M728.4 660.8c-92 0-147.3-8.5-150.6-13.9v-0.1c1.5-2.7 37.2-7.5 59-10.2 4.3 1.6 8.8 2.4 13.7 2.4H726.6v0.1l0.1-0.1H803.6c0.7 0 1.5 0 2.2-0.1v0.2c21.1 2.7 71 4.9 73 7.4-4.3 5.9-59.3 14.3-150.4 14.3z" fill="#95CEA3" /><path d="M755.7 598l-23.5 35.7h71.6c19.3 0 34.9-15.7 34.9-34.9 0-19.1-15.7-34.8-34.9-34.8-20.1 0-31.1 10.6-48.1 34z m-33.3-74.7c-6 0-11.9 1.5-17.4 4.6-7.9 4.6-14 12.6-16.6 22-2.7 9.5-1.5 19.4 3 27.3l35.3 52.3 20.8-30.6c13.6-23.5 15.1-40.9 5.2-58.2-4.8-8-12.2-13.8-21.2-16.2-3.1-0.8-6.1-1.2-9.1-1.2z m-18.7 0h10V519c6.3-1.5 12.8-1.4 19.1 0.3 10.3 2.8 19 9.4 24.4 18.7 8 13.9 9.2 28.2 3.6 44.8 13.5-16.6 24.7-24 42.9-24 22.2 0 40.1 18 40.1 40 0 16.1-9.5 30-23.3 36.4-5.6-0.5-10.6-1-14.6-1.5v5.1c-0.7 0.1-1.5 0.1-2.2 0.1H726.8l-0.1 0.1H650.6c-4.9 0-9.4-0.8-13.7-2.4 0.2-0.1 0.3-0.1 0.6-0.1v-5.3c4.1 1.7 8.5 2.7 13.1 2.7h71.7l-23.7-35.8c-16.9-23.3-28-33.9-48-33.9-19.1 0-34.8 15.7-34.8 34.8 0 14.5 8.8 26.9 21.3 32.1-2.8 0.3-5.8 0.7-8.9 1.2-10.6-7.2-17.6-19.5-17.6-33.3 0-22 18-40 40-40 13.6 0 23.2 4.1 32.8 12.9-2.2-7.3-2.2-15.3-0.1-23.1 3-10.7 10-20 19.1-25.2 0.5-0.2 0.8-0.5 1.3-0.6v0.3z" fill="#EF4666" /><path d="M577.8 646.9c3.2 5.5 58.6 13.9 150.6 13.9 91.1 0 146.1-8.4 150.4-14.3-2-2.6-51.8-4.8-73-7.4v-0.2c5.2-0.2 10.1-1.5 14.6-3.6 26.1 2.7 63.8 5.9 63.8 11.3v46.2c0 3.8-6 6.8-15.5 9.4v150.2c0 17.6-90.4 22.3-139.2 22.4h-0.1l-103.3-10h-18c-12.3-3.1-20.1-7.2-20.1-12.4V702.1c-9.5-2.6-15.5-5.6-15.5-9.4v-46.2c0-5.8 32-11.1 55.7-14.4 2.7 1.7 5.6 3.2 8.7 4.4-21.8 2.7-57.5 7.5-59 10.2v0.2z m301.2 5.4C852.6 665.9 734.1 666 728.4 666s-124.2-0.1-150.6-13.7v40.4c2.9 5.7 58.3 14.2 150.6 14.2s147.7-8.5 150.7-14.4l-0.1-40.2zM728.4 869.4c88.7 0 135.1-11.3 135.1-17.2v-149c-41.3 8.8-130.3 8.9-135.1 8.9s-93.8-0.1-135.1-8.9v149c0 6 46.4 17.2 135.1 17.2z" fill="#3D7749" /><path d="M480.6 141.9c18.8 32.7 15.9 65.8-9.7 110.2l-39.3 58-66.7-98.9c-8.7-15-10.8-33.8-5.8-51.6 5-17.7 16.5-32.9 31.5-41.6 10.2-5.9 21.5-8.9 32.8-8.9 5.7 0 11.5 0.8 17.2 2.3 17 4.4 31.2 15.3 40 30.5zM470.6 526.3v338.4h-78.9V327.9h39.9v0.1l0.1-0.1h38.9v146.9zM378.6 250.3l44.7 67.6H287.7c-36.3 0-65.9-29.6-65.9-65.9s29.6-65.9 65.9-65.9c37.9 0 58.6 19.9 90.9 64.2z" fill="#F59A9B" /><path d="M381.7 474.8v389.8H186.3c-13.7 0-24.9-11.1-24.9-24.8v-365h220.3z" fill="#FFE085" /><path d="M381.7 327.9v137h-242c-13.7 0-24.9-11.1-24.9-24.8v-87.2c0-13.8 11.3-24.9 24.9-24.9h242z" fill="#FFF0C2" /><path d="M381.7 464.9v-137h-242c-13.7 0-24.9 11.1-24.9 24.9V440c0 13.7 11.3 24.8 24.9 24.8h242z m0 399.8V474.8H161.3v365c0 13.7 11.3 24.8 24.9 24.8h195.5z m-94-546.8h135.5l-44.7-67.6c-32.2-44.3-53-64.1-90.8-64.1-36.3 0-65.9 29.6-65.9 65.9s29.6 65.8 65.9 65.8z m143.9-7.8l39.3-58c25.6-44.4 28.5-77.5 9.7-110.2-8.8-15.2-23.1-26.1-40-30.6-5.7-1.5-11.5-2.3-17.2-2.3-11.4 0-22.6 3-32.8 8.9-15.1 8.7-26.6 23.9-31.5 41.6-5 17.9-2.9 36.7 5.8 51.6l66.7 99z m39 17.8h-38.9l-0.1 0.1v-0.1h-39.9v536.8h78.9V327.9z m-28.8-10h135.6c36.3 0 65.9-29.6 65.9-65.9s-29.6-65.9-65.9-65.9c-37.8 0-58.7 19.8-90.9 64.3l-44.7 67.5z m38.7 147h244.9c13.7 0 24.8-11.1 24.8-24.8v-87.2c0-13.8-11.1-24.9-24.8-24.9H480.5v136.9zM104.8 352.8c0-19.3 15.7-34.9 34.9-34.9h110.5c-22.9-13.1-38.4-37.7-38.4-65.9 0-41.9 34-75.9 75.9-75.9 25.5 0 43.8 7.8 61.9 24.5-4.1-13.9-4.3-29.1-0.2-43.7 5.7-20.3 18.9-37.7 36.2-47.7 17.5-10.1 38-12.8 57.5-7.5 19.6 5.2 36 17.7 46 35.3 15.2 26.2 17.4 53.2 6.7 84.6 25.5-31.2 46.9-45.4 81.4-45.4 41.9 0 75.9 34 75.9 75.9 0 28.2-15.5 52.8-38.4 65.9h110.5c19.1 0 34.8 15.7 34.8 34.9V440c0 19.1-15.7 34.8-34.8 34.8h-11.7V519c-3.4 0.7-6.7 2-10 3.8v-48h-223v389.8h127.6c29.7 7.7 85.8 10 120.3 10H186.3c-19.3 0-34.9-15.7-34.9-34.8v-365h-11.6c-19.3 0-34.9-15.7-34.9-34.8v-87.2z" fill="#EF4666" /></svg>