<svg height="480pt" viewBox="0 0 480 480.00321" width="480pt" xmlns="http://www.w3.org/2000/svg"><path d="m472 264.003906c0 114.875-93.125 208-208 208s-208-93.125-208-208 93.125-208 208-208 208 93.125 208 208zm0 0" fill="#26547c"/><path d="m264 56.003906v416c114.875 0 208-93.128906 208-208s-93.125-208-208-208zm0 0" fill="#99e1ff"/><path d="m264 423.058594c-41.460938 0-77.542969 10.152344-96.269531 25.3125 28.792969 15.0625 61.519531 23.632812 96.269531 23.632812 34.753906 0 67.480469-8.570312 96.273438-23.632812-18.726563-15.160156-54.808594-25.3125-96.273438-25.3125zm0 0" fill="#ccc"/><path d="m256.273438 104.945312c41.464843 0 77.542968-10.148437 96.273437-25.308593-28.800781-15.066407-61.527344-23.632813-96.273437-23.632813-34.742188 0-67.480469 8.566406-96.273438 23.632813 18.730469 15.160156 54.808594 25.308593 96.273438 25.308593zm0 0" fill="#ccc"/><path d="m262.5625 13.660156-107.480469-5.65625-147.082031 147.078125 113.136719 113.136719 147.082031-147.078125zm-33.945312 56.566406c-6.246094 6.25-16.375 6.25-22.625 0-6.246094-6.246093-6.246094-16.375 0-22.625 6.25-6.246093 16.378906-6.246093 22.625 0 6.25 6.25 6.25 16.378907 0 22.625zm0 0" fill="#99e1ff"/><path d="m172.050781 104.171875-11.855469 32.832031 19.871094 27.039063-34.367187.417969-20.554688 28.566406-9.382812-32.566406-32.566407-9.386719 28.558594-20.550781.421875-34.367188 27.042969 19.871094zm0 0" fill="#ef476f"/><path d="m54.34375 212.730469c-2.519531 10.191406-4.421875 20.59375-5.34375 31.03125-.664062 6.640625-1 13.449219-1 20.242187 0 119.101563 96.898438 216 216 216 119.105469 0 216-96.898437 216-216 0-38.3125-10.167969-75.921875-29.421875-108.761718-.167969-.296876-.351563-.566407-.550781-.832032-20.425782-34.878906-50.167969-63.160156-86.058594-81.808594-28.046875-14.765624-59.566406-23.0625-91.574219-24.335937l-1.847656-35.023437c-.21875-4.085938-3.488281-7.351563-7.570313-7.566407l-107.472656-5.6640622c-2.222656-.1210938-4.476562.7265622-6.078125 2.3359372l-147.082031 147.078125c-1.503906 1.496094-2.34375 3.539063-2.34375 5.65625 0 2.121094.839844 4.160157 2.34375 5.65625zm28.890625 28.898437c-6.007813-1.074218-11.769531-2.195312-17.367187-3.363281.511718-4.070313 1.070312-8.132813 1.855468-12.160156zm-18.976563 12.644532c11.9375 2.449218 24.769532 4.691406 38.3125 6.691406l12.910157 12.910156c1.5625 1.558594 3.609375 2.34375 5.65625 2.34375 2.050781 0 4.097656-.785156 5.65625-2.34375l8.703125-8.703125c1.511718.175781 3.035156.328125 4.546875.496094.109375 26.589843 3.023437 52.6875 8.292969 77.617187-25.710938-2.554687-49.980469-5.929687-72.007813-10.113281-7.957031-21.570313-12.328125-44.863281-12.328125-69.167969 0-3.242187.089844-6.488281.257812-9.730468zm263.296876-150.117188c9.839843 17.710938 17.894531 37.246094 24.0625 58.078125-25.871094 1.855469-52.550782 2.878906-79.617188 3.050781v-36.617187l1.875-1.871094c1.597656-1.601563 2.453125-3.816406 2.335938-6.082031l-.433594-8.160156c18.664062-.847657 36.25-3.703126 51.777344-8.398438zm-55.554688 311.144531v-50.511719c27.523438-.179687 54.664062-1.25 80.800781-3.152343-6.296875 22.335937-14.734375 43.261719-25.199219 62.117187-16.351562-4.902344-35.304687-7.832031-55.601562-8.453125zm-76.671875 10.03125c-10.917969-19.386719-19.671875-41.023437-26.140625-64.144531 27.964844 2.183594 57.175781 3.40625 86.8125 3.601562v50.511719c-22.40625.6875-43.246094 4.160157-60.671875 10.03125zm60.671875-76.542969c-31.132812-.203124-61.8125-1.53125-90.957031-3.945312-5.617188-24.800781-8.722657-50.9375-8.945313-77.632812 31.703125 2.914062 65.207032 4.488281 99.902344 4.703124zm16 0v-76.875c32.371094-.199218 64-1.621093 94.007812-4.160156-.261718 26.664063-3.382812 52.777344-9.023437 77.539063-27.367187 2.117187-55.957031 3.308593-84.984375 3.496093zm0-92.875v-74.628906c28.546875-.179687 56.699219-1.289062 83.945312-3.3125 5.710938 23.511719 8.976563 48.359375 9.800782 73.757813-29.863282 2.554687-61.417969 3.976562-93.746094 4.183593zm-16-90.628906c-6.695312-.042968-13.453125-.128906-20.328125-.289062l20.328125-20.328125zm-35.902344 15.292969c12.175782.410156 24.167969.632813 35.902344.714844v74.621093c-34.621094-.214843-68.039062-1.800781-99.65625-4.742187.074219-2.367187.128906-4.746094.257812-7.097656zm-136.273437 170.191406c21.195312 3.683594 44.152343 6.683594 68.3125 8.953125 6.746093 25.808594 16.28125 49.9375 28.25 71.578125-4.855469 2.320313-9.167969 4.917969-13.136719 7.671875-36.097656-20.042968-65.390625-50.90625-83.425781-88.203125zm100.410156 96.585938c19.359375-10.167969 48.34375-16.296875 79.765625-16.296875 31.425781 0 60.410156 6.128906 79.769531 16.296875-24.457031 10.679687-51.425781 16.648437-79.769531 16.648437s-55.308594-5.96875-79.765625-16.648437zm176.519531-8.382813c-5.222656-3.625-11.207031-6.890625-17.929687-9.753906 11.351562-20.945312 20.457031-44.136719 26.984375-68.902344 26.410156-2.328125 51.410156-5.554687 74.378906-9.546875-18.042969 37.296875-47.339844 68.160157-83.433594 88.203125zm90.902344-105.800781c-23.726562 4.503906-50.0625 8.09375-78.023438 10.703125 5.3125-24.910156 8.257813-50.992188 8.410157-77.574219 29.453125-2.945312 56.933593-7.015625 81.628906-12.089843.167969 3.257812.328125 6.519531.328125 9.792968 0 24.304688-4.367188 47.597656-12.34375 69.167969zm10.664062-95.007813c-24.285156 5.070313-51.460937 9.128907-80.613281 12.078126-.890625-25.285157-4.144531-50.046876-9.707031-73.613282 24.074219-2.226562 46.664062-5.089844 67.363281-8.554687 11.933594 21.722656 19.757813 45.488281 22.957031 70.089843zm-31.902343-84.847656c-19.359375 3.0625-40.304688 5.621094-62.550781 7.628906-6.335938-22.214843-14.722657-43.09375-25.019532-62.09375 6.832032-2.886718 12.769532-6.144531 17.914063-9.6875 28.152343 15.503907 51.992187 37.4375 69.65625 64.152344zm-86.542969-72.578125c-4.425781 2.296875-9.425781 4.425781-14.992188 6.351563-15.617187 5.457031-34.203124 8.617187-53.945312 9.503906l-1.703125-32.300781c24.40625 1.160156 48.445313 6.742187 70.640625 16.445312zm-185.65625-64.558593 96.726562 5.085937 5.097657 96.738281-138.898438 138.902344-101.832031-101.824219zm0 0"/><path d="m217.304688 82.898438c6.152343 0 12.289062-2.335938 16.96875-7.007813 9.359374-9.351563 9.359374-24.582031 0-33.945313-9.359376-9.359374-24.574219-9.359374-33.9375 0-9.359376 9.355469-9.359376 24.585938 0 33.945313 4.683593 4.671875 10.824218 7.007813 16.96875 7.007813zm-5.65625-29.640626c1.5625-1.558593 3.609374-2.335937 5.65625-2.335937 2.050781 0 4.097656.785156 5.65625 2.335937 3.121093 3.121094 3.121093 8.195313 0 11.320313-3.128907 3.121094-8.183594 3.121094-11.3125 0-3.117188-3.125-3.117188-8.199219 0-11.320313zm0 0"/><path d="m125.144531 201.027344c2.546875 0 4.976563-1.214844 6.496094-3.328125l18.191406-25.289063 30.335938-.375c2.992187-.039062 5.722656-1.75 7.058593-4.433594 1.34375-2.679687 1.0625-5.886718-.714843-8.300781l-17.335938-23.59375 10.402344-28.824219c1.054687-2.910156.328125-6.175781-1.863281-8.367187s-5.449219-2.921875-8.378906-1.863281l-28.8125 10.40625-23.601563-17.34375c-2.425781-1.785156-5.617187-2.046875-8.304687-.710938-2.679688 1.335938-4.390626 4.0625-4.429688 7.0625l-.378906 30.328125-25.285156 18.191407c-2.488282 1.792968-3.738282 4.839843-3.210938 7.867187.519531 3.015625 2.730469 5.46875 5.671875 6.316406l28.328125 8.160157 8.152344 28.320312c.839844 2.945312 3.304687 5.152344 6.320312 5.671875.441406.074219.90625.105469 1.359375.105469zm-7.167969-48.257813-16.742187-4.824219 15.191406-10.925781c2.0625-1.488281 3.296875-3.855469 3.328125-6.398437l.222656-18.800782 14.496094 10.648438c2.152344 1.582031 4.953125 2 7.457032 1.078125l16.800781-6.0625-6.066407 16.808594c-.902343 2.503906-.496093 5.300781 1.082032 7.453125l10.648437 14.496094-18.808593.234374c-2.535157.03125-4.90625 1.261719-6.390626 3.328126l-10.929687 15.191406-4.824219-16.738282c-.742187-2.664062-2.816406-4.726562-5.464844-5.488281zm0 0"/></svg>