<svg id="Layer_1" enable-background="new 0 0 450 450" height="512" viewBox="0 0 450 450" width="512" xmlns="http://www.w3.org/2000/svg"><g><g><g><g><g><g><g><path clip-rule="evenodd" d="m403.8 139.7-17.3 17.3-17.1 1.1 1-17.2 17.3-17.3-1 17.1z" fill="#a1887f" fill-rule="evenodd"/></g><g><path clip-rule="evenodd" d="m324.3 203.2c-12-12-27.9-18.6-44.8-18.6s-32.8 6.6-44.8 18.6-18.6 27.9-18.6 44.8 6.6 32.8 18.6 44.8 27.9 18.6 44.8 18.6 32.8-6.6 44.8-18.6 18.6-27.9 18.6-44.8c-.1-16.9-6.7-32.9-18.6-44.8zm-61.2-49.3c5.3-.9 10.8-1.4 16.4-1.4 2.5 0 4.9.1 7.3.3 23.5 1.8 44.6 12 60.2 27.7 17.3 17.3 28 41.1 28 67.5 0 50.3-38.9 91.5-88.2 95.2-2.4.2-4.8.3-7.3.3-5.6 0-11-.5-16.4-1.4-15.7-2.7-30.1-9.3-42.2-18.7-15.1-11.7-26.5-27.9-32.5-46.5-2.9-9.1-4.4-18.8-4.4-28.9 0-6 .6-11.9 1.6-17.6 3.3-17.7 11.5-33.7 23.1-46.5 14-15.5 33-26.3 54.4-30z" fill="#ff7043" fill-rule="evenodd"/></g><g><path clip-rule="evenodd" d="m301.6 225.8c-3-3-6.4-5.3-10.1-6.8-3.8-1.6-7.8-2.4-12-2.4s-8.2.8-12 2.4-7.2 3.9-10.1 6.8c-3 3-5.3 6.4-6.8 10.1-1.6 3.8-2.4 7.8-2.4 12s.8 8.2 2.4 12 3.9 7.2 6.8 10.1 6.4 5.3 10.1 6.8c3.8 1.6 7.8 2.4 12 2.4s8.2-.8 12-2.4 7.2-3.9 10.1-6.8c3-3 5.3-6.4 6.8-10.1 1.6-3.8 2.4-7.8 2.4-12s-.8-8.2-2.4-12c-1.6-3.7-3.9-7.1-6.8-10.1zm22.7-22.6c12 12 18.6 27.9 18.6 44.8s-6.6 32.8-18.6 44.8-27.9 18.6-44.8 18.6-32.8-6.6-44.8-18.6-18.6-27.9-18.6-44.8 6.6-32.8 18.6-44.8 27.9-18.6 44.8-18.6 32.8 6.6 44.8 18.6z" fill="#ffe082" fill-rule="evenodd"/></g><g><path clip-rule="evenodd" d="m301.6 225.8c3 3 5.3 6.4 6.8 10.1 1.6 3.8 2.4 7.8 2.4 12s-.8 8.2-2.4 12-3.9 7.2-6.8 10.1c-3 3-6.4 5.3-10.1 6.8-3.8 1.6-7.8 2.4-12 2.4s-8.2-.8-12-2.4-7.2-3.9-10.1-6.8-5.3-6.4-6.8-10.1c-1.6-3.8-2.4-7.8-2.4-12s.8-8.2 2.4-12 3.9-7.2 6.8-10.1 6.4-5.3 10.1-6.8c3.8-1.6 7.8-2.4 12-2.4s8.2.8 12 2.4c3.7 1.6 7.1 3.9 10.1 6.8z" fill="#81c784" fill-rule="evenodd"/></g><g><path clip-rule="evenodd" d="m220.9 323.4c12.1 9.4 26.5 16 42.2 18.7v27.6h-192.8v-246h36.9v10.7h118.9v-10.7h36.9v30.2c-21.4 3.7-40.4 14.5-54.4 29.9-11.6 12.8-19.8 28.8-23.1 46.5-1.1 5.7-1.6 11.6-1.6 17.6 0 10.1 1.6 19.8 4.4 28.9 6 18.7 17.5 34.8 32.6 46.6z" fill="#dcedc8" fill-rule="evenodd"/></g><g><path clip-rule="evenodd" d="m198.4 80.9v12.5h-63.4v-12.5-22.7h63.4z" fill="#a1887f" fill-rule="evenodd"/></g><g><path clip-rule="evenodd" d="m226.1 123.7v10.7h-118.8v-10.7-23.7-8.7c0-5.8 4.7-10.5 10.5-10.5h17.2v12.5h63.3v-12.4h17.3c5.8 0 10.5 4.7 10.5 10.5v8.7z" fill="#a1887f" fill-rule="evenodd"/></g><g><path clip-rule="evenodd" d="m286.7 343.2v50.1h-240v-293.3h60.6v23.6h-37v246h192.7v-27.6c5.3.9 10.8 1.4 16.4 1.4 2.5 0 4.9-.1 7.3-.2z" fill="#d7ccc8" fill-rule="evenodd"/></g><g><path clip-rule="evenodd" d="m286.7 100v52.8c-2.4-.2-4.8-.3-7.3-.3-5.6 0-11 .5-16.4 1.4v-30.2h-36.9v-23.7z" fill="#d7ccc8" fill-rule="evenodd"/></g></g><g><g><path clip-rule="evenodd" d="m263.1 159.7c-3.2 0-5.8-2.6-5.8-5.8v-24.5h-31.2c-3.2 0-5.8-2.6-5.8-5.8s2.6-5.8 5.8-5.8h36.9c3.2 0 5.8 2.6 5.8 5.8v30.2c0 3.3-2.6 5.9-5.7 5.9z" fill="#231f20" fill-rule="evenodd"/></g><g><path clip-rule="evenodd" d="m263.1 375.4h-192.8c-3.2 0-5.8-2.6-5.8-5.8v-246c0-3.2 2.6-5.8 5.8-5.8h36.9c3.2 0 5.8 2.6 5.8 5.8s-2.6 5.8-5.8 5.8h-31.1v234.4h181.2v-21.8c0-3.2 2.6-5.8 5.8-5.8s5.8 2.6 5.8 5.8v27.6c-.1 3.2-2.7 5.8-5.8 5.8z" fill="#231f20" fill-rule="evenodd"/></g><g><path clip-rule="evenodd" d="m226.1 140.1h-118.8c-3.2 0-5.8-2.6-5.8-5.8v-43c0-9 7.3-16.3 16.3-16.3h17.2c3.2 0 5.8 2.6 5.8 5.8s-2.6 5.8-5.8 5.8h-17.3c-2.6 0-4.8 2.1-4.8 4.8v37.2h107.4v-37.2c0-2.6-2.1-4.8-4.8-4.8h-17.3c-3.2 0-5.8-2.6-5.8-5.8s2.6-5.8 5.8-5.8h17.3c9 0 16.3 7.3 16.3 16.3v43c.1 3.2-2.5 5.8-5.7 5.8z" fill="#231f20" fill-rule="evenodd"/></g><g><path clip-rule="evenodd" d="m286.7 399h-240c-3.2 0-5.8-2.6-5.8-5.8v-293.2c0-3.2 2.6-5.8 5.8-5.8h60.6c3.2 0 5.8 2.6 5.8 5.8s-2.6 5.8-5.8 5.8h-54.8v281.7h228.5v-44.4c0-3.2 2.6-5.8 5.8-5.8s5.8 2.6 5.8 5.8v50.1c-.1 3.3-2.7 5.8-5.9 5.8z" fill="#231f20" fill-rule="evenodd"/></g><g><path clip-rule="evenodd" d="m286.7 158.6c-3.2 0-5.8-2.6-5.8-5.8v-47h-54.8c-3.2 0-5.8-2.6-5.8-5.8s2.6-5.8 5.8-5.8h60.6c3.2 0 5.8 2.6 5.8 5.8v52.8c0 3.2-2.6 5.8-5.8 5.8z" fill="#231f20" fill-rule="evenodd"/></g><g><path clip-rule="evenodd" d="m198.4 99.2h-63.4c-3.2 0-5.8-2.6-5.8-5.8v-35.2c0-3.2 2.6-5.8 5.8-5.8h63.3c3.2 0 5.8 2.6 5.8 5.8v35.2c0 3.2-2.6 5.8-5.7 5.8zm-57.6-11.6h51.8v-23.6h-51.8z" fill="#231f20" fill-rule="evenodd"/></g><g><path clip-rule="evenodd" d="m208.7 189.6h-60.4c-3.2 0-5.8-2.6-5.8-5.8s2.6-5.8 5.8-5.8h60.4c3.2 0 5.8 2.6 5.8 5.8s-2.6 5.8-5.8 5.8z" fill="#231f20" fill-rule="evenodd"/></g><g><path clip-rule="evenodd" d="m109.3 194c-1.5 0-3-.6-4.1-1.7l-7.5-7.5c-2.3-2.3-2.3-5.9 0-8.1s5.9-2.2 8.1 0l3.4 3.4 13.3-13.3c2.3-2.2 5.9-2.2 8.1 0 2.3 2.3 2.3 5.9 0 8.1l-17.3 17.3c-1 1.1-2.5 1.8-4 1.8z" fill="#231f20" fill-rule="evenodd"/></g><g><path clip-rule="evenodd" d="m185.6 236.1h-37.3c-3.2 0-5.8-2.6-5.8-5.8s2.6-5.8 5.8-5.8h37.3c3.2 0 5.8 2.6 5.8 5.8s-2.6 5.8-5.8 5.8z" fill="#231f20" fill-rule="evenodd"/></g><g><path clip-rule="evenodd" d="m109.3 240.5c-1.5 0-3-.6-4.1-1.7l-7.5-7.5c-2.3-2.3-2.3-5.9 0-8.1s5.9-2.3 8.1 0l3.4 3.4 13.3-13.3c2.2-2.3 5.9-2.3 8.1 0s2.3 5.9 0 8.1l-17.3 17.3c-1 1.2-2.5 1.8-4 1.8z" fill="#231f20" fill-rule="evenodd"/></g><g><path clip-rule="evenodd" d="m188.4 282.6h-40.1c-3.2 0-5.8-2.6-5.8-5.8s2.6-5.8 5.8-5.8h40.1c3.2 0 5.8 2.6 5.8 5.8s-2.6 5.8-5.8 5.8z" fill="#231f20" fill-rule="evenodd"/></g><g><path clip-rule="evenodd" d="m109.3 287c-1.5 0-3-.6-4.1-1.7l-7.5-7.5c-2.3-2.2-2.3-5.9 0-8.1 2.2-2.3 5.9-2.3 8.1 0l3.4 3.4 13.3-13.3c2.2-2.3 5.9-2.3 8.1 0s2.3 5.9 0 8.1l-17.3 17.3c-1 1.2-2.5 1.8-4 1.8z" fill="#231f20" fill-rule="evenodd"/></g><g><path clip-rule="evenodd" d="m220.9 329.1h-72.6c-3.2 0-5.8-2.6-5.8-5.8s2.6-5.8 5.8-5.8h72.6c3.2 0 5.8 2.6 5.8 5.8-.1 3.3-2.6 5.8-5.8 5.8z" fill="#231f20" fill-rule="evenodd"/></g><g><path clip-rule="evenodd" d="m109.3 333.5c-1.5 0-3-.6-4.1-1.7l-7.5-7.5c-2.3-2.3-2.3-5.9 0-8.1 2.3-2.3 5.9-2.3 8.1 0l3.4 3.4 13.3-13.3c2.2-2.3 5.9-2.3 8.1 0 2.3 2.2 2.3 5.9 0 8.1l-17.3 17.3c-1 1.2-2.5 1.8-4 1.8z" fill="#231f20" fill-rule="evenodd"/></g><g><path clip-rule="evenodd" d="m279.4 349.2c-5.8 0-11.7-.5-17.3-1.5-16.2-2.8-31.6-9.6-44.6-19.7 0 0-.1-.1-.1-.1-16.3-12.7-28.2-29.7-34.4-49.3-3.1-9.9-4.7-20.2-4.7-30.6 0-6.3.6-12.6 1.7-18.7 3.4-18.4 11.9-35.4 24.5-49.3 7.5-8.2 16.2-15.1 25.9-20.5 9.9-5.5 20.6-9.3 31.8-11.2 5.7-1 11.5-1.5 17.3-1.5 2.6 0 5.2.1 7.7.3 24.1 1.8 46.7 12.2 63.9 29.4 9.3 9.3 16.6 20.1 21.7 32.2 5.3 12.5 8 25.7 8 39.4 0 25.7-9.6 50.2-27.1 69-17.4 18.7-41 30-66.4 32-2.7 0-5.3.1-7.9.1zm-55.1-30.5s.1.1.1.1c11.6 9 25.3 15.1 39.6 17.5 5 .9 10.2 1.3 15.4 1.3 2.3 0 4.6-.1 6.8-.3 46.5-3.5 82.9-42.8 82.9-89.4 0-24-9.3-46.5-26.3-63.4-15.2-15.2-35.3-24.4-56.6-26-2.2-.2-4.6-.3-6.8-.3-5.2 0-10.3.4-15.4 1.3-19.5 3.4-37.7 13.4-51.1 28.1-11.2 12.3-18.7 27.4-21.7 43.7-1 5.4-1.5 11-1.5 16.6 0 9.3 1.4 18.4 4.2 27.1 5.5 17.4 16 32.5 30.4 43.7z" fill="#212121" fill-rule="evenodd"/></g><g><path clip-rule="evenodd" d="m279.4 317.1c-18.5 0-35.8-7.2-48.9-20.3s-20.3-30.4-20.3-48.9 7.2-35.8 20.3-48.9 30.4-20.3 48.9-20.3 35.8 7.2 48.9 20.3 20.3 30.4 20.3 48.9-7.2 35.8-20.3 48.9c-13 13.1-30.4 20.3-48.9 20.3zm0-126.7c-15.4 0-29.9 6-40.7 16.9-10.9 10.9-16.9 25.4-16.9 40.7s6 29.9 16.9 40.7c10.9 10.9 25.4 16.9 40.7 16.9s29.9-6 40.7-16.9c10.9-10.9 16.9-25.4 16.9-40.7 0-15.4-6-29.9-16.9-40.7-10.8-10.9-25.3-16.9-40.7-16.9z" fill="#212121" fill-rule="evenodd"/></g><g><path clip-rule="evenodd" d="m279.4 285c-5 0-9.7-.9-14.2-2.8s-8.5-4.6-12-8.1-6.2-7.5-8.1-12c-1.8-4.5-2.8-9.2-2.8-14.2s.9-9.7 2.8-14.2 4.6-8.5 8.1-12 7.5-6.2 12-8.1 9.2-2.8 14.2-2.8 9.7.9 14.2 2.8 8.5 4.6 12 8.1 6.2 7.5 8.1 12c1.8 4.5 2.8 9.2 2.8 14.2s-.9 9.7-2.8 14.2-4.6 8.5-8.1 12-7.5 6.2-12 8.1c-4.4 1.9-9.2 2.8-14.2 2.8zm0-62.6c-3.4 0-6.7.6-9.8 1.9s-5.8 3.1-8.3 5.6-4.3 5.2-5.6 8.3-1.9 6.4-1.9 9.8.6 6.7 1.9 9.8 3.1 5.9 5.6 8.3c2.4 2.4 5.2 4.3 8.3 5.6s6.4 1.9 9.8 1.9 6.7-.6 9.8-1.9 5.9-3.1 8.3-5.6c2.4-2.4 4.3-5.2 5.6-8.3s1.9-6.4 1.9-9.8-.6-6.7-1.9-9.8-3.1-5.8-5.6-8.3-5.2-4.3-8.3-5.6c-3-1.2-6.3-1.9-9.8-1.9z" fill="#212121" fill-rule="evenodd"/></g><g><path clip-rule="evenodd" d="m279.4 253.7c-1.5 0-2.9-.6-4.1-1.7-2.2-2.3-2.2-5.9 0-8.1l89.9-89.9c2.3-2.2 5.9-2.2 8.1 0 2.2 2.3 2.2 5.9 0 8.1l-89.9 89.9c-1 1.2-2.5 1.7-4 1.7z" fill="#212121" fill-rule="evenodd"/></g><g><path clip-rule="evenodd" d="m369.4 163.8c-1.5 0-3-.6-4.1-1.7-1.2-1.2-1.8-2.8-1.7-4.4l1-17.1c.1-1.4.7-2.7 1.7-3.7l17.3-17.3c1.7-1.7 4.3-2.2 6.4-1.2 2.2 1 3.5 3.2 3.4 5.6l-.6 10.7 10.7-.6c2.4-.1 4.6 1.2 5.6 3.4s.5 4.7-1.2 6.4l-17.3 17.3c-1 1-2.3 1.6-3.7 1.7l-17.1 1c-.2-.1-.3-.1-.4-.1zm6.6-20.4-.5 8.5 8.5-.5 5.1-5.1-2 .1c-1.6.1-3.2-.5-4.4-1.7s-1.8-2.8-1.7-4.4l.1-2z" fill="#212121" fill-rule="evenodd"/></g></g></g></g></g></g></g></svg>