<svg clip-rule="evenodd" fill-rule="evenodd" height="512" image-rendering="optimizeQuality" shape-rendering="geometricPrecision" text-rendering="geometricPrecision" viewBox="0 0 1707 1707" width="512" xmlns="http://www.w3.org/2000/svg"><g id="Layer_x0020_1"><path d="m912 1706c-11 0-20-9-20-20v-192c0-161 127-201 252-218 57-8 60-18 104-49 320-223 329-461 318-553-130 143-320 160-338 161-388 70-355 376-354 389 4 26-36 31-39 5-1-3-40-357 387-433 1-1 219-16 340-180 9-13 30-10 35 6 4 14 99 341-327 638-46 32-54 46-120 56-131 18-218 55-218 178v192c0 11-9 20-20 20z"/><path d="m912 1514c-16 0-25-17-17-30 57-95 378-63 423-58 165-8 225-51 245-76 4-4 7-8 8-10l-44-6c-130-18-371-19-374-19-26 0-26-40 0-40 10 0 247 1 379 20 29 4 125 5 62 81-31 36-103 82-276 90-1 0-2 0-3 0-131-15-352-17-386 39-4 6-10 9-17 9z"/><path d="m795 1706c-11 0-20-9-20-20v-192c0-123-87-161-218-179-66-9-75-23-121-55-425-297-331-624-326-638 4-15 25-19 35-6 120 164 339 179 340 180 426 76 387 430 387 433-3 26-43 21-40-5 2-13 34-319-353-389-19-1-209-19-339-161-11 92-2 329 319 553 44 30 47 41 103 49 125 17 253 57 253 218v192c0 11-9 20-20 20z"/><path d="m795 1514c-7 0-13-3-17-9-34-57-255-54-386-39-1 0-2 0-3 0-173-8-246-54-276-90-13-15-26-34-18-53 10-26 48-24 79-28 140-19 363-20 379-20 27 0 27 39 1 40-3 0-245 1-374 19l-44 6c1 2 4 6 7 10 21 25 81 68 246 76 44-5 365-37 423 58 8 13-2 30-17 30z"/><path d="m1506 723c-16 0-20-13-20-26 0-166-151-291-316-259-37 8-19-45-19-79 0-176-142-319-318-319-198 0-348 180-314 373 6 33-43 20-61 20-140 0-255 109-263 248-2 27-42 24-40-2 10-169 157-297 321-285-20-212 146-394 357-394 212 0 378 185 356 395 181-19 336 118 337 308 0 11-9 20-20 20z"/><path d="m1099 522c-41 0-19-87 59-121 24-11 40 26 16 36-75 33-40 85-75 85z"/><path d="m567 520c-36 0 1-50-76-85-24-12-7-47 16-37 78 34 101 122 60 122z"/><path d="m1046 579c-11 0-20-9-20-20 0-103-83-186-186-186-102 0-185 83-185 186 0 26-40 26-40 0 0-125 101-226 225-226 125 0 226 101 226 226 0 11-9 20-20 20z"/><path d="m1046 579c-11 0-20-9-20-20 0-103-83-186-186-186-102 0-185 83-185 186 0 26-40 26-40 0 0-125 101-226 225-226 125 0 226 101 226 226 0 11-9 20-20 20zm176 217c1 0 145-11 264-103-2-163-150-285-314-255-72 33-38 84-73 84-39 0-21-79 48-116 1-15 4-33 4-47 0-176-142-319-318-319-194 0-342 174-315 363 69 36 88 117 49 117-36 0 1-49-73-84-13 0-28-3-36-3-136 0-250 104-263 239 123 112 289 123 290 124 242 43 334 176 368 283 35-107 127-240 369-283z" fill="#f3eae6"/><path d="m1527 1334c-115-16-354-22-377-18-113 15-194 45-214 133 106-51 344-27 382-23 165-8 225-51 245-76 4-4 7-8 8-10z" fill="#79d871"/><path d="m770 1449c-19-88-100-118-213-134-19-2-254 3-377 19l-44 6c1 2 4 6 7 10 21 25 81 68 246 76 38-4 276-28 381 23z" fill="#79d871"/><path d="m795 1706h115c-10-1-18-9-18-20v-193c0-161 128-200 252-217 56-8 58-17 104-49 320-223 329-461 318-553-130 143-320 160-338 161-388 70-355 376-354 389 4 30-45 30-42 0 2-13 34-319-353-389-19-1-209-19-339-161-11 92-2 329 319 553 46 32 48 41 103 49 124 17 251 56 253 215v195c0 11-9 20-20 20z" fill="#68b25f"/></g></svg>