<svg id="Layer_1" viewBox="0 0 512 512" xmlns="http://www.w3.org/2000/svg" data-name="Layer 1"><path d="m115.754 376.154-21.175-39.855c-1.502-2.806-3.6-4.592-6.661-5.584l-10.261-3.345-48.983 121.861 56.155-10.8c2.92-.567 5.924.539 7.767 2.863l35.717 44.674 34.214-102.104-12.076 4.875c-13.153 5.272-28.034-.142-34.696-12.586z" fill="#fd7a6e"/><path d="m305.193 330.715c-3.033.992-5.131 2.778-6.633 5.584l-21.175 39.827c-4.932 9.27-14.428 14.627-24.321 14.627-3.458 0-6.945-.624-10.318-1.984l-12.161-4.932 34.243 102.132 35.745-44.674c1.871-2.324 4.847-3.43 7.767-2.863l56.183 10.8-49.039-121.833-10.29 3.316z" fill="#fd7a6e"/><path d="m204.988 184.079-8.419-26.135-8.447 26.135c-1.729 5.415-6.718 9.071-12.444 9.071l-27.468-.057 22.337 16.158c4.507 3.373 6.406 9.212 4.677 14.542l-8.561 26.192 22.195-16.214c2.296-1.672 4.989-2.522 7.71-2.522s5.414.85 7.739 2.551l22.167 16.186-8.532-26.164c-1.786-5.33.114-11.226 4.706-14.599l22.309-16.129-27.496.057c-5.726 0-10.715-3.657-12.473-9.071z" fill="#ffd675"/><path d="m261.71 200.718-27.865 20.183 10.687 32.769c1.786 5.329-.114 11.225-4.706 14.598-2.296 1.701-5.017 2.523-7.71 2.523s-5.357-.822-7.682-2.466l-27.865-20.353-27.836 20.325c-4.621 3.316-10.772 3.316-15.335.028-4.621-3.374-6.52-9.241-4.819-14.627l10.743-32.797-27.921-20.211c-4.592-3.288-6.52-9.156-4.791-14.57 1.814-5.471 6.832-9.071 12.444-9.071l34.498.085 10.602-32.797c1.729-5.414 6.718-9.071 12.444-9.071 5.613 0 10.602 3.628 12.387 8.986l.028.085 10.573 32.797 34.469-.085c5.726 0 10.715 3.628 12.472 9.071 1.729 5.415-.198 11.282-4.819 14.599zm-65.112-99.553c-56.183 0-101.877 45.694-101.877 101.877s45.695 101.849 101.877 101.849c41.329 0 78.888-25.427 94.365-63.553-11.792-28.744-16.583-62.561-14.372-101.339-19.474-24.718-48.472-38.834-79.994-38.834z" fill="#e8ecf9"/><path d="m48.063 223.735c3.883 6.151 5.131 13.181 3.6 20.353l-9.383 44.079c-1.247 5.811 2.098 11.565 7.739 13.408l42.888 13.918c7.03 2.296 12.359 6.774 15.817 13.294l21.175 39.827c2.778 5.216 9.042 7.483 14.542 5.272l41.811-16.895c6.746-2.721 13.89-2.721 20.636-.028l41.839 16.951c5.499 2.183 11.735-.085 14.513-5.301l21.175-39.827c3.458-6.52 8.759-10.999 15.789-13.294l36.17-11.707c-14.939-12.614-27.099-27.298-36.482-43.994-20.494 37.134-60.094 61.115-103.294 61.115-64.999 0-117.893-52.866-117.893-117.865s52.895-117.893 117.893-117.893c31.209 0 60.293 11.962 82.148 33.335 1.077-2.778 3.628-4.791 6.718-5.103 11.169-1.049 22.025-3.062 32.542-5.981l-3.855-27.468c-.822-5.868-5.925-10.176-11.849-9.95l-45.071 1.587c-7.455.255-13.975-2.154-19.417-7.086l-33.505-30.189c-4.422-3.94-11.055-3.94-15.477.028l-33.534 30.189c-5.414 4.904-11.962 7.285-19.361 7.058l-45.099-1.587c-5.896-.198-10.998 4.082-11.849 9.95l-6.264 44.674c-1.021 7.342-4.507 13.351-10.346 17.887l-35.518 27.751c-4.677 3.657-5.84 10.205-2.693 15.222l23.896 38.268z" fill="#ffee93"/><path d="m315.029 152.416c.057-3.657 2.58-6.803 6.123-7.654 22.564-5.442 44.051-14.428 63.865-26.702 2.579-1.587 5.839-1.587 8.419 0 19.786 12.274 41.272 21.26 63.865 26.702 3.543.851 6.066 3.997 6.123 7.654 1.077 64.318-21.912 108.68-70.299 135.638-1.219.68-2.551 1.021-3.883 1.021-1.361 0-2.693-.34-3.912-1.021-48.387-26.929-71.376-71.292-70.299-135.638zm-22.252-14.655c0 .113-.028.255-.028.369-2.58 38.324 1.843 71.064 13.351 98.504.652.907 1.106 1.984 1.332 3.09 10.602 23.726 26.674 43.313 48.302 58.989.539.312 1.077.68 1.531 1.105 9.609 6.775 20.239 12.812 31.975 18.085 73.304-33.052 104.655-95.045 95.698-189.297-35.121-4.422-67.266-17.575-95.698-39.146-18.284 13.833-38.069 24.208-59.159 31.039-.51.199-1.021.369-1.559.482-11.31 3.543-22.989 6.123-35.008 7.625-.283 3.09-.539 6.123-.737 9.156z" fill="#6ac9eb"/><path d="m358.343 193.263c3.175-3.062 8.249-2.977 11.339.198l11.14 11.565 27.751-31.096c2.948-3.288 7.994-3.571 11.282-.624 3.317 2.948 3.6 7.994.652 11.31l-33.477 37.502c-1.474 1.644-3.572 2.608-5.811 2.665h-.17c-2.155 0-4.224-.878-5.754-2.438l-17.121-17.745c-3.09-3.175-3.005-8.249.17-11.338zm30.898 78.576c39.146-23.414 57.77-59.556 58.195-113.074-20.438-5.5-39.969-13.748-58.195-24.52-18.284 10.772-37.814 19.021-58.224 24.52.425 53.546 19.049 89.688 58.224 113.074z" fill="#e8ecf9"/><g fill="#030403"><path d="m290.963 241.339c-15.477 38.126-53.036 63.553-94.365 63.553-56.183 0-101.877-45.695-101.877-101.849s45.695-101.877 101.877-101.877c31.521 0 60.52 14.116 79.994 38.834-2.211 38.778 2.58 72.595 14.372 101.339zm-264.104-71.093 35.518-27.751c5.839-4.536 9.326-10.545 10.346-17.887l6.264-44.674c.851-5.868 5.953-10.148 11.849-9.95l45.099 1.587c7.398.227 13.946-2.154 19.361-7.058l33.534-30.189c4.422-3.969 11.055-3.969 15.477-.028l33.505 30.189c5.443 4.932 11.962 7.341 19.417 7.086l45.071-1.587c5.924-.227 11.027 4.082 11.849 9.95l3.855 27.468c-10.516 2.919-21.373 4.932-32.542 5.981-3.09.312-5.641 2.324-6.718 5.103-21.855-21.374-50.938-33.335-82.148-33.335-64.999 0-117.893 52.895-117.893 117.893s52.895 117.865 117.893 117.865c43.2 0 82.8-23.981 103.294-61.115 9.383 16.696 21.543 31.38 36.482 43.994l-36.17 11.707c-7.03 2.296-12.331 6.774-15.789 13.294l-21.175 39.827c-2.778 5.216-9.014 7.483-14.513 5.301l-41.839-16.951c-6.747-2.693-13.89-2.693-20.636.028l-41.811 16.895c-5.499 2.211-11.764-.057-14.542-5.272l-21.175-39.827c-3.458-6.52-8.787-10.999-15.817-13.294l-42.888-13.918c-5.641-1.842-8.986-7.597-7.739-13.408l9.383-44.079c1.531-7.172.283-14.202-3.6-20.353l-23.896-38.268c-3.146-5.017-1.984-11.565 2.693-15.222zm301.663-49.266c.539-.113 1.049-.283 1.559-.482 21.09-6.832 40.875-17.206 59.159-31.039 28.431 21.571 60.576 34.724 95.698 39.146 8.958 94.252-22.394 156.246-95.698 189.297-11.736-5.272-22.365-11.31-31.975-18.085-.454-.425-.992-.793-1.531-1.105-21.628-15.676-37.701-35.263-48.302-58.989-.227-1.106-.68-2.183-1.332-3.09-11.509-27.439-15.931-60.18-13.351-98.504 0-.114.028-.255.028-.369.198-3.033.454-6.066.737-9.156 12.019-1.502 23.698-4.082 35.008-7.625zm36 328.252-56.183-10.8c-2.92-.567-5.896.539-7.767 2.863l-35.745 44.674-34.243-102.132 12.161 4.932c3.373 1.361 6.86 1.984 10.318 1.984 9.893 0 19.389-5.357 24.321-14.627l21.175-39.827c1.502-2.806 3.6-4.592 6.633-5.584l10.29-3.316 49.039 121.833zm-236.211 36.737-35.717-44.674c-1.843-2.324-4.847-3.43-7.767-2.863l-56.155 10.8 48.983-121.861 10.261 3.345c3.062.992 5.159 2.778 6.661 5.584l21.175 39.855c6.662 12.444 21.543 17.858 34.696 12.586l12.076-4.875-34.214 102.104zm-93.798-253.73c1.673 2.693 2.155 5.386 1.474 8.504l-9.383 44.107c-2.948 13.833 4.989 27.581 18.453 31.946l17.348 5.641-49.549 123.138c-2.296 5.726-1.701 11.367 1.644 15.421 3.26 3.968 8.532 5.612 14.485 4.479l54.113-10.403 34.413 43.059c3.231 3.997 7.398 6.179 11.707 6.179.737 0 1.502-.057 2.268-.198 5.102-.936 9.269-4.904 11.197-10.687l39.402-117.468 10.148-4.11c2.948-1.19 5.726-1.19 8.674-.028l10.148 4.11 39.402 117.524c1.984 5.868 6.066 9.751 11.254 10.658.737.142 1.474.198 2.239.198 4.28 0 8.447-2.183 11.679-6.208l34.441-43.03 54.114 10.403c5.924 1.134 11.197-.51 14.485-4.479 3.316-4.025 3.94-9.638 1.616-15.421l-49.55-123.137 17.376-5.641c1.219-.397 2.409-.907 3.543-1.474 10.403 7.03 21.855 13.266 34.384 18.681 1.021.425 2.098.652 3.203.652 1.077 0 2.154-.227 3.175-.652 83.395-36.057 119.65-107.887 107.773-213.534-.425-3.77-3.43-6.718-7.2-7.086-36.624-3.458-69.845-17.036-98.731-40.309-2.948-2.381-7.115-2.381-10.063 0-15.676 12.643-32.655 22.394-50.74 29.253l-3.458-24.604c-1.956-14.032-14.088-24.236-28.261-23.754l-45.042 1.587c-3.231.113-5.783-.822-8.135-2.948l-33.534-30.189c-10.516-9.468-26.362-9.468-36.879 0l-33.562 30.189c-2.353 2.126-4.932 3.062-8.107 2.948l-45.099-1.587c-14.088-.482-26.249 9.723-28.233 23.726l-6.265 44.674c-.454 3.146-1.814 5.527-4.337 7.483l-35.575 27.779c-11.14 8.703-13.89 24.321-6.378 36.312l23.924 38.296z"/><path d="m222.648 209.222c-4.592 3.373-6.491 9.269-4.706 14.599l8.532 26.164-22.167-16.186c-2.324-1.701-5.017-2.551-7.739-2.551s-5.414.85-7.71 2.522l-22.195 16.214 8.561-26.192c1.729-5.329-.17-11.168-4.677-14.542l-22.337-16.158 27.468.057c5.726 0 10.715-3.657 12.444-9.071l8.447-26.135 8.419 26.135c1.758 5.415 6.747 9.071 12.473 9.071l27.496-.057-22.309 16.129zm31.408-32.173-34.469.085-10.573-32.797-.028-.085c-1.786-5.357-6.775-8.986-12.387-8.986-5.726 0-10.715 3.657-12.444 9.071l-10.602 32.797-34.498-.085c-5.613 0-10.63 3.6-12.444 9.071-1.729 5.415.198 11.282 4.791 14.57l27.921 20.211-10.743 32.797c-1.701 5.386.198 11.253 4.819 14.627 4.564 3.288 10.715 3.288 15.335-.028l27.836-20.325 27.865 20.353c2.324 1.644 4.989 2.466 7.682 2.466s5.414-.822 7.71-2.523c4.592-3.373 6.491-9.269 4.706-14.598l-10.687-32.769 27.865-20.183c4.62-3.316 6.548-9.184 4.819-14.599-1.758-5.442-6.747-9.071-12.472-9.071z"/><path d="m389.241 134.246c18.227 10.772 37.757 19.021 58.195 24.52-.425 53.518-19.049 89.66-58.195 113.074-39.175-23.386-57.799-59.527-58.224-113.074 20.409-5.5 39.94-13.748 58.224-24.52zm-3.912 153.808c1.219.68 2.551 1.021 3.912 1.021 1.332 0 2.665-.34 3.883-1.021 48.387-26.958 71.376-71.32 70.299-135.638-.057-3.657-2.58-6.803-6.123-7.654-22.592-5.442-44.079-14.428-63.865-26.702-2.579-1.587-5.839-1.587-8.419 0-19.814 12.274-41.301 21.26-63.865 26.702-3.543.851-6.066 3.997-6.123 7.654-1.077 64.346 21.912 108.708 70.299 135.638z"/><path d="m381.048 224.784h.17c2.24-.057 4.337-1.021 5.811-2.665l33.477-37.502c2.948-3.316 2.665-8.362-.652-11.31-3.288-2.948-8.334-2.665-11.282.624l-27.751 31.096-11.14-11.565c-3.09-3.175-8.164-3.26-11.339-.198-3.175 3.09-3.26 8.164-.17 11.338l17.121 17.745c1.531 1.559 3.6 2.438 5.754 2.438z"/></g></svg>