<svg id="Layer_1" enable-background="new 0 0 256 256" height="512" viewBox="0 0 256 256" width="512" xmlns="http://www.w3.org/2000/svg"><g><g><g><path d="m249.521 80.342v128.976c0 6.041-5.308 10.703-11.297 9.915-16.808-2.212-49.326-5.179-76.373.176-9.069 1.791-15.012 5.781-18.606 8.834-2.048 1.74-5.053 1.977-7.204.366-4.757-3.562-11.322-3.562-16.08 0-2.149 1.609-5.148 1.362-7.193-.377-3.575-3.041-9.501-7.015-18.518-8.803-27.072-5.378-59.647-2.408-76.474-.194-5.989.788-11.296-3.875-11.296-9.915v-128.978c0-4.991 3.677-9.212 8.62-9.905 2.224-.312 4.82-.651 7.72-.989v124.56c0 1.245 1.12 2.189 2.345 1.97 13.211-2.364 78.615-12.496 102.835 13.67 24.22-26.167 89.624-16.034 102.835-13.67 1.225.219 2.345-.725 2.345-1.97v-124.559c2.9.338 5.496.677 7.72.989 4.944.692 8.621 4.913 8.621 9.904z" fill="#fc5d3d"/></g><g><path d="m128 67.399c-24.692-26.686-92.19-15.627-103.547-13.541-.949.174-1.633 1.002-1.633 1.966 0 3.363 0 139.562 0 138.185 0 1.245 1.12 2.189 2.345 1.97 13.211-2.364 78.615-12.496 102.835 13.67 24.22-26.167 89.624-16.034 102.835-13.67 1.225.219 2.345-.725 2.345-1.97v-124.56-13.626c0-.965-.684-1.792-1.633-1.966-11.357-2.085-78.854-13.144-103.547 13.542z" fill="#efefef"/></g><g><path d="m126.575 197.255c-20.181-14.016-52.313-14.845-76.917-12.926-1.368.103-2.58-.921-2.687-2.298-.107-1.376.921-2.58 2.298-2.687 25.316-1.973 57.434-1.013 78.731 12.846 24.212-15.756 63-15.096 91.68-11.534v-117.185c0-1.381 1.119-2.5 2.5-2.5s2.5 1.119 2.5 2.5v120.029c0 1.521-1.348 2.683-2.834 2.478-28.295-3.81-68.881-5.07-92.42 11.277-.857.596-1.994.596-2.851 0zm-95.232-13.421c-.185-1.369.775-2.627 2.144-2.812 1.777-.239 3.696-.481 5.738-.714 1.364-.159 2.61.829 2.767 2.2.157 1.372-.828 2.611-2.2 2.768-2.005.229-3.891.466-5.637.701-1.383.186-2.629-.787-2.812-2.143z" fill="#fff"/></g><g><path d="m128 96.769v63.946l-25.055 9.207 4.785-27.14-20.281-22.981 28.024.374z" fill="#f0c020"/></g><g><path d="m128 96.769v63.946l25.056 9.207-4.785-27.14 20.281-22.981-28.024.374z" fill="#f0c020"/></g></g><g><path d="m215.254 18.034c-3.683-1.217-7.487-2.281-9.623-11.481-1.967 8.473-5.118 9.992-9.623 11.481 7.347 2.428 8.455 6.447 9.623 11.481 2.013-8.677 5.343-10.067 9.623-11.481z" fill="#f0c020"/></g><g><path d="m246.2 29.517c-3.683-1.217-7.487-2.281-9.623-11.481-1.967 8.473-5.118 9.992-9.623 11.481 7.347 2.428 8.455 6.447 9.623 11.481 2.013-8.677 5.343-10.067 9.623-11.481z" fill="#f0c020"/></g><g><g><g><path d="m70.75 237.96c-3.683-1.217-7.487-2.281-9.623-11.481-1.967 8.473-5.118 9.992-9.623 11.481 7.347 2.428 8.455 6.447 9.623 11.48 2.013-8.675 5.343-10.065 9.623-11.48z" fill="#f0c020"/></g><g><path d="m193.541 80.672h-23.51c-.763 0-1.483.348-1.957.945l-17.862 22.48c-.859 1.081-.68 2.654.401 3.513 1.082.859 2.655.678 3.513-.402l17.112-21.536h22.303c1.381 0 2.5-1.119 2.5-2.5s-1.12-2.5-2.5-2.5z"/><path d="m212.667 85.672c1.381 0 2.5-1.119 2.5-2.5s-1.119-2.5-2.5-2.5h-7.895c-1.381 0-2.5 1.119-2.5 2.5s1.119 2.5 2.5 2.5z"/><path d="m183.465 95.348c0 1.381 1.119 2.5 2.5 2.5h26.702c1.381 0 2.5-1.119 2.5-2.5s-1.119-2.5-2.5-2.5h-26.702c-1.381 0-2.5 1.119-2.5 2.5z"/><path d="m196.041 144.585c0-1.381-1.119-2.5-2.5-2.5h-10.972c-.561 0-1.105.188-1.546.535l-16.864 13.267c-1.085.854-1.272 2.425-.419 3.511.853 1.084 2.425 1.273 3.511.419l16.184-12.732h10.106c1.38 0 2.5-1.119 2.5-2.5z"/><path d="m212.667 142.085h-9.07c-1.381 0-2.5 1.119-2.5 2.5s1.119 2.5 2.5 2.5h9.07c1.381 0 2.5-1.119 2.5-2.5s-1.119-2.5-2.5-2.5z"/><path d="m185.965 159.101h26.702c1.381 0 2.5-1.119 2.5-2.5s-1.119-2.5-2.5-2.5h-26.702c-1.381 0-2.5 1.119-2.5 2.5s1.119 2.5 2.5 2.5z"/><path d="m90.509 155.887-16.865-13.267c-.44-.347-.985-.535-1.546-.535h-10.971c-1.381 0-2.5 1.119-2.5 2.5s1.119 2.5 2.5 2.5h10.105l16.185 12.732c1.086.854 2.658.665 3.511-.419.854-1.085.666-2.657-.419-3.511z"/><path d="m40 147.085h11.07c1.381 0 2.5-1.119 2.5-2.5s-1.119-2.5-2.5-2.5h-11.07c-1.381 0-2.5 1.119-2.5 2.5s1.12 2.5 2.5 2.5z"/><path d="m68.703 154.101h-28.703c-1.381 0-2.5 1.119-2.5 2.5s1.119 2.5 2.5 2.5h28.702c1.381 0 2.5-1.119 2.5-2.5s-1.119-2.5-2.499-2.5z"/><path d="m49.698 79.26h23.188c1.381 0 2.5-1.119 2.5-2.5s-1.119-2.5-2.5-2.5h-23.188c-1.381 0-2.5 1.119-2.5 2.5s1.119 2.5 2.5 2.5z"/><path d="m40 91.76h42.583c1.381 0 2.5-1.119 2.5-2.5s-1.119-2.5-2.5-2.5h-42.583c-1.381 0-2.5 1.119-2.5 2.5s1.12 2.5 2.5 2.5z"/><path d="m40 102.577h42.583c1.381 0 2.5-1.119 2.5-2.5s-1.119-2.5-2.5-2.5h-42.583c-1.381 0-2.5 1.119-2.5 2.5s1.12 2.5 2.5 2.5z"/><path d="m222.82 207.97c1.28 0 2.351-.96 2.48-2.23.144-1.373-.831-2.604-2.22-2.75-12.903-1.37-27.407-2.107-40.32-1.54-1.38.06-2.45 1.23-2.39 2.61s1.25 2.46 2.609 2.39c18.782-.841 40.841 1.52 39.841 1.52z"/><path d="m172.89 207.18c1.519 0 2.649-1.312 2.49-2.76-.14-1.37-1.38-2.37-2.75-2.23-1.37.15-2.37 1.38-2.22 2.75.131 1.28 1.2 2.24 2.48 2.24z"/><path d="m140.17 219.84c3.91-5.18 11.97-9.07 23.31-11.25 1.351-.27 2.24-1.58 1.98-2.93-.26-1.33-1.58-2.23-2.92-1.98-.01 0-.01 0-.021 0-12.819 2.54-21.43 6.83-26.319 13.12-.841 1.09-.631 2.66.47 3.5 1.073.829 2.631.661 3.5-.46z"/><path d="m115.83 219.841c.841 1.096 2.41 1.301 3.505.46 1.096-.841 1.302-2.411.46-3.505-13.559-17.657-57.14-16.538-81.907-14.298-1.376.124-2.39 1.34-2.266 2.715.126 1.375 1.352 2.391 2.715 2.265 19.12-1.727 64.94-3.982 77.493 12.363z"/><path d="m241.25 67.96c-1.79-.253-3.664-.491-5.57-.723v-11.417c0-2.17-1.55-4.03-3.68-4.42-6.08-1.12-22.23-3.74-40.891-4.05h-.04c-1.359 0-2.479 1.1-2.5 2.45-.02 1.383 1.072 2.52 2.45 2.54 18 .3 33.7 2.82 39.66 3.9v137.17c-29.117-5.108-76.842-8.054-100.18 10.543v-39.656l21.693 7.971c1.806.664 3.658-.886 3.324-2.781l-4.576-25.954 19.484-22.079c1.438-1.63.248-4.174-1.907-4.154l-26.504.354-11.513-21.512v-27.701c10.144-10.422 27.72-14.128 40.83-15.381 1.37-.13 2.38-1.36 2.239-2.73-.13-1.37-1.35-2.37-2.72-2.25-15.083 1.499-31.868 5.425-42.85 15.78-22.584-21.158-73.803-18.024-103.999-12.46-2.13.39-3.681 2.25-3.681 4.42v11.417c-1.906.232-3.78.47-5.569.723-6.187.872-10.77 6.164-10.77 12.38v71.91c0 1.38 1.12 2.5 2.5 2.5s2.5-1.12 2.5-2.5v-.01-71.9c0-3.72 2.78-6.91 6.471-7.43 1.587-.217 3.221-.428 4.869-.635v121.735c.012 2.852 2.626 4.933 5.261 4.43 1 0 75.491-14.57 100.58 12.91 1.025 1.095 2.698 1.041 3.68 0 19.611-21.48 71.742-18.068 100.55-12.91 2.681.514 5.279-1.593 5.29-4.43v-121.74c1.645.205 3.278.416 4.87.64 3.69.52 6.47 3.71 6.47 7.43v128.98c-.011 4.655-4.205 8.074-8.47 7.43-23.902-3.13-53.36-4.523-77.19.21-7.52 1.48-14.17 4.64-19.739 9.38-1.121.961-2.853 1.184-4.08.27-5.634-4.23-13.443-4.234-19.08 0-1.209.901-2.924.702-4.07-.28-5.55-4.73-12.16-7.87-19.66-9.35-23.678-4.718-53.356-3.383-77.279-.22-4.654.565-8.459-3.051-8.471-7.44v-37.07c0-1.38-1.12-2.5-2.5-2.5s-2.5 1.12-2.5 2.5v37.07c.012 7.714 6.92 13.439 14.12 12.39 23.448-3.076 52.375-4.455 75.66.17 6.64 1.32 12.49 4.1 17.39 8.25 2.868 2.46 7.18 2.827 10.311.48 3.855-2.882 9.182-2.912 13.08 0 3.01 2.259 7.306 2.087 10.319-.46 5-4.24 10.721-6.95 17.471-8.29 23.168-4.592 52.064-3.23 75.569-.15 7.707.977 14.11-5.034 14.12-12.39v-128.98c-.002-6.226-4.592-11.509-10.772-12.38zm-131.646 73.168-16.549-18.752 22.384.299c.92.003 1.796-.498 2.237-1.32l7.824-14.618v52.233l-19.339 7.106 4.03-22.86c.133-.749-.083-1.518-.587-2.088zm30.958-18.453 22.384-.299-16.549 18.752c-.504.57-.72 1.339-.588 2.088l4.03 22.86-19.339-7.106v-52.233l7.824 14.618c.442.822 1.315 1.316 2.238 1.32zm-115.242 70.735v-137.17c28.409-5.148 80.069-8.524 100.181 12.18v27.722l-11.515 21.513-26.504-.354c-2.223-.008-3.311 2.563-1.907 4.154l19.484 22.079-4.576 25.954c-.336 1.905 1.527 3.441 3.324 2.781l21.693-7.971v39.656c-23.359-18.61-70.937-15.659-100.18-10.544z"/><circle cx="6.48" cy="162.25" r="2.5"/><path d="m181.161 52.43c1.385-.063 2.451-1.209 2.409-2.59-.05-1.35-1.149-2.41-2.5-2.41-.029 0-.06 0-.09 0-1.38.05-2.46 1.21-2.41 2.59.047 1.255 1.014 2.41 2.591 2.41z"/><path d="m195.233 20.382c6.218 2.054 6.922 5.092 7.989 9.691.593 2.551 4.227 2.55 4.819 0 1.771-7.637 4.38-8.499 7.989-9.691 2.254-.745 2.26-3.951 0-4.697-3.468-1.142-6.176-1.881-7.989-9.691-.59-2.545-4.229-2.538-4.818 0-1.773 7.637-4.246 8.455-7.99 9.692-2.254.744-2.26 3.95 0 4.696zm10.408-6.605c1.116 2.01 2.386 3.34 3.699 4.279-1.369.962-2.598 2.253-3.659 4.128-.876-1.476-2.093-2.873-3.872-4.094 1.439-.988 2.728-2.328 3.832-4.313z"/><path d="m226.178 31.866c6.218 2.054 6.922 5.092 7.989 9.691.593 2.551 4.227 2.55 4.819 0 1.771-7.637 4.38-8.499 7.989-9.691 2.254-.745 2.259-3.951 0-4.697-3.468-1.142-6.176-1.881-7.99-9.691-.59-2.545-4.229-2.538-4.818 0-1.773 7.637-4.246 8.455-7.99 9.692-2.253.744-2.258 3.95.001 4.696zm10.408-6.605c1.116 2.01 2.386 3.34 3.699 4.279-1.369.962-2.598 2.253-3.659 4.128-.876-1.476-2.093-2.873-3.872-4.094 1.44-.988 2.729-2.329 3.832-4.313z"/><path d="m71.526 235.612c-3.468-1.142-6.176-1.881-7.989-9.691-.59-2.545-4.229-2.538-4.818 0-1.773 7.637-4.246 8.455-7.99 9.692-2.254.745-2.259 3.951 0 4.697 6.218 2.054 6.922 5.092 7.989 9.691.593 2.551 4.227 2.55 4.819 0 1.771-7.637 4.38-8.499 7.989-9.691 2.254-.746 2.259-3.952 0-4.698zm-10.349 6.499c-.876-1.476-2.093-2.873-3.872-4.094 1.44-.988 2.729-2.328 3.832-4.313 1.116 2.01 2.386 3.34 3.699 4.279-1.37.962-2.598 2.253-3.659 4.128z"/></g></g></g></g></svg>