<svg xmlns="http://www.w3.org/2000/svg" xml:space="preserve" id="stitching-machine" x="0" y="0" enable-background="new 0 0 64 64" version="1.1" viewBox="0 0 64 64">
  <path d="M61.14,13.38h-6.28v-0.7c0-1.85-1.51-3.35-3.36-3.35s-3.35,1.5-3.35,3.35v3.5h-1.89v-0.56c0-2.08-1.7-3.77-3.78-3.77h-4.43
		V8.59c0-0.54-0.44-0.97-0.97-0.97c-0.54,0-0.97,0.43-0.97,0.97v3.26h-14.5V8.59c0-0.54-0.43-0.97-0.97-0.97
		c-0.54,0-0.97,0.43-0.97,0.97v3.26h-4.43c-0.3-3.33-3.11-5.95-6.52-5.95c-3.61,0-6.55,2.94-6.55,6.56v15.85
		c0,3.28,2.43,6,5.58,6.47v6.5c0,0.54,0.43,0.97,0.97,0.97s0.97-0.43,0.97-0.97v-6.5c3.15-0.47,5.58-3.19,5.58-6.47v-0.47h16.71
		l-2.36,17.88H6.83C3.06,45.72,0,48.78,0,52.54v4.59c0,0.53,0.43,0.97,0.97,0.97h58.37c0.53,0,0.96-0.44,0.96-0.97v-4.59
		c0-3.76-3.05-6.82-6.81-6.82h-4.98l-2.25-18.91v-1.4h1.89v2.85c0,1.86,1.5,3.36,3.35,3.36s3.36-1.5,3.36-3.36V19.1h6.28
		c0.77,0,1.48-0.29,2.02-0.83C63.7,17.73,64,17.01,64,16.24C64,14.67,62.72,13.38,61.14,13.38z M13.34,26.87h-0.01
		C13.33,26.87,13.34,26.87,13.34,26.87v1.44c0,2.54-2.07,4.61-4.62,4.61c-2.54,0-4.61-2.07-4.61-4.61V12.46
		c0-2.55,2.07-4.62,4.61-4.62c2.55,0,4.62,2.07,4.62,4.62V26.87z M15.27,25.9V13.79h27.21c1.01,0,1.84,0.82,1.84,1.83V25.9H15.27z
		 M49.02,56.16H11.3v-3.28h37.72V56.16z M53.49,47.66c2.69,0,4.88,2.19,4.88,4.88v3.62h-7.41v-4.25c0-0.54-0.43-0.97-0.97-0.97
		H10.33c-0.54,0-0.97,0.43-0.97,0.97v4.25H1.94v-3.62c0-2.69,2.19-4.88,4.89-4.88H53.49z M46.56,45.72H31.58l2.36-17.88h10.48
		L46.56,45.72z M48.15,23.47h-1.89v-5.36h1.89V23.47z M52.92,14.34c0,0.01,0,0.01,0,0.01c0,0.01,0,0.01,0,0.01v3.76
		c0,0.01,0,0.01,0,0.01c0,0.01,0,0.01,0,0.01v10.12c0,0.79-0.64,1.42-1.42,1.42s-1.41-0.63-1.41-1.42V17.15c0,0,0,0,0-0.01v-4.46
		c0-0.78,0.63-1.41,1.41-1.41s1.42,0.63,1.42,1.41V14.34z M61.79,16.9c-0.17,0.17-0.4,0.26-0.65,0.26h-6.28v-1.84h6.28
		c0.51,0,0.92,0.41,0.92,0.92C62.06,16.49,61.97,16.72,61.79,16.9z"></path>
  <path fill="#8a8bc4" d="M62.06,16.24c0,0.25-0.09,0.48-0.27,0.66c-0.17,0.17-0.4,0.26-0.65,0.26h-6.28v-1.84h6.28
		C61.65,15.32,62.06,15.73,62.06,16.24z"></path>
  <path fill="#faa951" d="M52.92,12.68v1.66c0,0.01,0,0.01,0,0.01c0,0.01,0,0.01,0,0.01v3.76c0,0.01,0,0.01,0,0.01c0,0.01,0,0.01,0,0.01
		v10.12c0,0.79-0.64,1.42-1.42,1.42s-1.41-0.63-1.41-1.42V17.15c0,0,0,0,0-0.01v-4.46c0-0.78,0.63-1.41,1.41-1.41
		S52.92,11.9,52.92,12.68z"></path>
  <rect width="37.72" height="3.28" x="11.3" y="52.88" fill="#faa951"></rect>
  <path fill="#faa951" d="M13.34,26.87h-0.01C13.33,26.87,13.34,26.87,13.34,26.87v1.44c0,2.54-2.07,4.61-4.62,4.61
		c-2.54,0-4.61-2.07-4.61-4.61V12.46c0-2.55,2.07-4.62,4.61-4.62c2.55,0,4.62,2.07,4.62,4.62V26.87z"></path>
  <polygon fill="#8a8bc4" points="46.56 45.72 31.58 45.72 33.94 27.84 44.42 27.84"></polygon>
  <path fill="#8a8bc4" d="M42.48 13.79H15.27V25.9h29.05V15.62C44.32 14.61 43.49 13.79 42.48 13.79zM37.54 24.79c-2.72 0-4.94-2.22-4.94-4.94 0-2.73 2.22-4.95 4.94-4.95 2.73 0 4.94 2.22 4.94 4.95C42.48 22.57 40.27 24.79 37.54 24.79zM58.37 52.54v3.62h-7.41v-4.25c0-.54-.43-.97-.97-.97H10.33c-.54 0-.97.43-.97.97v4.25H1.94v-3.62c0-2.69 2.19-4.88 4.89-4.88h46.66C56.18 47.66 58.37 49.85 58.37 52.54z"></path>
  <path d="M37.54,14.9c-2.72,0-4.94,2.22-4.94,4.95c0,2.72,2.22,4.94,4.94,4.94c2.73,0,4.94-2.22,4.94-4.94
		C42.48,17.12,40.27,14.9,37.54,14.9z M37.54,22.85c-1.65,0-3-1.35-3-3c0-1.66,1.35-3.01,3-3.01c1.66,0,3,1.35,3,3.01
		C40.54,21.5,39.2,22.85,37.54,22.85z"></path>
  <path fill="#faa951" d="M40.54,19.85c0,1.65-1.34,3-3,3c-1.65,0-3-1.35-3-3c0-1.66,1.35-3.01,3-3.01
		C39.2,16.84,40.54,18.19,40.54,19.85z"></path>
</svg>
