<svg id="Layer_1" viewBox="0 0 512 512" xmlns="http://www.w3.org/2000/svg" data-name="Layer 1"><g fill-rule="evenodd"><path d="m256.009 11.231c-36.342 22.69-80.345 35.619-104 41.655v101.993c0 12.621 3.026 24.043 9.473 34.898 17.662 29.74 61.665 53.153 94.527 73.019 32.862-19.867 76.864-43.28 94.526-73.019 6.447-10.855 9.474-22.277 9.474-34.898v-101.993c-23.655-6.037-67.658-18.965-104-41.655z" fill="#2dd62d"/><path d="m247.139 16.498c-34.394 19.45-73.371 30.835-95.13 36.388v101.993c0 12.622 3.026 24.043 9.474 34.898 17.662 29.74 61.665 53.153 94.526 73.02 27.127-16.4 61.843-35.217 83.07-58.013 1.152-1.632 2.232-3.282 3.225-4.954 6.447-10.855 9.474-26.648 9.474-39.269v-101.993c-23.126-5.902-65.701-18.391-101.553-40.148-.469-.285-1.844-1.144-3.086-1.922z" fill="#43f043"/><path d="m249.461 36.989c-24.555 13.462-53.355 23.011-80.358 30.923v84.635c0 8.058 1.812 15.065 5.933 22.003 10.841 18.253 43.799 37.752 68.102 49.672l-42.87-34.217c-12.18-9.721-18.635-23.134-18.635-38.717v-76.27c27.973-8.197 56.083-18.144 82.874-30.234-2.839-1.413-5.671-2.851-8.497-4.31-2.202-1.137-4.385-2.299-6.548-3.484z" fill="#2dd62d"/><path d="m256.009 40.474c-24.555 13.462-51.745 23.766-78.747 31.679v82.726c0 8.059 1.812 15.065 5.933 22.003 12.271 20.663 47.332 41.577 72.814 56.566 25.482-14.988 60.542-35.903 72.814-56.566 4.121-6.939 5.933-13.945 5.933-22.003v-82.726c-27.002-7.913-54.192-18.217-78.747-31.679z" fill="#fff"/><path d="m209.635 121.001c5.033-2.906 11.528-1.165 14.434 3.868l14.43 24.995 51.134-51.135c4.11-4.109 10.834-4.109 14.943 0s4.109 10.834 0 14.943l-61.793 61.793c-2.173 2.173-4.966 3.121-8.013 2.72s-5.499-2.04-7.036-4.701l-21.967-38.049c-2.906-5.033-1.166-11.528 3.867-14.434z" fill="#4eb1fc"/><path d="m209.635 121.001c5.033-2.906 11.528-1.165 14.434 3.868l14.43 24.995 51.135-51.135c4.109-4.109 10.834-4.109 14.943 0 .646.646 1.19 1.357 1.633 2.111-.453 1.77-1.369 3.443-2.748 4.822l-61.793 61.793c-2.173 2.173-4.966 3.121-8.013 2.72s-5.499-2.039-7.036-4.701l-21.919-37.965c.686-2.651 2.388-5.039 4.933-6.508z" fill="#85caff"/><path d="m92.603 101.09 10.181 21.671 23.756 2.986c1.228.154 2.196.954 2.578 2.132.383 1.177.07 2.393-.833 3.24l-17.464 16.379 4.501 23.516c.233 1.216-.229 2.383-1.231 3.111s-2.254.806-3.339.209l-20.974-11.547-20.974 11.547c-1.085.597-2.337.519-3.339-.209s-1.463-1.895-1.23-3.111l4.501-23.516-17.464-16.379c-.903-.847-1.216-2.062-.833-3.24.382-1.177 1.35-1.977 2.578-2.132l23.756-2.986 10.181-21.671c.526-1.12 1.586-1.793 2.824-1.793s2.298.673 2.824 1.793z" fill="#fcdb35"/><path d="m107.411 172.494-22.171-12.206-21.055 11.592c-.023-.282-.007-.573.049-.866l4.501-23.516-17.463-16.38c-.903-.847-1.216-2.062-.833-3.24s1.35-1.977 2.578-2.132l23.756-2.986 9.529-20.282 9.093 19.353 23.756 2.986c1.228.154 2.195.954 2.578 2.132s.07 2.393-.833 3.24l-17.464 16.379 4.501 23.516c.168.877-.026 1.729-.522 2.409z" fill="#ffeb87"/><path d="m425.063 101.09 10.181 21.671 23.756 2.986c1.228.154 2.196.954 2.578 2.132.383 1.177.07 2.393-.833 3.24l-17.464 16.379 4.501 23.516c.233 1.216-.229 2.383-1.231 3.111-1.001.728-2.254.806-3.339.209l-20.974-11.547-20.974 11.547c-1.085.597-2.337.519-3.339-.209s-1.463-1.895-1.23-3.111l4.501-23.516-17.464-16.379c-.903-.847-1.215-2.062-.833-3.24.382-1.177 1.35-1.977 2.578-2.132l23.756-2.986 10.181-21.671c.526-1.12 1.586-1.793 2.824-1.793s2.298.673 2.824 1.793z" fill="#fcdb35"/><path d="m439.871 172.494-22.171-12.206-21.055 11.592c-.023-.282-.007-.573.049-.866l4.501-23.516-17.463-16.38c-.903-.847-1.215-2.062-.833-3.24s1.35-1.977 2.578-2.132l23.756-2.986 9.529-20.282 9.093 19.353 23.756 2.986c1.228.154 2.195.954 2.578 2.132s.07 2.393-.833 3.24l-17.464 16.379 4.501 23.516c.168.877-.025 1.729-.522 2.409z" fill="#ffeb87"/><path d="m259.041 480.895 19.244 10.944c24.84 14.341 39.854-16.153 20.448-27.453l10.805 6.238c8.63 4.983 19.768 1.998 24.751-6.632 4.965-8.599 2-19.725-6.575-24.718l5.78 3.337c9.189 5.305 21.049 2.127 26.355-7.062 5.283-9.151 2.133-20.99-6.985-26.31l.018.011 5.743 3.315c9.189 5.306 21.049 2.127 26.355-7.062 2.638-4.569 3.157-9.868 1.897-14.631-1.501-3.887-2.82-7.306-8.959-11.723l-57.973-33.47c-30.678-24.615-47.278-38.771-70.194-62.046-39.817-28.618-68.474 6.982-121.151-22.644l-37.47-21.074c-33.437 27.243-52.409 61.34-40.651 116.942l66.916 34.495 17.251 18.564 124.396 70.978z" fill="#ffcec0"/><g fill="#fdb0a0"><path d="m381.71 409.697c1.252-1.211 2.357-2.613 3.269-4.193 2.638-4.569 3.157-9.868 1.897-14.631-1.501-3.887-2.82-7.306-8.959-11.723l-57.973-33.47c-30.678-24.615-47.277-38.771-70.194-62.046-4.972-3.573-9.77-6.146-14.462-7.968l-50.65 31.579c-18.143 11.312-17.696 34.616-1.948 47.656 9.167 7.591 19.814 11.987 31.825 11.52 23.996-.934 42.917-20.855 64.681-20.984 12.418-.073 23.168 6.736 33.542 12.726l57.307 33.086c4.903 3.133 14.659 8.7 11.665 18.449z"/><path d="m295.95 462.779c-3.563-2.057-8.155-.826-10.213 2.737-2.055 3.558-.822 8.158 2.736 10.212l17.599 10.161c3.221-7.084 1.571-16.315-7.339-21.503l-2.784-1.608z"/><path d="m317.044 433.113c-3.978-2.296-9.105-.922-11.401 3.055-2.294 3.973-.917 9.108 3.055 11.401l26.256 15.159c4.001-8.397.922-18.703-7.239-23.455l-10.671-6.161z"/><path d="m352.864 409.24-16.477-9.513c-3.978-2.296-9.105-.923-11.401 3.056-2.294 3.972-.918 9.108 3.055 11.401l32.954 19.026c3.569-8.74.227-19.094-8.131-23.97z"/></g><path d="m131.411 415.518c-5.246 9.087-2.104 20.813 6.983 26.06 9.074 5.239 20.82 2.091 26.059-6.983l13.71-23.748c5.246-9.086 2.104-20.813-6.983-26.059-9.074-5.239-20.821-2.092-26.06 6.983l-13.71 23.747z" fill="#f0e3df"/><path d="m230.538 472.75c-5.246 9.086-2.104 20.813 6.983 26.06 9.074 5.239 20.82 2.091 26.059-6.983l13.71-23.748c5.246-9.086 2.104-20.813-6.983-26.059-9.074-5.239-20.821-2.092-26.06 6.983l-13.71 23.747z" fill="#f0e3df"/><path d="m192.867 461.69c-5.246 9.086-2.104 20.813 6.983 26.06 9.074 5.239 20.82 2.091 26.059-6.983l18.339-31.765c5.246-9.086 2.104-20.813-6.982-26.059-9.074-5.239-20.821-2.092-26.06 6.983l-18.339 31.765z" fill="#f0e3df"/><path d="m155.938 449.345c-5.246 9.087-2.104 20.813 6.983 26.06 9.074 5.239 20.82 2.092 26.059-6.983l22.226-38.497c5.246-9.087 2.104-20.813-6.983-26.059-9.074-5.239-20.821-2.092-26.06 6.983l-22.225 38.497z" fill="#f0e3df"/><path d="m460.394 356.858-73.518 34.015c-1.501-3.887-2.82-7.306-8.959-11.723l-57.973-33.47c-12.667-7.314-24.883-14.751-40.834-14.656-34.697.205-58.006 36.975-87.228 12.776-7.358-6.093-10.113-17.781.382-24.324l61.989-38.649c20.679-12.893 42.939-19.039 65.536-11.591 19.378 6.387 38.528 4.844 56.36-5.073l43.594-24.246c37.573 25.967 54.016 73.268 40.651 116.942z" fill="#d9c5bf"/><path d="m460.394 356.858-73.518 34.015c-1.501-3.887-2.82-7.306-8.959-11.722l-57.973-33.47c-12.668-7.314-24.883-14.751-40.834-14.657-34.697.205-58.006 36.975-87.228 12.777l-.129-.11c.578-3.475 2.655-6.804 6.743-9.353l61.989-38.649c20.679-12.893 42.939-19.039 65.536-11.591 19.378 6.387 38.528 4.844 56.36-5.073l32.539-18.097 17.956-10.272c28.098 27.047 39.205 68.012 27.518 106.204z" fill="#f0e3df"/><path d="m472.603 362.516-18.419 7.822c-2.326.988-4.781.769-6.895-.615-2.115-1.384-3.297-3.546-3.323-6.073-.443-43.745-18.345-79.612-50.104-106.35-1.906-1.604-2.821-3.846-2.581-6.326.239-2.479 1.565-4.504 3.742-5.715l23.491-13.065c3.969-2.208 8.615-1.835 12.182.978 37.151 29.302 56.774 80.428 48.399 121.408-.748 3.663-3.048 6.475-6.49 7.936z" fill="#4eb1fc"/><path d="m472.603 362.516-12.689 5.389c-.074-.045-.148-.092-.222-.14-2.242-1.468-3.496-3.759-3.523-6.439-.469-46.38-19.45-84.409-53.123-112.757-1.897-1.598-2.869-3.791-2.77-6.23l18.237-10.143c3.969-2.207 8.615-1.835 12.181.978 37.151 29.302 56.774 80.428 48.4 121.408-.749 3.663-3.049 6.475-6.49 7.936z" fill="#85caff"/><path d="m39.415 362.516 18.42 7.822c2.326.988 4.78.769 6.895-.615 2.114-1.384 3.297-3.546 3.322-6.073.443-43.745 18.345-79.612 50.104-106.35 1.906-1.604 2.822-3.846 2.582-6.326-.239-2.479-1.565-4.504-3.742-5.715l-23.491-13.065c-3.969-2.208-8.615-1.835-12.181.978-37.151 29.302-56.774 80.428-48.399 121.408.749 3.663 3.048 6.475 6.49 7.936z" fill="#4eb1fc"/><path d="m39.415 362.516 12.689 5.389c.075-.045.148-.092.222-.14 2.243-1.468 3.496-3.759 3.524-6.439.469-46.38 19.45-84.409 53.123-112.757 1.898-1.598 2.869-3.791 2.77-6.23l-18.237-10.143c-3.969-2.207-8.615-1.835-12.181.978-37.151 29.302-56.774 80.428-48.4 121.408.749 3.663 3.049 6.475 6.49 7.936z" fill="#85caff"/><path d="m141.939 443.166c8.39 2.762 17.935-.641 22.513-8.57l13.711-23.748c4.585-7.941 2.763-17.897-3.834-23.783l-32.39 56.102z" fill="#d9c5bf"/><path d="m241.066 500.397c8.39 2.762 17.936-.641 22.514-8.57l13.71-23.747c4.585-7.941 2.762-17.898-3.834-23.784z" fill="#d9c5bf"/><path d="m203.396 489.337c8.39 2.762 17.936-.641 22.514-8.57l18.339-31.765c4.585-7.941 2.762-17.897-3.834-23.783z" fill="#d9c5bf"/><path d="m166.466 476.992c8.375 2.758 17.901-.629 22.489-8.526l22.251-38.541c4.585-7.941 2.763-17.897-3.834-23.784z" fill="#d9c5bf"/><path d="m77.668 129.703c2.381-.299 4.439-1.798 5.461-3.967l6.637-14.123 6.642 14.123c1.022 2.169 3.08 3.668 5.461 3.967l15.482 1.952-11.385 10.667c-1.75 1.644-2.54 4.073-2.087 6.42l2.94 15.333-13.67-7.529c-2.111-1.152-4.651-1.152-6.763 0l-13.669 7.529 2.94-15.333c.448-2.347-.337-4.777-2.092-6.42l-11.375-10.667 15.477-1.952zm-16.489 20.201-3.76 19.671c-.752 3.89.781 7.751 3.982 10.079 3.205 2.328 7.36 2.588 10.831.68l17.535-9.659 17.54 9.659c1.552.848 3.234 1.272 4.892 1.272 2.092 0 4.16-.66 5.929-1.952 3.21-2.328 4.743-6.189 3.991-10.079l-3.76-19.671 14.609-13.713c2.892-2.709 3.924-6.729 2.69-10.498-1.219-3.76-4.42-6.41-8.348-6.898l-19.873-2.502-8.517-18.128c-1.682-3.581-5.191-5.813-9.153-5.813s-7.466 2.232-9.148 5.813l-8.517 18.128-19.873 2.502c-3.928.487-7.129 3.138-8.348 6.907-1.229 3.76-.188 7.78 2.699 10.503l14.6 13.698zm348.952-20.201c2.381-.299 4.439-1.798 5.461-3.967l6.637-14.123 6.642 14.123c1.017 2.169 3.08 3.668 5.461 3.967l15.477 1.952-11.38 10.667c-1.75 1.644-2.54 4.073-2.092 6.42l2.945 15.333-13.674-7.529c-2.106-1.152-4.647-1.152-6.758 0l-13.669 7.529 2.94-15.333c.448-2.347-.342-4.777-2.092-6.42l-11.38-10.667zm-16.489 20.201-3.76 19.671c-.752 3.89.776 7.751 3.977 10.079 3.21 2.328 7.36 2.588 10.831.68l17.54-9.659 17.54 9.659c1.552.848 3.229 1.272 4.892 1.272 2.087 0 4.155-.66 5.929-1.952 3.21-2.328 4.738-6.189 3.991-10.079l-3.76-19.671 14.609-13.713c2.887-2.709 3.919-6.729 2.69-10.498-1.219-3.76-4.42-6.41-8.353-6.898l-19.868-2.502-8.522-18.128c-1.677-3.581-5.186-5.813-9.148-5.813s-7.471 2.232-9.148 5.813l-8.522 18.128-19.868 2.502c-3.928.487-7.134 3.138-8.353 6.907-1.229 3.76-.188 7.789 2.699 10.503l14.605 13.698zm-180.592-22.9c1.682-.969 3.933-.381 4.902 1.311l14.446 25.031c1.094 1.89 2.993 3.157 5.153 3.437 2.159.284 4.318-.448 5.861-1.99l51.218-51.208c.901-.911 1.971-1.041 2.53-1.041s1.629.13 2.54 1.041c1.369 1.369 1.369 3.692 0 5.061l-61.899 61.889c-.641.641-1.263.848-2.159.742-.892-.121-1.441-.492-1.899-1.273l-22.004-38.107c-.969-1.682-.366-3.923 1.311-4.892zm8.57 49.998c2.641 4.56 6.97 7.461 12.199 8.151.761.101 1.533.149 2.28.149 4.372 0 8.421-1.687 11.602-4.868l61.889-61.889c6.859-6.849 6.859-18.013.01-24.862-3.321-3.321-7.731-5.138-12.44-5.138s-9.12 1.817-12.431 5.138l-44.768 44.759-9.891-17.13c-4.849-8.397-15.617-11.279-24.018-6.44-8.392 4.854-11.284 15.622-6.43 24.023l21.999 38.107zm-37.49-99.78v77.641c0 6.998 1.533 12.691 4.96 18.47 11.033 18.581 44.701 39.009 66.912 52.1 22.221-13.091 55.879-33.519 66.912-52.1 3.427-5.779 4.955-11.472 4.955-18.47v-77.641c-26.896-8.17-51.039-17.911-71.867-28.988-20.832 11.077-44.961 20.818-71.871 28.988zm68.319 162.373c1.099.641 2.318.969 3.552.969s2.449-.328 3.548-.969c24.664-14.499 61.923-36.42 75.4-59.113 4.724-7.958 6.922-16.099 6.922-25.618v-82.852c0-3.109-2.049-5.837-5.032-6.719-29.446-8.628-55.508-19.107-77.468-31.147-2.102-1.152-4.642-1.152-6.729 0-21.97 12.041-48.032 22.519-77.482 31.147-2.979.882-5.027 3.61-5.027 6.719v82.852c0 9.52 2.198 17.66 6.917 25.618 13.482 22.693 50.741 44.614 75.4 59.113zm-93.611-181.47v96.738c0 11.481 2.781 21.738 8.502 31.378 14.619 24.611 49.198 45.12 79.709 63.22 3.041 1.803 6.03 3.581 8.951 5.321 2.921-1.74 5.909-3.519 8.951-5.321 30.511-18.099 65.09-38.609 79.709-63.22 5.717-9.64 8.498-19.897 8.498-31.378v-96.738c-27.836-7.413-65.297-19.839-97.157-38.932-31.86 19.092-69.322 31.519-97.162 38.932zm81.073 203.377c4.28 2.54 8.459 5.022 12.469 7.442 1.109.68 2.371 1.012 3.62 1.012s2.511-.333 3.62-1.012c4.01-2.42 8.189-4.902 12.47-7.442 31.952-18.948 68.17-40.426 84.601-68.107 7.047-11.862 10.469-24.462 10.469-38.531v-102.152c0-3.2-2.159-5.987-5.258-6.777-28.342-7.23-69.062-20.191-102.195-40.884-2.265-1.407-5.148-1.407-7.418 0-33.128 20.693-73.848 33.654-102.18 40.884-3.099.79-5.268 3.577-5.268 6.777v102.151c0 14.069 3.417 26.669 10.469 38.531 16.432 27.681 52.649 49.16 84.601 68.107zm232.547 92.082c-.289 1.412-1.041 2.328-2.371 2.902l-18.436 7.828c-.12.048-.173.048-.173.048-.01 0-.058-.01-.159-.077-.106-.072-.14-.111-.14-.111-.01-.01-.019-.063-.029-.179-.448-44.494-18.649-83.131-52.649-111.753-.092-.077-.12-.12-.12-.12 0-.01-.01-.067 0-.178.01-.12.029-.169.029-.178.01 0 .053-.043.149-.101l23.522-13.082c1.509-.839 3.09-.709 4.449.361 34.613 27.301 53.931 75.511 45.93 114.64zm-90.781 19.449-57.831-33.388-1.436-.829c-12.513-7.249-25.45-14.73-42.494-14.73h-.337c-15.361.087-28.462 6.488-40.011 12.127-18.148 8.869-29.07 13.351-42.498 2.222-2.55-2.111-4.15-5.258-3.972-7.852.13-2.001 1.311-3.659 3.591-5.081l61.831-38.546c21.507-13.414 40.971-16.962 59.489-10.864 21.261 7.013 42.628 5.08 61.807-5.586l11.202-6.232c29.152 25.19 44.629 57.359 46.032 95.702l-46.644 21.579c-1.658-2.54-4.107-5.239-8.136-8.141-.193-.14-.391-.27-.593-.381zm-2.521 28.853c-1.615 2.81-4.261 4.83-7.437 5.678-3.172.848-6.468.429-9.279-1.2l-5.813-3.35s-.01-.01-.019-.01c0 0 0-.01-.01-.01l-8.69-5.022c-3.35-1.928-7.63-.776-9.568 2.564-1.933 3.35-.781 7.625 2.569 9.568l8.71 5.032c5.842 3.369 7.847 10.869 4.478 16.716-1.629 2.82-4.27 4.83-7.437 5.683-3.181.848-6.483.429-9.288-1.2l-5.823-3.36h-.01l-8.951-5.172c-3.35-1.928-7.63-.791-9.558 2.559-1.943 3.35-.791 7.63 2.559 9.558l8.936 5.172q.01 0 .024.01c5.278 3.051 7.1 9.843 4.049 15.121-1.47 2.55-3.861 4.372-6.729 5.143-2.873.767-5.852.386-8.401-1.084l-10.831-6.256q-.01 0-.019-.01l-1.639-.94c-3.34-1.933-7.63-.79-9.563 2.559-1.928 3.35-.776 7.63 2.559 9.558l1.653.95c4.459 2.584 5.399 6.044 5.399 8.493 0 3.408-1.87 6.69-4.757 8.358-3.639 2.102-8.604 1.552-14.041-1.591l-4.912-2.757 6.551-11.342c7.167-12.431 2.902-28.38-9.529-35.562-6.512-3.745-13.969-4.367-20.64-2.318-.072-.299-.14-.603-.222-.901-1.803-6.729-6.097-12.34-12.108-15.81-6.001-3.461-13.009-4.377-19.743-2.579-.299.082-.588.169-.877.261-1.571-6.801-5.832-12.952-12.344-16.711-6.497-3.75-13.968-4.367-20.639-2.328-.067-.294-.13-.593-.207-.892-1.812-6.729-6.112-12.339-12.113-15.81-12.426-7.182-28.38-2.897-35.557 9.529l-5.712 9.891-10.758-11.568c-.549-.602-1.2-1.089-1.918-1.46l-46.581-24.023c1.147-38.739 16.586-71.226 45.92-96.627l5.196 2.931c28.583 16.07 50.683 14.156 70.17 12.469 14.88-1.301 27.204-2.362 40.72 4.121l-47.646 29.706c-6.112 3.813-9.712 9.5-10.151 16.022-.482 7.081 2.979 14.581 9.009 19.579 21.039 17.42 40.45 7.944 57.58-.429 10.7-5.23 21.782-10.638 33.943-10.71h.246c13.289 0 24.081 6.242 35.49 12.841l58.973 34.049c4.02 2.95 4.849 4.81 6.068 7.944.718 3.06.26 6.309-1.282 8.97zm-128.411 91.687c3.123-.829 5.721-2.82 7.312-5.577l13.679-23.691c1.6-2.762 2.02-6.001 1.181-9.119-.838-3.123-2.82-5.721-5.576-7.312-1.894-1.089-3.962-1.61-6.001-1.61-4.165 0-8.213 2.159-10.44 6.011l-13.669 23.691c-1.6 2.757-2.02 5.996-1.181 9.12.829 3.118 2.82 5.716 5.581 7.307 2.757 1.6 5.996 2.024 9.115 1.181zm-46.696-12.209c5.741 3.321 13.12 1.34 16.427-4.401l18.302-31.687c1.59-2.762 2.01-6.001 1.181-9.124-.839-3.119-2.82-5.717-5.591-7.307-2.757-1.6-6.001-2.02-9.119-1.181-3.119.829-5.712 2.81-7.307 5.582l-18.292 31.692c-1.6 2.757-2.02 5.996-1.181 9.115.829 3.123 2.82 5.712 5.582 7.312zm-27.72-11.13c3.118-.838 5.721-2.82 7.322-5.591l22.167-38.396c1.591-2.772 2.01-6.011 1.181-9.124-.838-3.119-2.82-5.717-5.591-7.307-5.736-3.321-13.111-1.35-16.427 4.4l-13.684 23.686-8.488 14.711c-3.321 5.75-1.34 13.12 4.401 16.431 2.767 1.601 6.01 2.02 9.12 1.191zm-37.992-51.362c-3.321 5.741-1.34 13.125 4.401 16.432 5.75 3.321 13.12 1.34 16.441-4.401l13.67-23.685c1.6-2.772 2.019-6.011 1.181-9.124-.834-3.119-2.81-5.717-5.582-7.307-2.757-1.6-6.001-2.024-9.12-1.181-3.118.829-5.721 2.81-7.312 5.577l-13.679 23.69zm-77.506-54.707s.014-.053.014-.169c.453-44.494 18.654-83.131 52.654-111.753.092-.077.116-.12.116-.13 0 0 .014-.058 0-.169-.005-.12-.024-.178-.039-.178 0 0-.039-.043-.14-.101l-23.517-13.082c-1.513-.839-3.09-.709-4.449.361-34.613 27.301-53.931 75.511-45.935 114.64.289 1.412 1.041 2.328 2.381 2.902l18.432 7.828c.12.048.178.048.178.048s.063-.01.164-.077c.096-.072.14-.111.14-.12zm374.368-136.21c38.541 30.39 59.971 84.399 50.982 128.43-1.215 5.9-5.08 10.628-10.623 12.99l-18.437 7.828c-1.841.781-3.75 1.161-5.654 1.161-2.728 0-5.418-.79-7.818-2.362-1.051-.689-1.981-1.489-2.791-2.366l-46.118 21.338c.149 4.849-1.031 9.712-3.451 13.911-3.49 6.049-9.163 10.392-15.94 12.199-1.962.53-3.928.81-5.9.877.819 5.644-.169 11.583-3.229 16.894-3.49 6.049-9.163 10.387-15.94 12.209-2.111.559-4.241.848-6.362.892.573 5.129-.419 10.464-3.201 15.27-4.627 8.04-13.077 12.537-21.748 12.537-1.321 0-2.651-.12-3.962-.328-.28 8.136-4.709 15.627-11.737 19.69-3.6 2.078-7.64 3.109-11.881 3.109-5.211 0-10.72-1.562-16.099-4.671l-4.969-2.791-.13.222c-3.47 6.001-9.081 10.3-15.81 12.108-2.261.603-4.55.901-6.82.901-4.502 0-8.941-1.181-12.932-3.48-4.709-2.718-8.358-6.767-10.589-11.631-4.189 2.661-9.071 4.078-14.022 4.078-4.406 0-8.879-1.118-12.971-3.475-4.916-2.854-8.686-7.134-10.888-12.291-1.918 1.099-4.001 1.962-6.198 2.55-2.261.597-4.541.901-6.811.901-4.512 0-8.951-1.181-12.942-3.48-10.715-6.194-15.366-18.914-11.828-30.27-4.309-.063-8.647-1.171-12.638-3.47-12.431-7.182-16.701-23.131-9.52-35.562l.636-1.108-12.86-13.843-43.67-22.51c-.607.574-1.248 1.113-1.967 1.581-2.41 1.581-5.104 2.371-7.832 2.371-1.89 0-3.808-.381-5.649-1.161l-18.441-7.828c-5.538-2.362-9.409-7.09-10.619-12.99-8.989-44.031 12.44-98.04 50.981-128.43 5.808-4.589 13.448-5.211 19.931-1.6l23.517 13.082c4.179 2.318 6.839 6.387 7.312 11.159.048.52.058 1.036.048 1.547l5.302 2.983c24.809 13.949 43.756 12.311 62.087 10.72 17.439-1.509 35.432-3.07 55.484 9.621l.636-.39c24.9-15.53 48.87-19.661 71.274-12.281 17.699 5.837 34.728 4.309 50.63-4.531l11.38-6.329c0-.439 0-.892.048-1.34.458-4.772 3.118-8.84 7.312-11.159l23.507-13.082c6.478-3.61 14.123-2.988 19.931 1.6z"/></g></svg>